G04 Layer_Color=65535*
%FSTAX24Y24*%
%MOIN*%
G70*
G01*
G75*
%ADD22C,0.0236*%
%ADD39C,0.0098*%
%ADD40C,0.0060*%
%ADD41C,0.0039*%
%ADD42C,0.0100*%
%ADD43C,0.0020*%
%ADD44C,0.0079*%
%ADD45C,0.0070*%
%ADD46C,0.0050*%
%ADD47C,0.0040*%
%ADD48C,0.0059*%
%ADD49C,0.0080*%
%ADD50C,0.0049*%
%ADD51C,0.0049*%
D22*
X012756Y036024D02*
G03*
X012756Y036024I-000118J0D01*
G01*
X02503Y019205D02*
G03*
X02503Y019205I-000118J0D01*
G01*
X018291D02*
G03*
X018291Y019205I-000118J0D01*
G01*
X004813D02*
G03*
X004813Y019205I-000118J0D01*
G01*
X005935Y03623D02*
G03*
X005935Y03623I-000118J0D01*
G01*
X040591Y026594D02*
G03*
X040591Y026594I-000118J0D01*
G01*
X011552Y019205D02*
G03*
X011552Y019205I-000118J0D01*
G01*
X018291Y025768D02*
G03*
X018291Y025768I-000118J0D01*
G01*
X004813D02*
G03*
X004813Y025768I-000118J0D01*
G01*
D39*
X013159Y040837D02*
G03*
X013159Y040837I-000049J0D01*
G01*
X011752Y036518D02*
G03*
X011752Y036518I-000049J0D01*
G01*
X029784Y007667D02*
G03*
X029784Y007667I-000049J0D01*
G01*
X033386D02*
G03*
X033386Y007667I-000049J0D01*
G01*
X036988Y007667D02*
G03*
X036988Y007667I-000049J0D01*
G01*
X040591Y007667D02*
G03*
X040591Y007667I-000049J0D01*
G01*
X044193Y007667D02*
G03*
X044193Y007667I-000049J0D01*
G01*
X047795Y007667D02*
G03*
X047795Y007667I-000049J0D01*
G01*
X051398D02*
G03*
X051398Y007667I-000049J0D01*
G01*
X055Y007667D02*
G03*
X055Y007667I-000049J0D01*
G01*
X024026Y019699D02*
G03*
X024026Y019699I-000049J0D01*
G01*
X017287D02*
G03*
X017287Y019699I-000049J0D01*
G01*
X016831Y040876D02*
G03*
X016831Y040876I-000049J0D01*
G01*
X003809Y019699D02*
G03*
X003809Y019699I-000049J0D01*
G01*
X004931Y036724D02*
G03*
X004931Y036724I-000049J0D01*
G01*
X041112Y027549D02*
G03*
X041112Y027549I-000049J0D01*
G01*
X010548Y019699D02*
G03*
X010548Y019699I-000049J0D01*
G01*
X017287Y026262D02*
G03*
X017287Y026262I-000049J0D01*
G01*
X003809D02*
G03*
X003809Y026262I-000049J0D01*
G01*
D40*
X049061Y024237D02*
G03*
X049061Y024237I-0005J0D01*
G01*
Y028002D02*
G03*
X049061Y028002I-0005J0D01*
G01*
Y031767D02*
G03*
X049061Y031767I-0005J0D01*
G01*
Y035714D02*
G03*
X049061Y035714I-0005J0D01*
G01*
X037183Y031687D02*
G03*
X037183Y029887I0J-0009D01*
G01*
X039883D02*
G03*
X039883Y031687I0J0009D01*
G01*
X047661Y025087D02*
X049511D01*
X047211Y023737D02*
Y024587D01*
X047661Y023287D02*
X049511D01*
X049961Y023737D02*
Y024587D01*
X047661Y028852D02*
X049511D01*
X047211Y027502D02*
Y028352D01*
X047661Y027052D02*
X049511D01*
X049961Y027502D02*
Y028352D01*
X047661Y032617D02*
X049511D01*
X047211Y031267D02*
Y032117D01*
X047661Y030817D02*
X049511D01*
X049961Y031267D02*
Y032117D01*
X047661Y036564D02*
X049511D01*
X047211Y035214D02*
Y036064D01*
X047661Y034764D02*
X049511D01*
X049961Y035214D02*
Y036064D01*
X037183Y031687D02*
X039883D01*
X037183Y029887D02*
X039883D01*
D41*
X01166Y005598D02*
G03*
X01166Y005598I-000157J0D01*
G01*
X011857Y00559D02*
G03*
X011857Y00559I-000354J0D01*
G01*
X011581Y004516D02*
G03*
X011581Y004516I-000079J0D01*
G01*
X010531Y004616D02*
G03*
X010531Y004616I-000079J0D01*
G01*
Y005616D02*
G03*
X010531Y005616I-000079J0D01*
G01*
Y006616D02*
G03*
X010531Y006616I-000079J0D01*
G01*
X012731Y004616D02*
G03*
X012731Y004616I-000079J0D01*
G01*
Y005616D02*
G03*
X012731Y005616I-000079J0D01*
G01*
Y006616D02*
G03*
X012731Y006616I-000079J0D01*
G01*
X004921Y005598D02*
G03*
X004921Y005598I-000157J0D01*
G01*
X005118Y00559D02*
G03*
X005118Y00559I-000354J0D01*
G01*
X004843Y004516D02*
G03*
X004843Y004516I-000079J0D01*
G01*
X003793Y004616D02*
G03*
X003793Y004616I-000079J0D01*
G01*
Y005616D02*
G03*
X003793Y005616I-000079J0D01*
G01*
Y006616D02*
G03*
X003793Y006616I-000079J0D01*
G01*
X005993Y004616D02*
G03*
X005993Y004616I-000079J0D01*
G01*
Y005616D02*
G03*
X005993Y005616I-000079J0D01*
G01*
Y006616D02*
G03*
X005993Y006616I-000079J0D01*
G01*
X025138Y005598D02*
G03*
X025138Y005598I-000157J0D01*
G01*
X025335Y00559D02*
G03*
X025335Y00559I-000354J0D01*
G01*
X025059Y004516D02*
G03*
X025059Y004516I-000079J0D01*
G01*
X024009Y004616D02*
G03*
X024009Y004616I-000079J0D01*
G01*
Y005616D02*
G03*
X024009Y005616I-000079J0D01*
G01*
Y006616D02*
G03*
X024009Y006616I-000079J0D01*
G01*
X026209Y004616D02*
G03*
X026209Y004616I-000079J0D01*
G01*
Y005616D02*
G03*
X026209Y005616I-000079J0D01*
G01*
Y006616D02*
G03*
X026209Y006616I-000079J0D01*
G01*
X018399Y005598D02*
G03*
X018399Y005598I-000157J0D01*
G01*
X018596Y00559D02*
G03*
X018596Y00559I-000354J0D01*
G01*
X01832Y004516D02*
G03*
X01832Y004516I-000079J0D01*
G01*
X01727Y004616D02*
G03*
X01727Y004616I-000079J0D01*
G01*
Y005616D02*
G03*
X01727Y005616I-000079J0D01*
G01*
Y006616D02*
G03*
X01727Y006616I-000079J0D01*
G01*
X01947Y004616D02*
G03*
X01947Y004616I-000079J0D01*
G01*
Y005616D02*
G03*
X01947Y005616I-000079J0D01*
G01*
Y006616D02*
G03*
X01947Y006616I-000079J0D01*
G01*
D42*
X01305Y008328D02*
G03*
X01305Y008328I-000212J0D01*
G01*
X006311D02*
G03*
X006311Y008328I-000212J0D01*
G01*
X026527Y008476D02*
G03*
X026527Y008476I-000212J0D01*
G01*
X019789Y008456D02*
G03*
X019789Y008456I-000212J0D01*
G01*
X009718Y009878D02*
X013288D01*
X009718Y007878D02*
Y009878D01*
Y007878D02*
X013288D01*
Y009878D01*
X002979D02*
X006549D01*
X002979Y007878D02*
Y009878D01*
Y007878D02*
X006549D01*
Y009878D01*
X023195Y010026D02*
X026765D01*
X023195Y008026D02*
Y010026D01*
Y008026D02*
X026765D01*
Y010026D01*
X016456Y010006D02*
X020026D01*
X016456Y008006D02*
Y010006D01*
Y008006D02*
X020026D01*
Y010006D01*
X029241Y013474D02*
X030423D01*
Y012312D02*
Y013474D01*
X043823D02*
X045018D01*
X043823Y012319D02*
Y013474D01*
X045023Y012312D02*
Y038769D01*
X029236D02*
X045023D01*
X029236Y012312D02*
Y038769D01*
Y012312D02*
X045023D01*
X029236Y036369D02*
X045023D01*
X043823Y037569D02*
Y03875D01*
Y037569D02*
X045004D01*
X030423D02*
Y03875D01*
X029242Y037569D02*
X030423D01*
X029236Y014669D02*
X045023D01*
D43*
X037183Y031487D02*
G03*
X037183Y030087I0J-0007D01*
G01*
X039883D02*
G03*
X039883Y031487I0J0007D01*
G01*
X037183D02*
X039883D01*
X037183Y030087D02*
X039883D01*
D44*
X019514Y033821D02*
Y034821D01*
X021514D01*
Y033821D02*
Y034821D01*
X019514Y033821D02*
X021514D01*
X010472Y040246D02*
X01311D01*
X010472Y039144D02*
X01311D01*
Y040246D01*
X010472Y039144D02*
Y040246D01*
X012244Y034449D02*
X013169D01*
X012244Y036417D02*
X013169D01*
Y034449D02*
Y036417D01*
X012244Y034449D02*
Y036417D01*
X003762Y026596D02*
Y027596D01*
X005762D01*
Y026596D02*
Y027596D01*
X003762Y026596D02*
X005762D01*
X030187Y007549D02*
X030384D01*
Y007234D02*
Y007549D01*
X030187Y006368D02*
X030384D01*
Y006683D01*
X033789Y007549D02*
X033986D01*
Y007234D02*
Y007549D01*
X033789Y006368D02*
X033986D01*
Y006683D01*
X037392Y007549D02*
X037589D01*
Y007234D02*
Y007549D01*
X037392Y006368D02*
X037589D01*
Y006683D01*
X040994Y007549D02*
X041191D01*
Y007234D02*
Y007549D01*
X040994Y006368D02*
X041191D01*
Y006683D01*
X044597Y007549D02*
X044793D01*
Y007234D02*
Y007549D01*
X044597Y006368D02*
X044793D01*
Y006683D01*
X048199Y007549D02*
X048396D01*
Y007234D02*
Y007549D01*
X048199Y006368D02*
X048396D01*
Y006683D01*
X051801Y007549D02*
X051998D01*
Y007234D02*
Y007549D01*
X051801Y006368D02*
X051998D01*
Y006683D01*
X055404Y007549D02*
X0556D01*
Y007234D02*
Y007549D01*
X055404Y006368D02*
X0556D01*
Y006683D01*
X024518Y01763D02*
X025443D01*
X024518Y019599D02*
X025443D01*
Y01763D02*
Y019599D01*
X024518Y01763D02*
Y019599D01*
X017779Y01763D02*
X018704D01*
X017779Y019599D02*
X018704D01*
Y01763D02*
Y019599D01*
X017779Y01763D02*
Y019599D01*
X031328Y028681D02*
X032076D01*
X031328Y03002D02*
X032076D01*
X031328Y028681D02*
Y03002D01*
X033533Y028839D02*
Y029862D01*
X032667Y028681D02*
X033336D01*
X033336Y03002D02*
X033533Y029862D01*
X033336Y028681D02*
X033533Y028839D01*
X032667Y03002D02*
X033336D01*
X024514Y037138D02*
Y038138D01*
X019514Y037138D02*
X024514D01*
X019514Y038138D02*
X024514D01*
X019514Y037138D02*
Y038138D01*
X001985Y036093D02*
Y036841D01*
X003323Y036093D02*
Y036841D01*
X001985D02*
X003323D01*
X002142Y034636D02*
X003166D01*
X001985Y034833D02*
Y035502D01*
X003166Y034636D02*
X003323Y034833D01*
X001985Y034833D02*
X002142Y034636D01*
X003323Y034833D02*
Y035502D01*
X008337Y036033D02*
Y036781D01*
X009675Y036033D02*
Y036781D01*
X008337D02*
X009675D01*
X008494Y034577D02*
X009518D01*
X008337Y034774D02*
Y035443D01*
X009518Y034577D02*
X009675Y034774D01*
X008337Y034774D02*
X008494Y034577D01*
X009675Y034774D02*
Y035443D01*
X008337Y039961D02*
Y040709D01*
X009675Y039961D02*
Y040709D01*
X008337D02*
X009675D01*
X008494Y038504D02*
X009518D01*
X008337Y038701D02*
Y03937D01*
X009518Y038504D02*
X009675Y038701D01*
X008337Y038701D02*
X008494Y038504D01*
X009675Y038701D02*
Y03937D01*
X013809Y039951D02*
Y040699D01*
X015148Y039951D02*
Y040699D01*
X013809D02*
X015148D01*
X013967Y038494D02*
X01499D01*
X013809Y038691D02*
Y03936D01*
X01499Y038494D02*
X015148Y038691D01*
X013809Y038691D02*
X013967Y038494D01*
X015148Y038691D02*
Y03936D01*
X031328Y024921D02*
X032076D01*
X031328Y02626D02*
X032076D01*
X031328Y024921D02*
Y02626D01*
X033533Y025079D02*
Y026102D01*
X032667Y024921D02*
X033336D01*
X033336Y02626D02*
X033533Y026102D01*
X033336Y024921D02*
X033533Y025079D01*
X032667Y02626D02*
X033336D01*
X015699Y038533D02*
X015817D01*
X015699Y04062D02*
X015817D01*
X016722Y038533D02*
X016841D01*
X016722Y04062D02*
X016841D01*
X015699Y038533D02*
Y04062D01*
X016841Y038533D02*
Y04062D01*
X004301Y01763D02*
X005226D01*
X004301Y019599D02*
X005226D01*
Y01763D02*
Y019599D01*
X004301Y01763D02*
Y019599D01*
X054325Y004205D02*
Y005205D01*
X056325D01*
Y004205D02*
Y005205D01*
X054325Y004205D02*
X056325D01*
X050722D02*
Y005205D01*
X052722D01*
Y004205D02*
Y005205D01*
X050722Y004205D02*
X052722D01*
X04712D02*
Y005205D01*
X04912D01*
Y004205D02*
Y005205D01*
X04712Y004205D02*
X04912D01*
X043518D02*
Y005205D01*
X045518D01*
Y004205D02*
Y005205D01*
X043518Y004205D02*
X045518D01*
X039915D02*
Y005205D01*
X041915D01*
Y004205D02*
Y005205D01*
X039915Y004205D02*
X041915D01*
X036313D02*
Y005205D01*
X038313D01*
Y004205D02*
Y005205D01*
X036313Y004205D02*
X038313D01*
X054429Y009343D02*
Y010343D01*
X052429Y009343D02*
X054429D01*
X052429D02*
Y010343D01*
X054429D01*
X047341Y009293D02*
Y010293D01*
X045341Y009293D02*
X047341D01*
X045341D02*
Y010293D01*
X047341D01*
X040215Y009362D02*
Y010362D01*
X038215Y009362D02*
X040215D01*
X038215D02*
Y010362D01*
X040215D01*
X032711Y004205D02*
Y005205D01*
X034711D01*
Y004205D02*
Y005205D01*
X032711Y004205D02*
X034711D01*
X029108D02*
Y005205D01*
X031108D01*
Y004205D02*
Y005205D01*
X029108Y004205D02*
X031108D01*
X033035Y009264D02*
Y010264D01*
X031035Y009264D02*
X033035D01*
X031035D02*
Y010264D01*
X033035D01*
X001985Y029626D02*
Y033626D01*
X003985Y029626D02*
Y033626D01*
X001985D02*
X003985D01*
X001985Y029626D02*
X003985D01*
X010503Y026596D02*
Y027596D01*
X012503D01*
Y026596D02*
Y027596D01*
X010503Y026596D02*
X012503D01*
X017241D02*
Y027596D01*
X019241D01*
Y026596D02*
Y027596D01*
X017241Y026596D02*
X019241D01*
X02398D02*
Y027596D01*
X02598D01*
Y026596D02*
Y027596D01*
X02398Y026596D02*
X02598D01*
X005423Y034656D02*
X006348D01*
X005423Y036624D02*
X006348D01*
Y034656D02*
Y036624D01*
X005423Y034656D02*
Y036624D01*
X010153Y006994D02*
X012853D01*
X010153Y004244D02*
Y006994D01*
X012853Y004244D02*
Y006994D01*
X010153Y004244D02*
X012853D01*
X003414Y006994D02*
X006114D01*
X003414Y004244D02*
Y006994D01*
X006114Y004244D02*
Y006994D01*
X003414Y004244D02*
X006114D01*
X02363Y006994D02*
X02633D01*
X02363Y004244D02*
Y006994D01*
X02633Y004244D02*
Y006994D01*
X02363Y004244D02*
X02633D01*
X016891Y006994D02*
X019591D01*
X016891Y004244D02*
Y006994D01*
X019591Y004244D02*
Y006994D01*
X016891Y004244D02*
X019591D01*
X035984Y026988D02*
X040866D01*
X035984Y022106D02*
X040866D01*
Y026988D01*
X035984Y022106D02*
Y026988D01*
X01104Y01763D02*
X011965D01*
X01104Y019599D02*
X011965D01*
Y01763D02*
Y019599D01*
X01104Y01763D02*
Y019599D01*
X017779Y024193D02*
X018704D01*
X017779Y026161D02*
X018704D01*
Y024193D02*
Y026161D01*
X017779Y024193D02*
Y026161D01*
X019514Y039095D02*
X024314D01*
X019514Y041095D02*
X024314D01*
X019514Y039095D02*
Y041095D01*
X024314Y039095D02*
Y041095D01*
X004301Y024193D02*
Y026161D01*
X005226Y024193D02*
Y026161D01*
X004301D02*
X005226D01*
X004301Y024193D02*
X005226D01*
X035123Y012769D02*
Y013769D01*
X039123D01*
X035123Y012769D02*
X039123D01*
Y013769D01*
X032623Y037469D02*
X041623D01*
Y038469D01*
X032623D02*
X041623D01*
X032623Y037469D02*
Y038469D01*
D45*
X-000598Y038485D02*
Y041785D01*
X004852Y038485D02*
Y041785D01*
X-000598D02*
X004852D01*
X-000598Y038485D02*
X004852D01*
X000102D02*
Y041785D01*
D46*
X047326Y02043D02*
X047996D01*
X047326D02*
Y02196D01*
X047996D01*
Y02043D02*
Y02196D01*
X016585Y022741D02*
X018115D01*
Y023411D01*
X016585D02*
X018115D01*
X016585Y022741D02*
Y023411D01*
X048902Y020448D02*
Y021978D01*
Y020448D02*
X049572D01*
Y021978D01*
X048902D02*
X049572D01*
X047326Y019203D02*
X047996D01*
Y017673D02*
Y019203D01*
X047326Y017673D02*
X047996D01*
X047326D02*
Y019203D01*
X049582Y017673D02*
Y019203D01*
X048912D02*
X049582D01*
X048912Y017673D02*
Y019203D01*
Y017673D02*
X049582D01*
X047388Y014898D02*
X048058D01*
X047388D02*
Y016428D01*
X048058D01*
Y014898D02*
Y016428D01*
X048912Y014916D02*
Y016446D01*
Y014916D02*
X049582D01*
Y016446D01*
X048912D02*
X049582D01*
X047388Y013689D02*
X048058D01*
Y012159D02*
Y013689D01*
X047388Y012159D02*
X048058D01*
X047388D02*
Y013689D01*
X049582Y012159D02*
Y013689D01*
X048912D02*
X049582D01*
X048912Y012159D02*
Y013689D01*
Y012159D02*
X049582D01*
X018558Y022151D02*
X020088D01*
X018558Y021481D02*
Y022151D01*
Y021481D02*
X020088D01*
Y022151D01*
X016585Y022131D02*
X018115D01*
X016585Y021461D02*
Y022131D01*
Y021461D02*
X018115D01*
Y022131D01*
X023209Y022151D02*
X024739D01*
X023209Y021481D02*
Y022151D01*
Y021481D02*
X024739D01*
Y022151D01*
X0253Y022161D02*
X02683D01*
X0253Y021491D02*
Y022161D01*
Y021491D02*
X02683D01*
Y022161D01*
X02529Y020803D02*
X02682D01*
X02529Y020133D02*
Y020803D01*
Y020133D02*
X02682D01*
Y020803D01*
X023209D02*
X024739D01*
X023209Y020133D02*
Y020803D01*
Y020133D02*
X024739D01*
Y020803D01*
X018558D02*
X020088D01*
X018558Y020133D02*
Y020803D01*
Y020133D02*
X020088D01*
Y020803D01*
X016585D02*
X018115D01*
X016585Y020133D02*
Y020803D01*
Y020133D02*
X018115D01*
Y020803D01*
X02718Y017537D02*
Y019067D01*
Y017537D02*
X02785D01*
Y019067D01*
X02718D02*
X02785D01*
X027199Y019273D02*
Y020803D01*
Y019273D02*
X027869D01*
Y020803D01*
X027199D02*
X027869D01*
X02529Y01528D02*
X02682D01*
Y01595D01*
X02529D02*
X02682D01*
X02529Y01528D02*
Y01595D01*
Y016994D02*
X02682D01*
X02529Y016324D02*
Y016994D01*
Y016324D02*
X02682D01*
Y016994D01*
X02213Y019273D02*
Y020803D01*
Y019273D02*
X0228D01*
Y020803D01*
X02213D02*
X0228D01*
X02281Y017537D02*
Y019067D01*
X02214D02*
X02281D01*
X02214Y017537D02*
Y019067D01*
Y017537D02*
X02281D01*
X023209Y01595D02*
X024739D01*
X023209Y01528D02*
Y01595D01*
Y01528D02*
X024739D01*
Y01595D01*
X023209Y016994D02*
X024739D01*
X023209Y016324D02*
Y016994D01*
Y016324D02*
X024739D01*
Y016994D01*
X006894Y01927D02*
Y0208D01*
Y01927D02*
X007564D01*
Y0208D01*
X006894D02*
X007564D01*
X006894Y017537D02*
Y019067D01*
Y017537D02*
X007564D01*
Y019067D01*
X006894D02*
X007564D01*
X015339Y019273D02*
Y020803D01*
Y019273D02*
X016009D01*
Y020803D01*
X015339D02*
X016009D01*
Y017537D02*
Y019067D01*
X015339D02*
X016009D01*
X015339Y017537D02*
Y019067D01*
Y017537D02*
X016009D01*
X020516D02*
Y019067D01*
Y017537D02*
X021186D01*
Y019067D01*
X020516D02*
X021186D01*
X020516Y01927D02*
Y0208D01*
Y01927D02*
X021186D01*
Y0208D01*
X020516D02*
X021186D01*
X018558Y016994D02*
X020088D01*
X018558Y016324D02*
Y016994D01*
Y016324D02*
X020088D01*
Y016994D01*
X018558Y01528D02*
X020088D01*
Y01595D01*
X018558D02*
X020088D01*
X018558Y01528D02*
Y01595D01*
X016585D02*
X018115D01*
X016585Y01528D02*
Y01595D01*
Y01528D02*
X018115D01*
Y01595D01*
X016585Y016994D02*
X018115D01*
X016585Y016324D02*
Y016994D01*
Y016324D02*
X018115D01*
Y016994D01*
X015232Y034708D02*
Y036238D01*
X014562D02*
X015232D01*
X014562Y034708D02*
Y036238D01*
Y034708D02*
X015232D01*
X011047D02*
Y036238D01*
X010377D02*
X011047D01*
X010377Y034708D02*
Y036238D01*
Y034708D02*
X011047D01*
X039337Y032357D02*
X040867D01*
Y033027D01*
X039337D02*
X040867D01*
X039337Y032357D02*
Y033027D01*
X042249Y025362D02*
Y026892D01*
Y025362D02*
X042919D01*
Y026892D01*
X042249D02*
X042919D01*
X036357Y033027D02*
X037887D01*
X036357Y032357D02*
Y033027D01*
Y032357D02*
X037887D01*
Y033027D01*
X031984Y026612D02*
Y028142D01*
X031314D02*
X031984D01*
X031314Y026612D02*
Y028142D01*
Y026612D02*
X031984D01*
X032877Y026622D02*
Y028152D01*
Y026622D02*
X033547D01*
Y028152D01*
X032877D02*
X033547D01*
X034998Y018381D02*
X036528D01*
X034998Y017711D02*
Y018381D01*
Y017711D02*
X036528D01*
Y018381D01*
X036897Y017721D02*
X038427D01*
Y018391D01*
X036897D02*
X038427D01*
X036897Y017721D02*
Y018391D01*
X051215Y023418D02*
Y024948D01*
Y023418D02*
X051885D01*
Y024948D01*
X051215D02*
X051885D01*
X051077Y027345D02*
Y028875D01*
Y027345D02*
X051747D01*
Y028875D01*
X051077D02*
X051747D01*
X050959Y030938D02*
Y032468D01*
Y030938D02*
X051629D01*
Y032468D01*
X050959D02*
X051629D01*
X007672Y029813D02*
X009202D01*
Y030483D01*
X007672D02*
X009202D01*
X007672Y029813D02*
Y030483D01*
X010374Y041747D02*
X011904D01*
Y042417D01*
X010374D02*
X011904D01*
X010374Y041747D02*
Y042417D01*
X007672Y032764D02*
X009202D01*
Y033434D01*
X007672D02*
X009202D01*
X007672Y032764D02*
Y033434D01*
X010377Y03786D02*
X011907D01*
X010377Y03719D02*
Y03786D01*
Y03719D02*
X011907D01*
Y03786D01*
X007672Y031312D02*
X009202D01*
Y031982D01*
X007672D02*
X009202D01*
X007672Y031312D02*
Y031982D01*
X009808Y032764D02*
X011338D01*
Y033434D01*
X009808D02*
X011338D01*
X009808Y032764D02*
Y033434D01*
X009774Y032023D02*
X011304D01*
X009774Y031353D02*
Y032023D01*
Y031353D02*
X011304D01*
Y032023D01*
X011786Y022751D02*
X013316D01*
Y023421D01*
X011786D02*
X013316D01*
X011786Y022751D02*
Y023421D01*
X00971Y022751D02*
X01124D01*
Y023421D01*
X00971D02*
X01124D01*
X00971Y022751D02*
Y023421D01*
X011786Y026039D02*
X013316D01*
X011786Y025369D02*
Y026039D01*
Y025369D02*
X013316D01*
Y026039D01*
X007564Y022751D02*
Y024281D01*
X006894D02*
X007564D01*
X006894Y022751D02*
Y024281D01*
Y022751D02*
X007564D01*
X00971Y025378D02*
X01124D01*
Y026049D01*
X00971D02*
X01124D01*
X00971Y025378D02*
Y026049D01*
X031314Y031112D02*
X032844D01*
X031314Y030442D02*
Y031112D01*
Y030442D02*
X032844D01*
Y031112D01*
X006894Y024981D02*
Y026511D01*
Y024981D02*
X007564D01*
Y026511D01*
X006894D02*
X007564D01*
X011786Y02473D02*
X013316D01*
X011786Y02406D02*
Y02473D01*
Y02406D02*
X013316D01*
Y02473D01*
X00971D02*
X01124D01*
X00971Y02406D02*
Y02473D01*
Y02406D02*
X01124D01*
Y02473D01*
X002574Y022751D02*
Y024281D01*
X001904D02*
X002574D01*
X001904Y022751D02*
Y024281D01*
Y022751D02*
X002574D01*
X053116Y023418D02*
Y024948D01*
X052446D02*
X053116D01*
X052446Y023418D02*
Y024948D01*
Y023418D02*
X053116D01*
X053017Y027345D02*
Y028875D01*
X052347D02*
X053017D01*
X052347Y027345D02*
Y028875D01*
Y027345D02*
X053017D01*
Y030938D02*
Y032468D01*
X052347D02*
X053017D01*
X052347Y030938D02*
Y032468D01*
Y030938D02*
X053017D01*
X002574Y024981D02*
Y026511D01*
X001904D02*
X002574D01*
X001904Y024981D02*
Y026511D01*
Y024981D02*
X002574D01*
X02529Y022751D02*
X02682D01*
Y023421D01*
X02529D02*
X02682D01*
X02529Y022751D02*
Y023421D01*
X023209Y022751D02*
X024739D01*
Y023421D01*
X023209D02*
X024739D01*
X023209Y022751D02*
Y023421D01*
X021186Y022751D02*
Y024281D01*
X020516D02*
X021186D01*
X020516Y022751D02*
Y024281D01*
Y022751D02*
X021186D01*
X02529Y026029D02*
X02682D01*
X02529Y025359D02*
Y026029D01*
Y025359D02*
X02682D01*
Y026029D01*
X020516Y024981D02*
Y026511D01*
Y024981D02*
X021186D01*
Y026511D01*
X020516D02*
X021186D01*
X023209Y025378D02*
X024739D01*
Y026049D01*
X023209D02*
X024739D01*
X023209Y025378D02*
Y026049D01*
X016009Y022751D02*
Y024281D01*
X015339D02*
X016009D01*
X015339Y022751D02*
Y024281D01*
Y022751D02*
X016009D01*
Y024981D02*
Y026511D01*
X015339D02*
X016009D01*
X015339Y024981D02*
Y026511D01*
Y024981D02*
X016009D01*
X02529Y02473D02*
X02682D01*
X02529Y02406D02*
Y02473D01*
Y02406D02*
X02682D01*
Y02473D01*
X023209D02*
X024739D01*
X023209Y02406D02*
Y02473D01*
Y02406D02*
X024739D01*
Y02473D01*
X005496Y029813D02*
Y030483D01*
X007026D01*
Y029813D02*
Y030483D01*
X005496Y029813D02*
X007026D01*
X005515Y032764D02*
Y033434D01*
X007045D01*
Y032764D02*
Y033434D01*
X005515Y032764D02*
X007045D01*
X004932Y01528D02*
X006462D01*
Y01595D01*
X004932D02*
X006462D01*
X004932Y01528D02*
Y01595D01*
Y016994D02*
X006462D01*
X004932Y016324D02*
Y016994D01*
Y016324D02*
X006462D01*
Y016994D01*
X003022Y01595D02*
X004552D01*
X003022Y01528D02*
Y01595D01*
Y01528D02*
X004552D01*
Y01595D01*
X003022Y016994D02*
X004552D01*
X003022Y016324D02*
Y016994D01*
Y016324D02*
X004552D01*
Y016994D01*
X003022Y020812D02*
X004552D01*
X003022Y020142D02*
Y020812D01*
Y020142D02*
X004552D01*
Y020812D01*
X004932D02*
X006462D01*
X004932Y020142D02*
Y020812D01*
Y020142D02*
X006462D01*
Y020812D01*
X002574Y017537D02*
Y019067D01*
X001904D02*
X002574D01*
X001904Y017537D02*
Y019067D01*
Y017537D02*
X002574D01*
X00971Y016994D02*
X01124D01*
X00971Y016324D02*
Y016994D01*
Y016324D02*
X01124D01*
Y016994D01*
X00971Y01595D02*
X01124D01*
X00971Y01528D02*
Y01595D01*
Y01528D02*
X01124D01*
Y01595D01*
X011786Y01528D02*
X013316D01*
Y01595D01*
X011786D02*
X013316D01*
X011786Y01528D02*
Y01595D01*
Y016994D02*
X013316D01*
X011786Y016324D02*
Y016994D01*
Y016324D02*
X013316D01*
Y016994D01*
X009316Y017537D02*
Y019067D01*
X008646D02*
X009316D01*
X008646Y017537D02*
Y019067D01*
Y017537D02*
X009316D01*
X008617Y01927D02*
Y0208D01*
Y01927D02*
X009287D01*
Y0208D01*
X008617D02*
X009287D01*
X00971Y020803D02*
X01124D01*
X00971Y020133D02*
Y020803D01*
Y020133D02*
X01124D01*
Y020803D01*
X011786D02*
X013316D01*
X011786Y020133D02*
Y020803D01*
Y020133D02*
X013316D01*
Y020803D01*
X013705Y017537D02*
Y019067D01*
Y017537D02*
X014375D01*
Y019067D01*
X013705D02*
X014375D01*
X013725Y019273D02*
Y020803D01*
Y019273D02*
X014395D01*
Y020803D01*
X013725D02*
X014395D01*
X00972Y022122D02*
X01125D01*
X00972Y021452D02*
Y022122D01*
Y021452D02*
X01125D01*
Y022122D01*
X011796D02*
X013326D01*
X011796Y021452D02*
Y022122D01*
Y021452D02*
X013326D01*
Y022122D01*
X05456Y007829D02*
X05609D01*
Y008499D01*
X05456D02*
X05609D01*
X05456Y007829D02*
Y008499D01*
X050957Y007829D02*
X052487D01*
Y008499D01*
X050957D02*
X052487D01*
X050957Y007829D02*
Y008499D01*
X047355Y007829D02*
X048885D01*
Y008499D01*
X047355D02*
X048885D01*
X047355Y007829D02*
Y008499D01*
X043753Y007829D02*
X045283D01*
Y008499D01*
X043753D02*
X045283D01*
X043753Y007829D02*
Y008499D01*
X04015Y007829D02*
X04168D01*
Y008499D01*
X04015D02*
X04168D01*
X04015Y007829D02*
Y008499D01*
X036548Y007829D02*
X038078D01*
Y008499D01*
X036548D02*
X038078D01*
X036548Y007829D02*
Y008499D01*
X032946Y007829D02*
X034476D01*
Y008499D01*
X032946D02*
X034476D01*
X032946Y007829D02*
Y008499D01*
X029343Y007829D02*
X030873D01*
Y008499D01*
X029343D02*
X030873D01*
X029343Y007829D02*
Y008499D01*
X051314Y034885D02*
Y036415D01*
Y034885D02*
X051984D01*
Y036415D01*
X051314D02*
X051984D01*
X052988Y034885D02*
Y036415D01*
X052318D02*
X052988D01*
X052318Y034885D02*
Y036415D01*
Y034885D02*
X052988D01*
X018558Y022741D02*
X020088D01*
Y023411D01*
X018558D02*
X020088D01*
X018558Y022741D02*
Y023411D01*
X031314Y023823D02*
X032844D01*
Y024493D01*
X031314D02*
X032844D01*
X031314Y023823D02*
Y024493D01*
Y023293D02*
X032844D01*
X031314Y022623D02*
Y023293D01*
Y022623D02*
X032844D01*
Y023293D01*
X004939Y022122D02*
X006469D01*
X004939Y021452D02*
Y022122D01*
Y021452D02*
X006469D01*
Y022122D01*
X00302Y022112D02*
X00455D01*
X00302Y021442D02*
Y022112D01*
Y021442D02*
X00455D01*
Y022112D01*
X004939Y022751D02*
X006469D01*
Y023421D01*
X004939D02*
X006469D01*
X004939Y022751D02*
Y023421D01*
X003022Y022751D02*
X004552D01*
Y023421D01*
X003022D02*
X004552D01*
X003022Y022751D02*
Y023421D01*
X001904Y01927D02*
Y0208D01*
Y01927D02*
X002574D01*
Y0208D01*
X001904D02*
X002574D01*
X005496Y031312D02*
Y031982D01*
X007026D01*
Y031312D02*
Y031982D01*
X005496Y031312D02*
X007026D01*
D47*
X047906Y02103D02*
Y02137D01*
X047406Y02103D02*
Y02137D01*
X017185Y023331D02*
X017525D01*
X017185Y022831D02*
X017525D01*
X049492Y021038D02*
Y021378D01*
X048992Y021038D02*
Y021378D01*
X047416Y018263D02*
Y018603D01*
X047916Y018263D02*
Y018603D01*
X048992Y018273D02*
Y018613D01*
X049492Y018273D02*
Y018613D01*
X047968Y015498D02*
Y015838D01*
X047468Y015498D02*
Y015838D01*
X049502Y015506D02*
Y015846D01*
X049002Y015506D02*
Y015846D01*
X047478Y012749D02*
Y013089D01*
X047978Y012749D02*
Y013089D01*
X048992Y012759D02*
Y013099D01*
X049492Y012759D02*
Y013099D01*
X019148Y021561D02*
X019488D01*
X019148Y022061D02*
X019488D01*
X017175Y021541D02*
X017515D01*
X017175Y022041D02*
X017515D01*
X023799Y021561D02*
X024139D01*
X023799Y022061D02*
X024139D01*
X02589Y021571D02*
X02623D01*
X02589Y022071D02*
X02623D01*
X02588Y020213D02*
X02622D01*
X02588Y020713D02*
X02622D01*
X023799Y020213D02*
X024139D01*
X023799Y020713D02*
X024139D01*
X019148Y020213D02*
X019488D01*
X019148Y020713D02*
X019488D01*
X017175Y020213D02*
X017515D01*
X017175Y020713D02*
X017515D01*
X02777Y018127D02*
Y018467D01*
X02727Y018127D02*
Y018467D01*
X027789Y019863D02*
Y020203D01*
X027289Y019863D02*
Y020203D01*
X02589Y01587D02*
X02623D01*
X02589Y01537D02*
X02623D01*
X02588Y016404D02*
X02622D01*
X02588Y016904D02*
X02622D01*
X02272Y019863D02*
Y020203D01*
X02222Y019863D02*
Y020203D01*
Y018137D02*
Y018477D01*
X02272Y018137D02*
Y018477D01*
X023799Y01536D02*
X024139D01*
X023799Y01586D02*
X024139D01*
X023799Y016404D02*
X024139D01*
X023799Y016904D02*
X024139D01*
X007484Y01986D02*
Y0202D01*
X006984Y01986D02*
Y0202D01*
X007484Y018127D02*
Y018467D01*
X006984Y018127D02*
Y018467D01*
X015929Y019863D02*
Y020203D01*
X015429Y019863D02*
Y020203D01*
X015419Y018137D02*
Y018477D01*
X015919Y018137D02*
Y018477D01*
X021106Y018127D02*
Y018467D01*
X020606Y018127D02*
Y018467D01*
X021106Y01986D02*
Y0202D01*
X020606Y01986D02*
Y0202D01*
X019148Y016404D02*
X019488D01*
X019148Y016904D02*
X019488D01*
X019158Y01587D02*
X019498D01*
X019158Y01537D02*
X019498D01*
X017175Y01536D02*
X017515D01*
X017175Y01586D02*
X017515D01*
X017175Y016404D02*
X017515D01*
X017175Y016904D02*
X017515D01*
X014642Y035308D02*
Y035648D01*
X015142Y035308D02*
Y035648D01*
X010457Y035308D02*
Y035648D01*
X010957Y035308D02*
Y035648D01*
X039937Y032947D02*
X040277D01*
X039937Y032447D02*
X040277D01*
X042839Y025952D02*
Y026292D01*
X042339Y025952D02*
Y026292D01*
X036947Y032437D02*
X037287D01*
X036947Y032937D02*
X037287D01*
X031394Y027212D02*
Y027552D01*
X031894Y027212D02*
Y027552D01*
X033467Y027212D02*
Y027552D01*
X032967Y027212D02*
Y027552D01*
X035588Y017791D02*
X035928D01*
X035588Y018291D02*
X035928D01*
X037497Y018311D02*
X037837D01*
X037497Y017811D02*
X037837D01*
X051805Y024008D02*
Y024348D01*
X051305Y024008D02*
Y024348D01*
X051667Y027935D02*
Y028275D01*
X051167Y027935D02*
Y028275D01*
X051549Y031528D02*
Y031868D01*
X051049Y031528D02*
Y031868D01*
X008272Y030403D02*
X008612D01*
X008272Y029903D02*
X008612D01*
X010974Y042337D02*
X011314D01*
X010974Y041837D02*
X011314D01*
X008272Y033354D02*
X008612D01*
X008272Y032854D02*
X008612D01*
X010967Y03727D02*
X011307D01*
X010967Y03777D02*
X011307D01*
X008272Y031902D02*
X008612D01*
X008272Y031402D02*
X008612D01*
X010408Y033354D02*
X010748D01*
X010408Y032854D02*
X010748D01*
X010364Y031433D02*
X010704D01*
X010364Y031933D02*
X010704D01*
X012386Y023341D02*
X012726D01*
X012386Y022841D02*
X012726D01*
X01031Y023341D02*
X01065D01*
X01031Y022841D02*
X01065D01*
X012376Y025449D02*
X012716D01*
X012376Y025949D02*
X012716D01*
X006974Y023351D02*
Y023691D01*
X007474Y023351D02*
Y023691D01*
X01031Y025968D02*
X01065D01*
X01031Y025468D02*
X01065D01*
X031904Y030522D02*
X032244D01*
X031904Y031022D02*
X032244D01*
X007484Y025571D02*
Y025911D01*
X006984Y025571D02*
Y025911D01*
X012376Y02414D02*
X012716D01*
X012376Y02464D02*
X012716D01*
X0103Y02414D02*
X01064D01*
X0103Y02464D02*
X01064D01*
X001984Y023351D02*
Y023691D01*
X002484Y023351D02*
Y023691D01*
X052526Y024018D02*
Y024358D01*
X053026Y024018D02*
Y024358D01*
X052427Y027945D02*
Y028285D01*
X052927Y027945D02*
Y028285D01*
X052427Y031538D02*
Y031878D01*
X052927Y031538D02*
Y031878D01*
X001984Y025581D02*
Y025921D01*
X002484Y025581D02*
Y025921D01*
X02589Y023341D02*
X02623D01*
X02589Y022841D02*
X02623D01*
X023809Y023341D02*
X024149D01*
X023809Y022841D02*
X024149D01*
X020596Y023351D02*
Y023691D01*
X021096Y023351D02*
Y023691D01*
X02588Y025439D02*
X02622D01*
X02588Y025939D02*
X02622D01*
X021106Y025571D02*
Y025911D01*
X020606Y025571D02*
Y025911D01*
X023809Y025968D02*
X024149D01*
X023809Y025468D02*
X024149D01*
X015419Y023351D02*
Y023691D01*
X015919Y023351D02*
Y023691D01*
X015419Y025581D02*
Y025921D01*
X015919Y025581D02*
Y025921D01*
X02588Y02414D02*
X02622D01*
X02588Y02464D02*
X02622D01*
X023799Y02414D02*
X024139D01*
X023799Y02464D02*
X024139D01*
X006096Y029903D02*
X006436D01*
X006096Y030403D02*
X006436D01*
X006115Y032854D02*
X006455D01*
X006115Y033354D02*
X006455D01*
X005532Y01587D02*
X005872D01*
X005532Y01537D02*
X005872D01*
X005522Y016404D02*
X005862D01*
X005522Y016904D02*
X005862D01*
X003612Y01536D02*
X003952D01*
X003612Y01586D02*
X003952D01*
X003612Y016404D02*
X003952D01*
X003612Y016904D02*
X003952D01*
X003612Y020222D02*
X003952D01*
X003612Y020722D02*
X003952D01*
X005522Y020222D02*
X005862D01*
X005522Y020722D02*
X005862D01*
X001984Y018137D02*
Y018477D01*
X002484Y018137D02*
Y018477D01*
X0103Y016404D02*
X01064D01*
X0103Y016904D02*
X01064D01*
X0103Y01536D02*
X01064D01*
X0103Y01586D02*
X01064D01*
X012386Y01587D02*
X012726D01*
X012386Y01537D02*
X012726D01*
X012376Y016404D02*
X012716D01*
X012376Y016904D02*
X012716D01*
X008726Y018137D02*
Y018477D01*
X009226Y018137D02*
Y018477D01*
X009207Y01986D02*
Y0202D01*
X008707Y01986D02*
Y0202D01*
X0103Y020213D02*
X01064D01*
X0103Y020713D02*
X01064D01*
X012376Y020213D02*
X012716D01*
X012376Y020713D02*
X012716D01*
X014295Y018127D02*
Y018467D01*
X013795Y018127D02*
Y018467D01*
X014315Y019863D02*
Y020203D01*
X013815Y019863D02*
Y020203D01*
X01031Y021532D02*
X01065D01*
X01031Y022032D02*
X01065D01*
X012386Y021532D02*
X012726D01*
X012386Y022032D02*
X012726D01*
X05516Y008419D02*
X0555D01*
X05516Y007919D02*
X0555D01*
X051557Y008419D02*
X051897D01*
X051557Y007919D02*
X051897D01*
X047955Y008419D02*
X048295D01*
X047955Y007919D02*
X048295D01*
X044353Y008419D02*
X044693D01*
X044353Y007919D02*
X044693D01*
X04075Y008419D02*
X04109D01*
X04075Y007919D02*
X04109D01*
X037148Y008419D02*
X037488D01*
X037148Y007919D02*
X037488D01*
X033546Y008419D02*
X033886D01*
X033546Y007919D02*
X033886D01*
X029943Y008419D02*
X030283D01*
X029943Y007919D02*
X030283D01*
X051904Y035475D02*
Y035815D01*
X051404Y035475D02*
Y035815D01*
X052398Y035485D02*
Y035825D01*
X052898Y035485D02*
Y035825D01*
X019158Y023331D02*
X019498D01*
X019158Y022831D02*
X019498D01*
X031914Y024413D02*
X032254D01*
X031914Y023913D02*
X032254D01*
X031904Y022703D02*
X032244D01*
X031904Y023203D02*
X032244D01*
X005529Y021532D02*
X005869D01*
X005529Y022032D02*
X005869D01*
X00361Y021522D02*
X00395D01*
X00361Y022022D02*
X00395D01*
X005539Y023341D02*
X005879D01*
X005539Y022841D02*
X005879D01*
X003622Y023341D02*
X003962D01*
X003622Y022841D02*
X003962D01*
X002494Y01986D02*
Y0202D01*
X001994Y01986D02*
Y0202D01*
X006096Y031402D02*
X006436D01*
X006096Y031902D02*
X006436D01*
D48*
X033642Y031087D02*
X034281D01*
X033632Y030448D02*
X034291D01*
X019533Y035116D02*
X019606D01*
X019678Y035188D01*
Y035549D01*
X019966D02*
Y035332D01*
X020038Y03526D01*
X020255D01*
Y035549D01*
X020399Y03526D02*
Y035549D01*
X020471D01*
X020544Y035477D01*
Y03526D01*
Y035477D01*
X020616Y035549D01*
X020688Y035477D01*
Y03526D01*
X020832Y035116D02*
Y035549D01*
X021049D01*
X021121Y035477D01*
Y035332D01*
X021049Y03526D01*
X020832D01*
X021265D02*
X021409D01*
X021337D01*
Y035693D01*
X021265Y035621D01*
X009862Y039252D02*
X010223D01*
X010295Y039324D01*
Y039468D01*
X010223Y039541D01*
X009862D01*
X010295Y039974D02*
Y039685D01*
X010007Y039974D01*
X009934D01*
X009862Y039901D01*
Y039757D01*
X009934Y039685D01*
X048946Y013976D02*
Y014409D01*
X049163D01*
X049235Y014336D01*
Y014192D01*
X049163Y01412D01*
X048946D01*
X04909D02*
X049235Y013976D01*
X049379Y014409D02*
X049668D01*
Y014336D01*
X049379Y014048D01*
Y013976D01*
X050028D02*
Y014409D01*
X049812Y014192D01*
X050101D01*
X048946Y016726D02*
Y017159D01*
X049163D01*
X049235Y017086D01*
Y016942D01*
X049163Y01687D01*
X048946D01*
X04909D02*
X049235Y016726D01*
X049379Y017159D02*
X049668D01*
Y017086D01*
X049379Y016798D01*
Y016726D01*
X049812Y017086D02*
X049884Y017159D01*
X050028D01*
X050101Y017086D01*
Y017014D01*
X050028Y016942D01*
X049956D01*
X050028D01*
X050101Y01687D01*
Y016798D01*
X050028Y016726D01*
X049884D01*
X049812Y016798D01*
X048946Y019489D02*
Y019922D01*
X049162D01*
X049234Y01985D01*
Y019706D01*
X049162Y019634D01*
X048946D01*
X04909D02*
X049234Y019489D01*
X049379Y019922D02*
X049667D01*
Y01985D01*
X049379Y019562D01*
Y019489D01*
X0501D02*
X049812D01*
X0501Y019778D01*
Y01985D01*
X050028Y019922D01*
X049884D01*
X049812Y01985D01*
X048933Y022266D02*
Y022699D01*
X04915D01*
X049222Y022626D01*
Y022482D01*
X04915Y02241D01*
X048933D01*
X049078D02*
X049222Y022266D01*
X049366Y022699D02*
X049655D01*
Y022626D01*
X049366Y022338D01*
Y022266D01*
X049799D02*
X049944D01*
X049871D01*
Y022699D01*
X049799Y022626D01*
X047426Y014411D02*
Y013978D01*
X047643D01*
X047715Y01405D01*
Y014339D01*
X047643Y014411D01*
X047426D01*
X047859Y013978D02*
X048004D01*
X047932D01*
Y014411D01*
X047859Y014339D01*
X048509Y014411D02*
X048364Y014339D01*
X04822Y014194D01*
Y01405D01*
X048292Y013978D01*
X048437D01*
X048509Y01405D01*
Y014122D01*
X048437Y014194D01*
X04822D01*
X047423Y017149D02*
Y016716D01*
X04764D01*
X047712Y016788D01*
Y017076D01*
X04764Y017149D01*
X047423D01*
X047856Y016716D02*
X048001D01*
X047928D01*
Y017149D01*
X047856Y017076D01*
X048506Y017149D02*
X048217D01*
Y016932D01*
X048361Y017004D01*
X048434D01*
X048506Y016932D01*
Y016788D01*
X048434Y016716D01*
X048289D01*
X048217Y016788D01*
X047359Y019921D02*
Y019488D01*
X047575D01*
X047647Y01956D01*
Y019849D01*
X047575Y019921D01*
X047359D01*
X047792Y019488D02*
X047936D01*
X047864D01*
Y019921D01*
X047792Y019849D01*
X048369Y019488D02*
Y019921D01*
X048152Y019704D01*
X048441D01*
X047363Y022679D02*
Y022246D01*
X04758D01*
X047652Y022318D01*
Y022606D01*
X04758Y022679D01*
X047363D01*
X047796Y022246D02*
X047941D01*
X047868D01*
Y022679D01*
X047796Y022606D01*
X048157D02*
X048229Y022679D01*
X048374D01*
X048446Y022606D01*
Y022534D01*
X048374Y022462D01*
X048301D01*
X048374D01*
X048446Y02239D01*
Y022318D01*
X048374Y022246D01*
X048229D01*
X048157Y022318D01*
X028852Y006844D02*
Y007132D01*
X028779Y007205D01*
X028635D01*
X028563Y007132D01*
Y006844D01*
X028635Y006772D01*
X028779D01*
X028707Y006916D02*
X028852Y006772D01*
X028779D02*
X028852Y006844D01*
X028996Y007132D02*
X029068Y007205D01*
X029212D01*
X029285Y007132D01*
Y00706D01*
X029212Y006988D01*
X029285Y006916D01*
Y006844D01*
X029212Y006772D01*
X029068D01*
X028996Y006844D01*
Y006916D01*
X029068Y006988D01*
X028996Y00706D01*
Y007132D01*
X029068Y006988D02*
X029212D01*
X032385Y006824D02*
Y007113D01*
X032313Y007185D01*
X032169D01*
X032096Y007113D01*
Y006824D01*
X032169Y006752D01*
X032313D01*
X032241Y006896D02*
X032385Y006752D01*
X032313D02*
X032385Y006824D01*
X032529Y007185D02*
X032818D01*
Y007113D01*
X032529Y006824D01*
Y006752D01*
X036037Y006844D02*
Y007132D01*
X035965Y007205D01*
X03582D01*
X035748Y007132D01*
Y006844D01*
X03582Y006772D01*
X035965D01*
X035892Y006916D02*
X036037Y006772D01*
X035965D02*
X036037Y006844D01*
X03647Y007205D02*
X036325Y007132D01*
X036181Y006988D01*
Y006844D01*
X036253Y006772D01*
X036397D01*
X03647Y006844D01*
Y006916D01*
X036397Y006988D01*
X036181D01*
X039678Y006795D02*
Y007083D01*
X039606Y007155D01*
X039462D01*
X03939Y007083D01*
Y006795D01*
X039462Y006722D01*
X039606D01*
X039534Y006867D02*
X039678Y006722D01*
X039606D02*
X039678Y006795D01*
X039823Y007083D02*
X039895Y007155D01*
X040039D01*
X040111Y007083D01*
Y007011D01*
X040039Y006939D01*
X039967D01*
X040039D01*
X040111Y006867D01*
Y006795D01*
X040039Y006722D01*
X039895D01*
X039823Y006795D01*
X043192Y006844D02*
Y007132D01*
X04312Y007205D01*
X042976D01*
X042904Y007132D01*
Y006844D01*
X042976Y006772D01*
X04312D01*
X043048Y006916D02*
X043192Y006772D01*
X04312D02*
X043192Y006844D01*
X043625Y007205D02*
X043336D01*
Y006988D01*
X043481Y00706D01*
X043553D01*
X043625Y006988D01*
Y006844D01*
X043553Y006772D01*
X043409D01*
X043336Y006844D01*
X046785Y006824D02*
Y007113D01*
X046713Y007185D01*
X046568D01*
X046496Y007113D01*
Y006824D01*
X046568Y006752D01*
X046713D01*
X04664Y006896D02*
X046785Y006752D01*
X046713D02*
X046785Y006824D01*
X047218Y006752D02*
X046929D01*
X047218Y007041D01*
Y007113D01*
X047145Y007185D01*
X047001D01*
X046929Y007113D01*
X050466Y006804D02*
Y007093D01*
X050394Y007165D01*
X050249D01*
X050177Y007093D01*
Y006804D01*
X050249Y006732D01*
X050394D01*
X050321Y006877D02*
X050466Y006732D01*
X050394D02*
X050466Y006804D01*
X050827Y006732D02*
Y007165D01*
X05061Y006949D01*
X050899D01*
X054206Y006824D02*
Y007113D01*
X054134Y007185D01*
X053989D01*
X053917Y007113D01*
Y006824D01*
X053989Y006752D01*
X054134D01*
X054062Y006896D02*
X054206Y006752D01*
X054134D02*
X054206Y006824D01*
X05435Y006752D02*
X054495D01*
X054422D01*
Y007185D01*
X05435Y007113D01*
X004193Y03314D02*
X004403D01*
X004298Y033245D02*
Y033035D01*
X004718Y033297D02*
X004508D01*
Y03314D01*
X004613Y033192D01*
X004665D01*
X004718Y03314D01*
Y033035D01*
X004665Y032982D01*
X00456D01*
X004508Y033035D01*
X004823Y033297D02*
Y033087D01*
X004928Y032982D01*
X005033Y033087D01*
Y033297D01*
X004222Y032126D02*
X004432D01*
X004327Y032231D02*
Y032021D01*
X004537Y032231D02*
X00459Y032283D01*
X004695D01*
X004747Y032231D01*
Y032178D01*
X004695Y032126D01*
X004642D01*
X004695D01*
X004747Y032074D01*
Y032021D01*
X004695Y031969D01*
X00459D01*
X004537Y032021D01*
X004852Y032283D02*
Y032074D01*
X004957Y031969D01*
X005062Y032074D01*
Y032283D01*
X004403Y03125D02*
X00435Y031302D01*
X004245D01*
X004193Y03125D01*
Y03104D01*
X004245Y030988D01*
X00435D01*
X004403Y03104D01*
Y031145D01*
X004298D01*
X004508Y030988D02*
Y031302D01*
X004718Y030988D01*
Y031302D01*
X004823D02*
Y030988D01*
X00498D01*
X005033Y03104D01*
Y03125D01*
X00498Y031302D01*
X004823D01*
X004193Y030148D02*
X004403D01*
X004718Y030305D02*
X004508D01*
Y030148D01*
X004613Y0302D01*
X004665D01*
X004718Y030148D01*
Y030043D01*
X004665Y02999D01*
X00456D01*
X004508Y030043D01*
X004823Y030305D02*
Y030095D01*
X004928Y02999D01*
X005033Y030095D01*
Y030305D01*
X019594Y036742D02*
X019804D01*
X019699Y036847D02*
Y036637D01*
X020119Y036899D02*
X019909D01*
Y036742D01*
X020014Y036795D01*
X020066D01*
X020119Y036742D01*
Y036637D01*
X020066Y036585D01*
X019961D01*
X019909Y036637D01*
X020224Y036899D02*
Y03669D01*
X020329Y036585D01*
X020434Y03669D01*
Y036899D01*
X023804Y036847D02*
X023751Y036899D01*
X023646D01*
X023594Y036847D01*
Y036637D01*
X023646Y036585D01*
X023751D01*
X023804Y036637D01*
Y036742D01*
X023699D01*
X023909Y036585D02*
Y036899D01*
X024119Y036585D01*
Y036899D01*
X024224D02*
Y036585D01*
X024381D01*
X024434Y036637D01*
Y036847D01*
X024381Y036899D01*
X024224D01*
X021751Y036585D02*
Y036899D01*
X021909D01*
X021961Y036847D01*
Y036742D01*
X021909Y03669D01*
X021751D01*
X021856D02*
X021961Y036585D01*
X022066Y036899D02*
X022276Y036585D01*
Y036899D02*
X022066Y036585D01*
X022751Y036899D02*
X022961D01*
X022856D01*
Y036585D01*
X023066Y036899D02*
X023276Y036585D01*
Y036899D02*
X023066Y036585D01*
X018482Y039439D02*
Y039754D01*
X018639D01*
X018692Y039701D01*
Y039596D01*
X018639Y039544D01*
X018482D01*
X018587D02*
X018692Y039439D01*
X019007Y039701D02*
X018954Y039754D01*
X018849D01*
X018797Y039701D01*
Y039649D01*
X018849Y039596D01*
X018954D01*
X019007Y039544D01*
Y039491D01*
X018954Y039439D01*
X018849D01*
X018797Y039491D01*
X019111Y039754D02*
X019321D01*
X019216D01*
Y039439D01*
X054485Y008839D02*
Y009153D01*
X054643D01*
X054695Y009101D01*
Y008996D01*
X054643Y008944D01*
X054485D01*
X0548Y009153D02*
Y008891D01*
X054853Y008839D01*
X054957D01*
X05501Y008891D01*
Y009153D01*
X055115Y008839D02*
Y009153D01*
X05522Y009048D01*
X055325Y009153D01*
Y008839D01*
X05543D02*
Y009153D01*
X055587D01*
X05564Y009101D01*
Y008996D01*
X055587Y008944D01*
X05543D01*
X056059Y008839D02*
X056164D01*
X056112D01*
Y009153D01*
X056059Y009101D01*
X050725Y009153D02*
Y008944D01*
X05083Y008839D01*
X050935Y008944D01*
Y009153D01*
X05104Y008839D02*
Y009048D01*
X051145Y009153D01*
X05125Y009048D01*
Y008839D01*
Y008996D01*
X05104D01*
X051355Y009153D02*
Y008839D01*
X051565D01*
X05167Y009153D02*
Y008944D01*
X051775Y008839D01*
X05188Y008944D01*
Y009153D01*
X052195D02*
X051985D01*
Y008839D01*
X052195D01*
X051985Y008996D02*
X05209D01*
X052615Y008839D02*
X05272D01*
X052667D01*
Y009153D01*
X052615Y009101D01*
X047228Y008839D02*
Y009153D01*
X047385D01*
X047438Y009101D01*
Y008996D01*
X047385Y008944D01*
X047228D01*
X047543Y009153D02*
Y008891D01*
X047595Y008839D01*
X0477D01*
X047753Y008891D01*
Y009153D01*
X047858Y008839D02*
Y009153D01*
X047963Y009048D01*
X048068Y009153D01*
Y008839D01*
X048173D02*
Y009153D01*
X04833D01*
X048382Y009101D01*
Y008996D01*
X04833Y008944D01*
X048173D01*
X049012Y008839D02*
X048802D01*
X049012Y009048D01*
Y009101D01*
X04896Y009153D01*
X048855D01*
X048802Y009101D01*
X043468Y009153D02*
Y008944D01*
X043573Y008839D01*
X043678Y008944D01*
Y009153D01*
X043783Y008839D02*
Y009048D01*
X043888Y009153D01*
X043993Y009048D01*
Y008839D01*
Y008996D01*
X043783D01*
X044098Y009153D02*
Y008839D01*
X044308D01*
X044413Y009153D02*
Y008944D01*
X044518Y008839D01*
X044623Y008944D01*
Y009153D01*
X044938D02*
X044728D01*
Y008839D01*
X044938D01*
X044728Y008996D02*
X044833D01*
X045567Y008839D02*
X045357D01*
X045567Y009048D01*
Y009101D01*
X045515Y009153D01*
X04541D01*
X045357Y009101D01*
X040023Y008839D02*
Y009153D01*
X040181D01*
X040233Y009101D01*
Y008996D01*
X040181Y008944D01*
X040023D01*
X040338Y009153D02*
Y008891D01*
X040391Y008839D01*
X040496D01*
X040548Y008891D01*
Y009153D01*
X040653Y008839D02*
Y009153D01*
X040758Y009048D01*
X040863Y009153D01*
Y008839D01*
X040968D02*
Y009153D01*
X041125D01*
X041178Y009101D01*
Y008996D01*
X041125Y008944D01*
X040968D01*
X041598Y009101D02*
X04165Y009153D01*
X041755D01*
X041808Y009101D01*
Y009048D01*
X041755Y008996D01*
X041703D01*
X041755D01*
X041808Y008944D01*
Y008891D01*
X041755Y008839D01*
X04165D01*
X041598Y008891D01*
X036264Y009153D02*
Y008944D01*
X036368Y008839D01*
X036473Y008944D01*
Y009153D01*
X036578Y008839D02*
Y009048D01*
X036683Y009153D01*
X036788Y009048D01*
Y008839D01*
Y008996D01*
X036578D01*
X036893Y009153D02*
Y008839D01*
X037103D01*
X037208Y009153D02*
Y008944D01*
X037313Y008839D01*
X037418Y008944D01*
Y009153D01*
X037733D02*
X037523D01*
Y008839D01*
X037733D01*
X037523Y008996D02*
X037628D01*
X038153Y009101D02*
X038205Y009153D01*
X03831D01*
X038363Y009101D01*
Y009048D01*
X03831Y008996D01*
X038258D01*
X03831D01*
X038363Y008944D01*
Y008891D01*
X03831Y008839D01*
X038205D01*
X038153Y008891D01*
X032819Y008839D02*
Y009153D01*
X032976D01*
X033029Y009101D01*
Y008996D01*
X032976Y008944D01*
X032819D01*
X033133Y009153D02*
Y008891D01*
X033186Y008839D01*
X033291D01*
X033343Y008891D01*
Y009153D01*
X033448Y008839D02*
Y009153D01*
X033553Y009048D01*
X033658Y009153D01*
Y008839D01*
X033763D02*
Y009153D01*
X033921D01*
X033973Y009101D01*
Y008996D01*
X033921Y008944D01*
X033763D01*
X03455Y008839D02*
Y009153D01*
X034393Y008996D01*
X034603D01*
X029059Y009153D02*
Y008944D01*
X029164Y008839D01*
X029269Y008944D01*
Y009153D01*
X029374Y008839D02*
Y009048D01*
X029479Y009153D01*
X029584Y009048D01*
Y008839D01*
Y008996D01*
X029374D01*
X029689Y009153D02*
Y008839D01*
X029898D01*
X030003Y009153D02*
Y008944D01*
X030108Y008839D01*
X030213Y008944D01*
Y009153D01*
X030528D02*
X030318D01*
Y008839D01*
X030528D01*
X030318Y008996D02*
X030423D01*
X031105Y008839D02*
Y009153D01*
X030948Y008996D01*
X031158D01*
D49*
X009503Y010844D02*
Y014844D01*
Y010844D02*
X011003D01*
X012003D01*
X012503D01*
X013503D01*
Y014844D01*
X010503D02*
X013503D01*
X009503D02*
X010503D01*
Y010844D02*
X012503D01*
Y014844D01*
X010503D02*
X012503D01*
X010503Y010844D02*
Y014844D01*
X012003Y010844D02*
Y011094D01*
X011003D02*
X012003D01*
X011003Y010844D02*
Y011094D01*
X010503Y010844D02*
X012503D01*
Y014844D01*
X010503D02*
X012503D01*
X010503Y010844D02*
Y014844D01*
X012003Y010844D02*
Y011094D01*
X011003D02*
X012003D01*
X011003Y010844D02*
Y011094D01*
X002764Y010844D02*
Y014844D01*
Y010844D02*
X004264D01*
X005264D01*
X005764D01*
X006764D01*
Y014844D01*
X003764D02*
X006764D01*
X002764D02*
X003764D01*
Y010844D02*
X005764D01*
Y014844D01*
X003764D02*
X005764D01*
X003764Y010844D02*
Y014844D01*
X005264Y010844D02*
Y011094D01*
X004264D02*
X005264D01*
X004264Y010844D02*
Y011094D01*
X003764Y010844D02*
X005764D01*
Y014844D01*
X003764D02*
X005764D01*
X003764Y010844D02*
Y014844D01*
X005264Y010844D02*
Y011094D01*
X004264D02*
X005264D01*
X004264Y010844D02*
Y011094D01*
X02298Y010844D02*
Y014844D01*
Y010844D02*
X02448D01*
X02548D01*
X02598D01*
X02698D01*
Y014844D01*
X02398D02*
X02698D01*
X02298D02*
X02398D01*
Y010844D02*
X02598D01*
Y014844D01*
X02398D02*
X02598D01*
X02398Y010844D02*
Y014844D01*
X02548Y010844D02*
Y011094D01*
X02448D02*
X02548D01*
X02448Y010844D02*
Y011094D01*
X02398Y010844D02*
X02598D01*
Y014844D01*
X02398D02*
X02598D01*
X02398Y010844D02*
Y014844D01*
X02548Y010844D02*
Y011094D01*
X02448D02*
X02548D01*
X02448Y010844D02*
Y011094D01*
X016241Y010844D02*
Y014844D01*
Y010844D02*
X017741D01*
X018741D01*
X019241D01*
X020241D01*
Y014844D01*
X017241D02*
X020241D01*
X016241D02*
X017241D01*
Y010844D02*
X019241D01*
Y014844D01*
X017241D02*
X019241D01*
X017241Y010844D02*
Y014844D01*
X018741Y010844D02*
Y011094D01*
X017741D02*
X018741D01*
X017741Y010844D02*
Y011094D01*
X017241Y010844D02*
X019241D01*
Y014844D01*
X017241D02*
X019241D01*
X017241Y010844D02*
Y014844D01*
X018741Y010844D02*
Y011094D01*
X017741D02*
X018741D01*
X017741Y010844D02*
Y011094D01*
X003285Y033793D02*
Y034126D01*
X003618Y033793D01*
X003701D01*
X003785Y033876D01*
Y034043D01*
X003701Y034126D01*
X002285Y033926D02*
Y033759D01*
Y033843D01*
X002785D01*
X002701Y033926D01*
X002785Y029526D02*
Y029193D01*
X002701D01*
X002368Y029526D01*
X002285D01*
X003701D02*
X003785Y029443D01*
Y029276D01*
X003701Y029193D01*
X003618D01*
X003535Y029276D01*
X003451Y029193D01*
X003368D01*
X003285Y029276D01*
Y029443D01*
X003368Y029526D01*
X003451D01*
X003535Y029443D01*
X003618Y029526D01*
X003701D01*
X003535Y029443D02*
Y029276D01*
D50*
X012215Y037006D02*
Y036753D01*
X012265Y036703D01*
X012366D01*
X012417Y036753D01*
Y037006D01*
X012518D02*
X01272D01*
Y036955D01*
X012518Y036753D01*
Y036703D01*
X004616Y027874D02*
Y028177D01*
X004768D01*
X004818Y028126D01*
Y028026D01*
X004768Y027975D01*
X004616D01*
X004919Y027874D02*
X00502D01*
X00497D01*
Y028177D01*
X004919Y028126D01*
X005172Y028177D02*
X005374D01*
Y028126D01*
X005172Y027925D01*
Y027874D01*
X006142Y032557D02*
Y032254D01*
X006293D01*
X006344Y032304D01*
Y032506D01*
X006293Y032557D01*
X006142D01*
X006445Y032254D02*
X006546D01*
X006495D01*
Y032557D01*
X006445Y032506D01*
X006899Y032254D02*
X006697D01*
X006899Y032456D01*
Y032506D01*
X006849Y032557D01*
X006748D01*
X006697Y032506D01*
X005543Y034012D02*
Y033709D01*
X005695D01*
X005745Y033759D01*
Y033961D01*
X005695Y034012D01*
X005543D01*
X005846Y033709D02*
X005947D01*
X005897D01*
Y034012D01*
X005846Y033961D01*
X006099Y033709D02*
X0062D01*
X006149D01*
Y034012D01*
X006099Y033961D01*
X00552Y031056D02*
Y030753D01*
X005672D01*
X005722Y030804D01*
Y031006D01*
X005672Y031056D01*
X00552D01*
X005823Y030753D02*
X005924D01*
X005874D01*
Y031056D01*
X005823Y031006D01*
X006076D02*
X006126Y031056D01*
X006227D01*
X006278Y031006D01*
Y030804D01*
X006227Y030753D01*
X006126D01*
X006076Y030804D01*
Y031006D01*
X0363Y03227D02*
Y03222D01*
X036401Y032119D01*
X036502Y03222D01*
Y03227D01*
X036401Y032119D02*
Y031967D01*
X036603D02*
X036704D01*
X036653D01*
Y03227D01*
X036603Y03222D01*
X01646Y010609D02*
Y010407D01*
X016561Y010306D01*
X016662Y010407D01*
Y010609D01*
X016763Y010306D02*
Y010609D01*
X016914D01*
X016965Y010558D01*
Y010457D01*
X016914Y010407D01*
X016763D01*
X016864D02*
X016965Y010306D01*
X017217D02*
Y010609D01*
X017066Y010457D01*
X017268D01*
X023189Y010629D02*
Y010427D01*
X02329Y010326D01*
X023391Y010427D01*
Y010629D01*
X023492Y010326D02*
Y010629D01*
X023644D01*
X023694Y010578D01*
Y010477D01*
X023644Y010427D01*
X023492D01*
X023593D02*
X023694Y010326D01*
X023795Y010578D02*
X023846Y010629D01*
X023947D01*
X023997Y010578D01*
Y010528D01*
X023947Y010477D01*
X023896D01*
X023947D01*
X023997Y010427D01*
Y010376D01*
X023947Y010326D01*
X023846D01*
X023795Y010376D01*
X002983Y010479D02*
Y010277D01*
X003084Y010176D01*
X003185Y010277D01*
Y010479D01*
X003286Y010176D02*
Y010479D01*
X003437D01*
X003488Y010428D01*
Y010327D01*
X003437Y010277D01*
X003286D01*
X003387D02*
X003488Y010176D01*
X003791D02*
X003589D01*
X003791Y010378D01*
Y010428D01*
X00374Y010479D01*
X003639D01*
X003589Y010428D01*
X009718Y010479D02*
Y010277D01*
X009819Y010176D01*
X00992Y010277D01*
Y010479D01*
X010021Y010176D02*
Y010479D01*
X010173D01*
X010223Y010428D01*
Y010327D01*
X010173Y010277D01*
X010021D01*
X010122D02*
X010223Y010176D01*
X010324D02*
X010425D01*
X010375D01*
Y010479D01*
X010324Y010428D01*
X020936Y014341D02*
X020684D01*
X020633Y01429D01*
Y014189D01*
X020684Y014139D01*
X020936D01*
X020633Y014038D02*
Y013937D01*
Y013987D01*
X020936D01*
X020886Y014038D01*
X020633Y013583D02*
Y013785D01*
X020835Y013583D01*
X020886D01*
X020936Y013634D01*
Y013735D01*
X020886Y013785D01*
X034849Y028719D02*
Y028467D01*
X034899Y028416D01*
X035D01*
X035051Y028467D01*
Y028719D01*
X035152Y028416D02*
X035253D01*
X035202D01*
Y028719D01*
X035152Y028669D01*
X035404Y028416D02*
X035505D01*
X035455D01*
Y028719D01*
X035404Y028669D01*
X02203Y013415D02*
X022282D01*
X022333Y013466D01*
Y013567D01*
X022282Y013617D01*
X02203D01*
X022333Y013718D02*
Y013819D01*
Y013769D01*
X02203D01*
X02208Y013718D01*
Y013971D02*
X02203Y014021D01*
Y014122D01*
X02208Y014173D01*
X022282D01*
X022333Y014122D01*
Y014021D01*
X022282Y013971D01*
X02208D01*
X015907Y007591D02*
Y007338D01*
X015958Y007288D01*
X016059D01*
X016109Y007338D01*
Y007591D01*
X01621Y007338D02*
X016261Y007288D01*
X016362D01*
X016412Y007338D01*
Y00754D01*
X016362Y007591D01*
X016261D01*
X01621Y00754D01*
Y00749D01*
X016261Y007439D01*
X016412D01*
X022642Y00759D02*
Y007337D01*
X022692Y007287D01*
X022793D01*
X022844Y007337D01*
Y00759D01*
X022945Y007539D02*
X022995Y00759D01*
X023096D01*
X023147Y007539D01*
Y007489D01*
X023096Y007438D01*
X023147Y007388D01*
Y007337D01*
X023096Y007287D01*
X022995D01*
X022945Y007337D01*
Y007388D01*
X022995Y007438D01*
X022945Y007489D01*
Y007539D01*
X022995Y007438D02*
X023096D01*
X007665Y014341D02*
X007413D01*
X007362Y01429D01*
Y014189D01*
X007413Y014139D01*
X007665D01*
Y013836D02*
X007615Y013937D01*
X007514Y014038D01*
X007413D01*
X007362Y013987D01*
Y013886D01*
X007413Y013836D01*
X007463D01*
X007514Y013886D01*
Y014038D01*
X014197Y014528D02*
X013945D01*
X013894Y014477D01*
Y014376D01*
X013945Y014326D01*
X014197D01*
Y014023D02*
Y014225D01*
X014046D01*
X014096Y014124D01*
Y014073D01*
X014046Y014023D01*
X013945D01*
X013894Y014073D01*
Y014174D01*
X013945Y014225D01*
X002431Y007583D02*
Y00733D01*
X002482Y00728D01*
X002583D01*
X002633Y00733D01*
Y007583D01*
X002886Y00728D02*
Y007583D01*
X002734Y007431D01*
X002936D01*
X009173Y007587D02*
Y007335D01*
X009223Y007284D01*
X009324D01*
X009375Y007335D01*
Y007587D01*
X009476Y007537D02*
X009526Y007587D01*
X009627D01*
X009678Y007537D01*
Y007486D01*
X009627Y007436D01*
X009577D01*
X009627D01*
X009678Y007385D01*
Y007335D01*
X009627Y007284D01*
X009526D01*
X009476Y007335D01*
X004443Y037373D02*
Y03712D01*
X004494Y03707D01*
X004595D01*
X004645Y03712D01*
Y037373D01*
X004746Y03707D02*
X004847D01*
X004797D01*
Y037373D01*
X004746Y037322D01*
X046817Y037216D02*
Y037519D01*
X046969D01*
X047019Y037469D01*
Y037368D01*
X046969Y037317D01*
X046817D01*
X046918D02*
X047019Y037216D01*
X047272D02*
X047171D01*
X04712Y037267D01*
Y037368D01*
X047171Y037418D01*
X047272D01*
X047322Y037368D01*
Y037317D01*
X04712D01*
X047423Y037216D02*
X047575D01*
X047625Y037267D01*
X047575Y037317D01*
X047474D01*
X047423Y037368D01*
X047474Y037418D01*
X047625D01*
X047878Y037216D02*
X047777D01*
X047726Y037267D01*
Y037368D01*
X047777Y037418D01*
X047878D01*
X047928Y037368D01*
Y037317D01*
X047726D01*
X04808Y037469D02*
Y037418D01*
X048029D01*
X04813D01*
X04808D01*
Y037267D01*
X04813Y037216D01*
X023233Y025005D02*
Y025308D01*
X023384D01*
X023435Y025257D01*
Y025156D01*
X023384Y025106D01*
X023233D01*
X023334D02*
X023435Y025005D01*
X023536Y025308D02*
X023738D01*
Y025257D01*
X023536Y025055D01*
Y025005D01*
X023839Y025257D02*
X023889Y025308D01*
X02399D01*
X024041Y025257D01*
Y025055D01*
X02399Y025005D01*
X023889D01*
X023839Y025055D01*
Y025257D01*
X025314Y025008D02*
Y025311D01*
X025466D01*
X025516Y02526D01*
Y025159D01*
X025466Y025109D01*
X025314D01*
X025415D02*
X025516Y025008D01*
X025819Y025311D02*
X025718Y02526D01*
X025617Y025159D01*
Y025058D01*
X025668Y025008D01*
X025769D01*
X025819Y025058D01*
Y025109D01*
X025769Y025159D01*
X025617D01*
X02592Y025058D02*
X025971Y025008D01*
X026072D01*
X026122Y025058D01*
Y02526D01*
X026072Y025311D01*
X025971D01*
X02592Y02526D01*
Y02521D01*
X025971Y025159D01*
X026122D01*
X015364Y026789D02*
Y027092D01*
X015515D01*
X015566Y027042D01*
Y026941D01*
X015515Y02689D01*
X015364D01*
X015465D02*
X015566Y026789D01*
X015869Y027092D02*
X015768Y027042D01*
X015667Y026941D01*
Y02684D01*
X015717Y026789D01*
X015818D01*
X015869Y02684D01*
Y02689D01*
X015818Y026941D01*
X015667D01*
X015969Y027042D02*
X01602Y027092D01*
X016121D01*
X016171Y027042D01*
Y026991D01*
X016121Y026941D01*
X016171Y02689D01*
Y02684D01*
X016121Y026789D01*
X01602D01*
X015969Y02684D01*
Y02689D01*
X01602Y026941D01*
X015969Y026991D01*
Y027042D01*
X01602Y026941D02*
X016121D01*
X01536Y024559D02*
Y024862D01*
X015511D01*
X015562Y024811D01*
Y02471D01*
X015511Y02466D01*
X01536D01*
X015461D02*
X015562Y024559D01*
X015864Y024862D02*
X015763Y024811D01*
X015663Y02471D01*
Y024609D01*
X015713Y024559D01*
X015814D01*
X015864Y024609D01*
Y02466D01*
X015814Y02471D01*
X015663D01*
X015965Y024862D02*
X016167D01*
Y024811D01*
X015965Y024609D01*
Y024559D01*
X023234Y026323D02*
Y026626D01*
X023386D01*
X023436Y026576D01*
Y026475D01*
X023386Y026424D01*
X023234D01*
X023335D02*
X023436Y026323D01*
X023739Y026626D02*
X023638Y026576D01*
X023537Y026475D01*
Y026374D01*
X023588Y026323D01*
X023689D01*
X023739Y026374D01*
Y026424D01*
X023689Y026475D01*
X023537D01*
X024042Y026626D02*
X023941Y026576D01*
X02384Y026475D01*
Y026374D01*
X023891Y026323D01*
X023992D01*
X024042Y026374D01*
Y026424D01*
X023992Y026475D01*
X02384D01*
X020544Y026783D02*
Y027086D01*
X020696D01*
X020746Y027036D01*
Y026935D01*
X020696Y026884D01*
X020544D01*
X020645D02*
X020746Y026783D01*
X021049Y027086D02*
X020948Y027036D01*
X020847Y026935D01*
Y026834D01*
X020898Y026783D01*
X020999D01*
X021049Y026834D01*
Y026884D01*
X020999Y026935D01*
X020847D01*
X021352Y027086D02*
X02115D01*
Y026935D01*
X021251Y026985D01*
X021302D01*
X021352Y026935D01*
Y026834D01*
X021302Y026783D01*
X021201D01*
X02115Y026834D01*
X025317Y026301D02*
Y026604D01*
X025469D01*
X025519Y026553D01*
Y026452D01*
X025469Y026402D01*
X025317D01*
X025418D02*
X025519Y026301D01*
X025822Y026604D02*
X025721Y026553D01*
X02562Y026452D01*
Y026351D01*
X025671Y026301D01*
X025772D01*
X025822Y026351D01*
Y026402D01*
X025772Y026452D01*
X02562D01*
X026075Y026301D02*
Y026604D01*
X025923Y026452D01*
X026125D01*
X020543Y024559D02*
Y024862D01*
X020695D01*
X020745Y024811D01*
Y02471D01*
X020695Y02466D01*
X020543D01*
X020644D02*
X020745Y024559D01*
X021048Y024862D02*
X020947Y024811D01*
X020846Y02471D01*
Y024609D01*
X020897Y024559D01*
X020998D01*
X021048Y024609D01*
Y02466D01*
X020998Y02471D01*
X020846D01*
X021149Y024811D02*
X0212Y024862D01*
X021301D01*
X021351Y024811D01*
Y024761D01*
X021301Y02471D01*
X02125D01*
X021301D01*
X021351Y02466D01*
Y024609D01*
X021301Y024559D01*
X0212D01*
X021149Y024609D01*
X028071Y018703D02*
X028374D01*
Y018552D01*
X028323Y018501D01*
X028222D01*
X028172Y018552D01*
Y018703D01*
Y018602D02*
X028071Y018501D01*
X028374Y018198D02*
X028323Y018299D01*
X028222Y0184D01*
X028121D01*
X028071Y01835D01*
Y018249D01*
X028121Y018198D01*
X028172D01*
X028222Y018249D01*
Y0184D01*
X028071Y017895D02*
Y018097D01*
X028273Y017895D01*
X028323D01*
X028374Y017946D01*
Y018047D01*
X028323Y018097D01*
X028169Y020296D02*
X028472D01*
Y020144D01*
X028422Y020094D01*
X028321D01*
X02827Y020144D01*
Y020296D01*
Y020195D02*
X028169Y020094D01*
X028472Y019791D02*
X028422Y019892D01*
X028321Y019993D01*
X02822D01*
X028169Y019942D01*
Y019841D01*
X02822Y019791D01*
X02827D01*
X028321Y019841D01*
Y019993D01*
X028169Y01969D02*
Y019589D01*
Y019639D01*
X028472D01*
X028422Y01969D01*
X023411Y020974D02*
Y021277D01*
X023562D01*
X023613Y021227D01*
Y021126D01*
X023562Y021075D01*
X023411D01*
X023512D02*
X023613Y020974D01*
X023916Y021277D02*
X023815Y021227D01*
X023714Y021126D01*
Y021025D01*
X023764Y020974D01*
X023865D01*
X023916Y021025D01*
Y021075D01*
X023865Y021126D01*
X023714D01*
X024017Y021227D02*
X024067Y021277D01*
X024168D01*
X024219Y021227D01*
Y021025D01*
X024168Y020974D01*
X024067D01*
X024017Y021025D01*
Y021227D01*
X025325Y020945D02*
Y021248D01*
X025476D01*
X025527Y021197D01*
Y021096D01*
X025476Y021046D01*
X025325D01*
X025426D02*
X025527Y020945D01*
X02583Y021248D02*
X025628D01*
Y021096D01*
X025729Y021147D01*
X025779D01*
X02583Y021096D01*
Y020995D01*
X025779Y020945D01*
X025678D01*
X025628Y020995D01*
X025931D02*
X025981Y020945D01*
X026082D01*
X026133Y020995D01*
Y021197D01*
X026082Y021248D01*
X025981D01*
X025931Y021197D01*
Y021147D01*
X025981Y021096D01*
X026133D01*
X021339Y018032D02*
X021642D01*
Y01788D01*
X021591Y01783D01*
X02149D01*
X02144Y01788D01*
Y018032D01*
Y017931D02*
X021339Y01783D01*
X021642Y017527D02*
Y017729D01*
X02149D01*
X021541Y017628D01*
Y017577D01*
X02149Y017527D01*
X021389D01*
X021339Y017577D01*
Y017678D01*
X021389Y017729D01*
X021591Y017426D02*
X021642Y017375D01*
Y017274D01*
X021591Y017224D01*
X021541D01*
X02149Y017274D01*
X02144Y017224D01*
X021389D01*
X021339Y017274D01*
Y017375D01*
X021389Y017426D01*
X02144D01*
X02149Y017375D01*
X021541Y017426D01*
X021591D01*
X02149Y017375D02*
Y017274D01*
X021348Y01997D02*
X021651D01*
Y019819D01*
X021601Y019768D01*
X0215D01*
X021449Y019819D01*
Y01997D01*
Y019869D02*
X021348Y019768D01*
X021651Y019466D02*
Y019668D01*
X0215D01*
X02155Y019567D01*
Y019516D01*
X0215Y019466D01*
X021399D01*
X021348Y019516D01*
Y019617D01*
X021399Y019668D01*
X021651Y019365D02*
Y019163D01*
X021601D01*
X021399Y019365D01*
X021348D01*
X016644Y020984D02*
Y021287D01*
X016795D01*
X016846Y021237D01*
Y021136D01*
X016795Y021085D01*
X016644D01*
X016745D02*
X016846Y020984D01*
X017148Y021287D02*
X016947D01*
Y021136D01*
X017048Y021186D01*
X017098D01*
X017148Y021136D01*
Y021035D01*
X017098Y020984D01*
X016997D01*
X016947Y021035D01*
X017451Y021287D02*
X01735Y021237D01*
X017249Y021136D01*
Y021035D01*
X0173Y020984D01*
X017401D01*
X017451Y021035D01*
Y021085D01*
X017401Y021136D01*
X017249D01*
X018888Y020974D02*
Y021277D01*
X019039D01*
X01909Y021227D01*
Y021126D01*
X019039Y021075D01*
X018888D01*
X018989D02*
X01909Y020974D01*
X019393Y021277D02*
X019191D01*
Y021126D01*
X019292Y021176D01*
X019342D01*
X019393Y021126D01*
Y021025D01*
X019342Y020974D01*
X019241D01*
X019191Y021025D01*
X019696Y021277D02*
X019494D01*
Y021126D01*
X019595Y021176D01*
X019645D01*
X019696Y021126D01*
Y021025D01*
X019645Y020974D01*
X019544D01*
X019494Y021025D01*
X023232Y023694D02*
Y023997D01*
X023384D01*
X023434Y023947D01*
Y023846D01*
X023384Y023795D01*
X023232D01*
X023333D02*
X023434Y023694D01*
X023737Y023997D02*
X023535D01*
Y023846D01*
X023636Y023896D01*
X023687D01*
X023737Y023846D01*
Y023745D01*
X023687Y023694D01*
X023586D01*
X023535Y023745D01*
X02399Y023694D02*
Y023997D01*
X023838Y023846D01*
X02404D01*
X016614Y023612D02*
Y023915D01*
X016766D01*
X016816Y023865D01*
Y023764D01*
X016766Y023713D01*
X016614D01*
X016715D02*
X016816Y023612D01*
X017119Y023915D02*
X016917D01*
Y023764D01*
X017018Y023814D01*
X017069D01*
X017119Y023764D01*
Y023663D01*
X017069Y023612D01*
X016968D01*
X016917Y023663D01*
X01722Y023865D02*
X017271Y023915D01*
X017372D01*
X017422Y023865D01*
Y023814D01*
X017372Y023764D01*
X017321D01*
X017372D01*
X017422Y023713D01*
Y023663D01*
X017372Y023612D01*
X017271D01*
X01722Y023663D01*
X027165Y016496D02*
Y016799D01*
X027317D01*
X027367Y016749D01*
Y016648D01*
X027317Y016597D01*
X027165D01*
X027266D02*
X027367Y016496D01*
X02767Y016799D02*
X027468D01*
Y016648D01*
X027569Y016698D01*
X02762D01*
X02767Y016648D01*
Y016547D01*
X02762Y016496D01*
X027519D01*
X027468Y016547D01*
X027973Y016496D02*
X027771D01*
X027973Y016698D01*
Y016749D01*
X027923Y016799D01*
X027822D01*
X027771Y016749D01*
X027219Y015345D02*
Y015648D01*
X027371D01*
X027421Y015597D01*
Y015496D01*
X027371Y015446D01*
X027219D01*
X02732D02*
X027421Y015345D01*
X027724Y015648D02*
X027522D01*
Y015496D01*
X027623Y015547D01*
X027674D01*
X027724Y015496D01*
Y015395D01*
X027674Y015345D01*
X027573D01*
X027522Y015395D01*
X027825Y015345D02*
X027926D01*
X027875D01*
Y015648D01*
X027825Y015597D01*
X020418Y016447D02*
Y01675D01*
X020569D01*
X02062Y016699D01*
Y016598D01*
X020569Y016548D01*
X020418D01*
X020519D02*
X02062Y016447D01*
X020923Y01675D02*
X020721D01*
Y016598D01*
X020822Y016649D01*
X020872D01*
X020923Y016598D01*
Y016497D01*
X020872Y016447D01*
X020771D01*
X020721Y016497D01*
X021023Y016699D02*
X021074Y01675D01*
X021175D01*
X021225Y016699D01*
Y016497D01*
X021175Y016447D01*
X021074D01*
X021023Y016497D01*
Y016699D01*
X020398Y015364D02*
Y015667D01*
X02055D01*
X0206Y015617D01*
Y015516D01*
X02055Y015465D01*
X020398D01*
X020499D02*
X0206Y015364D01*
X020852D02*
Y015667D01*
X020701Y015516D01*
X020903D01*
X021004Y015415D02*
X021054Y015364D01*
X021155D01*
X021206Y015415D01*
Y015617D01*
X021155Y015667D01*
X021054D01*
X021004Y015617D01*
Y015566D01*
X021054Y015516D01*
X021206D01*
X025313Y02369D02*
Y023993D01*
X025464D01*
X025515Y023942D01*
Y023841D01*
X025464Y023791D01*
X025313D01*
X025414D02*
X025515Y02369D01*
X025767D02*
Y023993D01*
X025616Y023841D01*
X025818D01*
X025919Y023942D02*
X025969Y023993D01*
X02607D01*
X026121Y023942D01*
Y023892D01*
X02607Y023841D01*
X026121Y023791D01*
Y02374D01*
X02607Y02369D01*
X025969D01*
X025919Y02374D01*
Y023791D01*
X025969Y023841D01*
X025919Y023892D01*
Y023942D01*
X025969Y023841D02*
X02607D01*
X018902Y023661D02*
Y023964D01*
X019053D01*
X019104Y023914D01*
Y023813D01*
X019053Y023762D01*
X018902D01*
X019003D02*
X019104Y023661D01*
X019356D02*
Y023964D01*
X019205Y023813D01*
X019407D01*
X019508Y023964D02*
X01971D01*
Y023914D01*
X019508Y023712D01*
Y023661D01*
X001927Y026789D02*
Y027092D01*
X002079D01*
X002129Y027041D01*
Y026941D01*
X002079Y02689D01*
X001927D01*
X002028D02*
X002129Y026789D01*
X002382D02*
Y027092D01*
X00223Y026941D01*
X002432D01*
X002735Y027092D02*
X002634Y027041D01*
X002533Y026941D01*
Y02684D01*
X002584Y026789D01*
X002685D01*
X002735Y02684D01*
Y02689D01*
X002685Y026941D01*
X002533D01*
X052372Y032738D02*
Y033041D01*
X052524D01*
X052574Y03299D01*
Y032889D01*
X052524Y032839D01*
X052372D01*
X052473D02*
X052574Y032738D01*
X052827D02*
Y033041D01*
X052675Y032889D01*
X052877D01*
X05318Y033041D02*
X052978D01*
Y032889D01*
X053079Y03294D01*
X05313D01*
X05318Y032889D01*
Y032788D01*
X05313Y032738D01*
X053029D01*
X052978Y032788D01*
X052375Y029146D02*
Y029449D01*
X052527D01*
X052577Y029398D01*
Y029297D01*
X052527Y029247D01*
X052375D01*
X052476D02*
X052577Y029146D01*
X05283D02*
Y029449D01*
X052678Y029297D01*
X05288D01*
X053133Y029146D02*
Y029449D01*
X052981Y029297D01*
X053183D01*
X052472Y025219D02*
Y025522D01*
X052623D01*
X052674Y025471D01*
Y02537D01*
X052623Y02532D01*
X052472D01*
X052573D02*
X052674Y025219D01*
X052926D02*
Y025522D01*
X052775Y02537D01*
X052977D01*
X053078Y025471D02*
X053128Y025522D01*
X053229D01*
X05328Y025471D01*
Y025421D01*
X053229Y02537D01*
X053179D01*
X053229D01*
X05328Y02532D01*
Y025269D01*
X053229Y025219D01*
X053128D01*
X053078Y025269D01*
X052805Y033758D02*
X052502D01*
Y033909D01*
X052553Y03396D01*
X052654D01*
X052704Y033909D01*
Y033758D01*
Y033859D02*
X052805Y03396D01*
Y034212D02*
X052502D01*
X052654Y034061D01*
Y034263D01*
X052805Y034566D02*
Y034364D01*
X052603Y034566D01*
X052553D01*
X052502Y034515D01*
Y034414D01*
X052553Y034364D01*
X030433Y023986D02*
Y024289D01*
X030585D01*
X030635Y024239D01*
Y024138D01*
X030585Y024087D01*
X030433D01*
X030534D02*
X030635Y023986D01*
X030888D02*
Y024289D01*
X030736Y024138D01*
X030938D01*
X031039Y023986D02*
X03114D01*
X03109D01*
Y024289D01*
X031039Y024239D01*
X030305Y022825D02*
Y023128D01*
X030457D01*
X030507Y023077D01*
Y022976D01*
X030457Y022926D01*
X030305D01*
X030406D02*
X030507Y022825D01*
X03076D02*
Y023128D01*
X030608Y022976D01*
X03081D01*
X030911Y023077D02*
X030962Y023128D01*
X031063D01*
X031113Y023077D01*
Y022875D01*
X031063Y022825D01*
X030962D01*
X030911Y022875D01*
Y023077D01*
X001929Y024559D02*
Y024862D01*
X002081D01*
X002131Y024811D01*
Y02471D01*
X002081Y02466D01*
X001929D01*
X00203D02*
X002131Y024559D01*
X002232Y024811D02*
X002283Y024862D01*
X002384D01*
X002434Y024811D01*
Y024761D01*
X002384Y02471D01*
X002333D01*
X002384D01*
X002434Y02466D01*
Y024609D01*
X002384Y024559D01*
X002283D01*
X002232Y024609D01*
X002535D02*
X002586Y024559D01*
X002686D01*
X002737Y024609D01*
Y024811D01*
X002686Y024862D01*
X002586D01*
X002535Y024811D01*
Y024761D01*
X002586Y02471D01*
X002737D01*
X009736Y025D02*
Y025303D01*
X009887D01*
X009938Y025253D01*
Y025152D01*
X009887Y025101D01*
X009736D01*
X009837D02*
X009938Y025D01*
X010039Y025253D02*
X010089Y025303D01*
X01019D01*
X010241Y025253D01*
Y025202D01*
X01019Y025152D01*
X01014D01*
X01019D01*
X010241Y025101D01*
Y025051D01*
X01019Y025D01*
X010089D01*
X010039Y025051D01*
X010342Y025253D02*
X010392Y025303D01*
X010493D01*
X010544Y025253D01*
Y025202D01*
X010493Y025152D01*
X010544Y025101D01*
Y025051D01*
X010493Y025D01*
X010392D01*
X010342Y025051D01*
Y025101D01*
X010392Y025152D01*
X010342Y025202D01*
Y025253D01*
X010392Y025152D02*
X010493D01*
X011808Y025001D02*
Y025304D01*
X01196D01*
X01201Y025253D01*
Y025152D01*
X01196Y025102D01*
X011808D01*
X011909D02*
X01201Y025001D01*
X012111Y025253D02*
X012162Y025304D01*
X012263D01*
X012313Y025253D01*
Y025203D01*
X012263Y025152D01*
X012212D01*
X012263D01*
X012313Y025102D01*
Y025051D01*
X012263Y025001D01*
X012162D01*
X012111Y025051D01*
X012414Y025304D02*
X012616D01*
Y025253D01*
X012414Y025051D01*
Y025001D01*
X006916Y026784D02*
Y027087D01*
X007067D01*
X007118Y027036D01*
Y026936D01*
X007067Y026885D01*
X006916D01*
X007017D02*
X007118Y026784D01*
X007219Y027036D02*
X007269Y027087D01*
X00737D01*
X007421Y027036D01*
Y026986D01*
X00737Y026936D01*
X00732D01*
X00737D01*
X007421Y026885D01*
Y026835D01*
X00737Y026784D01*
X007269D01*
X007219Y026835D01*
X007724Y027087D02*
X007623Y027036D01*
X007522Y026936D01*
Y026835D01*
X007572Y026784D01*
X007673D01*
X007724Y026835D01*
Y026885D01*
X007673Y026936D01*
X007522D01*
X031559Y031441D02*
Y031744D01*
X031711D01*
X031761Y031693D01*
Y031592D01*
X031711Y031542D01*
X031559D01*
X03166D02*
X031761Y031441D01*
X031862Y031693D02*
X031913Y031744D01*
X032014D01*
X032064Y031693D01*
Y031643D01*
X032014Y031592D01*
X031963D01*
X032014D01*
X032064Y031542D01*
Y031491D01*
X032014Y031441D01*
X031913D01*
X031862Y031491D01*
X032367Y031744D02*
X032165D01*
Y031592D01*
X032266Y031643D01*
X032317D01*
X032367Y031592D01*
Y031491D01*
X032317Y031441D01*
X032216D01*
X032165Y031491D01*
X009737Y026325D02*
Y026628D01*
X009889D01*
X009939Y026578D01*
Y026477D01*
X009889Y026426D01*
X009737D01*
X009838D02*
X009939Y026325D01*
X01004Y026578D02*
X010091Y026628D01*
X010192D01*
X010242Y026578D01*
Y026527D01*
X010192Y026477D01*
X010141D01*
X010192D01*
X010242Y026426D01*
Y026376D01*
X010192Y026325D01*
X010091D01*
X01004Y026376D01*
X010495Y026325D02*
Y026628D01*
X010343Y026477D01*
X010545D01*
X006916Y024559D02*
Y024862D01*
X007068D01*
X007118Y024811D01*
Y02471D01*
X007068Y02466D01*
X006916D01*
X007017D02*
X007118Y024559D01*
X007219Y024811D02*
X00727Y024862D01*
X007371D01*
X007421Y024811D01*
Y024761D01*
X007371Y02471D01*
X00732D01*
X007371D01*
X007421Y02466D01*
Y024609D01*
X007371Y024559D01*
X00727D01*
X007219Y024609D01*
X007522Y024811D02*
X007573Y024862D01*
X007674D01*
X007724Y024811D01*
Y024761D01*
X007674Y02471D01*
X007623D01*
X007674D01*
X007724Y02466D01*
Y024609D01*
X007674Y024559D01*
X007573D01*
X007522Y024609D01*
X011807Y026309D02*
Y026612D01*
X011958D01*
X012009Y026561D01*
Y02646D01*
X011958Y02641D01*
X011807D01*
X011908D02*
X012009Y026309D01*
X01211Y026561D02*
X01216Y026612D01*
X012261D01*
X012312Y026561D01*
Y026511D01*
X012261Y02646D01*
X012211D01*
X012261D01*
X012312Y02641D01*
Y026359D01*
X012261Y026309D01*
X01216D01*
X01211Y026359D01*
X012615Y026309D02*
X012413D01*
X012615Y026511D01*
Y026561D01*
X012564Y026612D01*
X012463D01*
X012413Y026561D01*
X007746Y01815D02*
X008049D01*
Y017998D01*
X007999Y017948D01*
X007898D01*
X007847Y017998D01*
Y01815D01*
Y018049D02*
X007746Y017948D01*
X007999Y017847D02*
X008049Y017796D01*
Y017695D01*
X007999Y017645D01*
X007948D01*
X007898Y017695D01*
Y017746D01*
Y017695D01*
X007847Y017645D01*
X007797D01*
X007746Y017695D01*
Y017796D01*
X007797Y017847D01*
X007746Y017544D02*
Y017443D01*
Y017493D01*
X008049D01*
X007999Y017544D01*
X007726Y019902D02*
X008029D01*
Y01975D01*
X007979Y0197D01*
X007878D01*
X007827Y01975D01*
Y019902D01*
Y019801D02*
X007726Y0197D01*
X007979Y019599D02*
X008029Y019548D01*
Y019447D01*
X007979Y019397D01*
X007928D01*
X007878Y019447D01*
Y019498D01*
Y019447D01*
X007827Y019397D01*
X007777D01*
X007726Y019447D01*
Y019548D01*
X007777Y019599D01*
X007979Y019296D02*
X008029Y019245D01*
Y019144D01*
X007979Y019094D01*
X007777D01*
X007726Y019144D01*
Y019245D01*
X007777Y019296D01*
X007979D01*
X00329Y020994D02*
Y021297D01*
X003442D01*
X003492Y021247D01*
Y021146D01*
X003442Y021095D01*
X00329D01*
X003391D02*
X003492Y020994D01*
X003795D02*
X003593D01*
X003795Y021196D01*
Y021247D01*
X003745Y021297D01*
X003644D01*
X003593Y021247D01*
X003896Y021045D02*
X003947Y020994D01*
X004048D01*
X004098Y021045D01*
Y021247D01*
X004048Y021297D01*
X003947D01*
X003896Y021247D01*
Y021196D01*
X003947Y021146D01*
X004098D01*
X005281Y021014D02*
Y021317D01*
X005432D01*
X005483Y021266D01*
Y021165D01*
X005432Y021115D01*
X005281D01*
X005382D02*
X005483Y021014D01*
X005786D02*
X005584D01*
X005786Y021216D01*
Y021266D01*
X005735Y021317D01*
X005634D01*
X005584Y021266D01*
X005887D02*
X005937Y021317D01*
X006038D01*
X006089Y021266D01*
Y021216D01*
X006038Y021165D01*
X006089Y021115D01*
Y021064D01*
X006038Y021014D01*
X005937D01*
X005887Y021064D01*
Y021115D01*
X005937Y021165D01*
X005887Y021216D01*
Y021266D01*
X005937Y021165D02*
X006038D01*
X014547Y018061D02*
X01485D01*
Y01791D01*
X0148Y017859D01*
X014699D01*
X014648Y01791D01*
Y018061D01*
Y01796D02*
X014547Y017859D01*
Y017556D02*
Y017758D01*
X014749Y017556D01*
X0148D01*
X01485Y017607D01*
Y017708D01*
X0148Y017758D01*
X01485Y017455D02*
Y017253D01*
X0148D01*
X014598Y017455D01*
X014547D01*
Y019862D02*
X01485D01*
Y019711D01*
X0148Y01966D01*
X014699D01*
X014648Y019711D01*
Y019862D01*
Y019761D02*
X014547Y01966D01*
Y019357D02*
Y019559D01*
X014749Y019357D01*
X0148D01*
X01485Y019408D01*
Y019509D01*
X0148Y019559D01*
X01485Y019054D02*
X0148Y019155D01*
X014699Y019256D01*
X014598D01*
X014547Y019206D01*
Y019105D01*
X014598Y019054D01*
X014648D01*
X014699Y019105D01*
Y019256D01*
X010128Y021112D02*
Y021415D01*
X010279D01*
X01033Y021365D01*
Y021264D01*
X010279Y021213D01*
X010128D01*
X010229D02*
X01033Y021112D01*
X010633D02*
X010431D01*
X010633Y021314D01*
Y021365D01*
X010582Y021415D01*
X010481D01*
X010431Y021365D01*
X010936Y021415D02*
X010734D01*
Y021264D01*
X010835Y021314D01*
X010885D01*
X010936Y021264D01*
Y021163D01*
X010885Y021112D01*
X010784D01*
X010734Y021163D01*
X012268Y021043D02*
Y021346D01*
X01242D01*
X01247Y021296D01*
Y021195D01*
X01242Y021144D01*
X012268D01*
X012369D02*
X01247Y021043D01*
X012773D02*
X012571D01*
X012773Y021245D01*
Y021296D01*
X012723Y021346D01*
X012622D01*
X012571Y021296D01*
X013026Y021043D02*
Y021346D01*
X012874Y021195D01*
X013076D01*
X003051Y023661D02*
Y023964D01*
X003203D01*
X003253Y023914D01*
Y023813D01*
X003203Y023762D01*
X003051D01*
X003152D02*
X003253Y023661D01*
X003556D02*
X003354D01*
X003556Y023863D01*
Y023914D01*
X003506Y023964D01*
X003405D01*
X003354Y023914D01*
X003657D02*
X003708Y023964D01*
X003809D01*
X003859Y023914D01*
Y023863D01*
X003809Y023813D01*
X003758D01*
X003809D01*
X003859Y023762D01*
Y023712D01*
X003809Y023661D01*
X003708D01*
X003657Y023712D01*
X009737Y023697D02*
Y024D01*
X009888D01*
X009939Y023949D01*
Y023848D01*
X009888Y023798D01*
X009737D01*
X009838D02*
X009939Y023697D01*
X010242D02*
X01004D01*
X010242Y023899D01*
Y023949D01*
X010191Y024D01*
X01009D01*
X01004Y023949D01*
X010545Y023697D02*
X010343D01*
X010545Y023899D01*
Y023949D01*
X010494Y024D01*
X010393D01*
X010343Y023949D01*
X006826Y016585D02*
Y016888D01*
X006978D01*
X007028Y016837D01*
Y016736D01*
X006978Y016686D01*
X006826D01*
X006927D02*
X007028Y016585D01*
X007331D02*
X007129D01*
X007331Y016787D01*
Y016837D01*
X007281Y016888D01*
X00718D01*
X007129Y016837D01*
X007432Y016585D02*
X007533D01*
X007483D01*
Y016888D01*
X007432Y016837D01*
X006811Y015423D02*
Y015726D01*
X006963D01*
X007013Y015676D01*
Y015575D01*
X006963Y015524D01*
X006811D01*
X006912D02*
X007013Y015423D01*
X007316D02*
X007114D01*
X007316Y015625D01*
Y015676D01*
X007265Y015726D01*
X007164D01*
X007114Y015676D01*
X007417D02*
X007467Y015726D01*
X007568D01*
X007619Y015676D01*
Y015474D01*
X007568Y015423D01*
X007467D01*
X007417Y015474D01*
Y015676D01*
X013691Y016516D02*
Y016819D01*
X013842D01*
X013893Y016768D01*
Y016667D01*
X013842Y016617D01*
X013691D01*
X013792D02*
X013893Y016516D01*
X013994D02*
X014095D01*
X014044D01*
Y016819D01*
X013994Y016768D01*
X014246Y016566D02*
X014297Y016516D01*
X014398D01*
X014448Y016566D01*
Y016768D01*
X014398Y016819D01*
X014297D01*
X014246Y016768D01*
Y016718D01*
X014297Y016667D01*
X014448D01*
X013627Y015473D02*
Y015776D01*
X013778D01*
X013829Y015725D01*
Y015624D01*
X013778Y015574D01*
X013627D01*
X013728D02*
X013829Y015473D01*
X01393D02*
X01403D01*
X01398D01*
Y015776D01*
X01393Y015725D01*
X014182D02*
X014232Y015776D01*
X014333D01*
X014384Y015725D01*
Y015675D01*
X014333Y015624D01*
X014384Y015574D01*
Y015523D01*
X014333Y015473D01*
X014232D01*
X014182Y015523D01*
Y015574D01*
X014232Y015624D01*
X014182Y015675D01*
Y015725D01*
X014232Y015624D02*
X014333D01*
X005276Y023573D02*
Y023876D01*
X005427D01*
X005478Y023825D01*
Y023724D01*
X005427Y023674D01*
X005276D01*
X005377D02*
X005478Y023573D01*
X005579D02*
X00568D01*
X005629D01*
Y023876D01*
X005579Y023825D01*
X005831Y023876D02*
X006033D01*
Y023825D01*
X005831Y023623D01*
Y023573D01*
X011813Y023696D02*
Y023999D01*
X011965D01*
X012015Y023948D01*
Y023847D01*
X011965Y023797D01*
X011813D01*
X011914D02*
X012015Y023696D01*
X012116D02*
X012217D01*
X012167D01*
Y023999D01*
X012116Y023948D01*
X012571Y023999D02*
X01247Y023948D01*
X012369Y023847D01*
Y023746D01*
X012419Y023696D01*
X01252D01*
X012571Y023746D01*
Y023797D01*
X01252Y023847D01*
X012369D01*
X009793Y0323D02*
Y032603D01*
X009945D01*
X009995Y032552D01*
Y032451D01*
X009945Y032401D01*
X009793D01*
X009894D02*
X009995Y0323D01*
X010096D02*
X010197D01*
X010147D01*
Y032603D01*
X010096Y032552D01*
X010551Y032603D02*
X010349D01*
Y032451D01*
X01045Y032502D01*
X0105D01*
X010551Y032451D01*
Y03235D01*
X0105Y0323D01*
X010399D01*
X010349Y03235D01*
X009833Y033703D02*
Y034006D01*
X009985D01*
X010035Y033956D01*
Y033855D01*
X009985Y033804D01*
X009833D01*
X009934D02*
X010035Y033703D01*
X010136D02*
X010237D01*
X010187D01*
Y034006D01*
X010136Y033956D01*
X01054Y033703D02*
Y034006D01*
X010389Y033855D01*
X010591D01*
X007699Y032258D02*
Y032561D01*
X007851D01*
X007901Y032511D01*
Y03241D01*
X007851Y032359D01*
X007699D01*
X0078D02*
X007901Y032258D01*
X008002D02*
X008103D01*
X008053D01*
Y032561D01*
X008002Y032511D01*
X008255D02*
X008305Y032561D01*
X008406D01*
X008457Y032511D01*
Y03246D01*
X008406Y03241D01*
X008356D01*
X008406D01*
X008457Y032359D01*
Y032309D01*
X008406Y032258D01*
X008305D01*
X008255Y032309D01*
X01237Y037323D02*
Y037626D01*
X012522D01*
X012572Y037575D01*
Y037474D01*
X012522Y037424D01*
X01237D01*
X012471D02*
X012572Y037323D01*
X012673D02*
X012774D01*
X012724D01*
Y037626D01*
X012673Y037575D01*
X013128Y037323D02*
X012926D01*
X013128Y037525D01*
Y037575D01*
X013077Y037626D01*
X012976D01*
X012926Y037575D01*
X007693Y033704D02*
Y034007D01*
X007845D01*
X007895Y033957D01*
Y033856D01*
X007845Y033805D01*
X007693D01*
X007794D02*
X007895Y033704D01*
X007996D02*
X008097D01*
X008047D01*
Y034007D01*
X007996Y033957D01*
X008249Y033704D02*
X00835D01*
X008299D01*
Y034007D01*
X008249Y033957D01*
X012146Y041949D02*
Y042252D01*
X012297D01*
X012348Y042201D01*
Y0421D01*
X012297Y04205D01*
X012146D01*
X012247D02*
X012348Y041949D01*
X012449D02*
X01255D01*
X012499D01*
Y042252D01*
X012449Y042201D01*
X012701D02*
X012752Y042252D01*
X012853D01*
X012903Y042201D01*
Y041999D01*
X012853Y041949D01*
X012752D01*
X012701Y041999D01*
Y042201D01*
X0077Y030753D02*
Y031056D01*
X007852D01*
X007902Y031006D01*
Y030905D01*
X007852Y030854D01*
X0077D01*
X007801D02*
X007902Y030753D01*
X008003Y030804D02*
X008054Y030753D01*
X008155D01*
X008205Y030804D01*
Y031006D01*
X008155Y031056D01*
X008054D01*
X008003Y031006D01*
Y030955D01*
X008054Y030905D01*
X008205D01*
X031348Y008002D02*
Y008305D01*
X0315D01*
X03155Y008254D01*
Y008153D01*
X0315Y008103D01*
X031348D01*
X031449D02*
X03155Y008002D01*
X031651Y008254D02*
X031702Y008305D01*
X031803D01*
X031853Y008254D01*
Y008204D01*
X031803Y008153D01*
X031853Y008103D01*
Y008052D01*
X031803Y008002D01*
X031702D01*
X031651Y008052D01*
Y008103D01*
X031702Y008153D01*
X031651Y008204D01*
Y008254D01*
X031702Y008153D02*
X031803D01*
X034921Y008002D02*
Y008305D01*
X035073D01*
X035123Y008254D01*
Y008153D01*
X035073Y008103D01*
X034921D01*
X035022D02*
X035123Y008002D01*
X035224Y008305D02*
X035426D01*
Y008254D01*
X035224Y008052D01*
Y008002D01*
X038553D02*
Y008305D01*
X038705D01*
X038755Y008254D01*
Y008153D01*
X038705Y008103D01*
X038553D01*
X038654D02*
X038755Y008002D01*
X039058Y008305D02*
X038957Y008254D01*
X038856Y008153D01*
Y008052D01*
X038907Y008002D01*
X039008D01*
X039058Y008052D01*
Y008103D01*
X039008Y008153D01*
X038856D01*
X045738Y008002D02*
Y008305D01*
X04589D01*
X04594Y008254D01*
Y008153D01*
X04589Y008103D01*
X045738D01*
X045839D02*
X04594Y008002D01*
X046243Y008305D02*
X046041D01*
Y008153D01*
X046142Y008204D01*
X046193D01*
X046243Y008153D01*
Y008052D01*
X046193Y008002D01*
X046092D01*
X046041Y008052D01*
X052677Y008002D02*
Y008305D01*
X052829D01*
X052879Y008254D01*
Y008153D01*
X052829Y008103D01*
X052677D01*
X052778D02*
X052879Y008002D01*
X053132D02*
Y008305D01*
X05298Y008153D01*
X053182D01*
X042087Y008002D02*
Y008305D01*
X042238D01*
X042289Y008254D01*
Y008153D01*
X042238Y008103D01*
X042087D01*
X042188D02*
X042289Y008002D01*
X04239Y008254D02*
X04244Y008305D01*
X042541D01*
X042592Y008254D01*
Y008204D01*
X042541Y008153D01*
X042491D01*
X042541D01*
X042592Y008103D01*
Y008052D01*
X042541Y008002D01*
X04244D01*
X04239Y008052D01*
X049272Y008002D02*
Y008305D01*
X049423D01*
X049474Y008254D01*
Y008153D01*
X049423Y008103D01*
X049272D01*
X049373D02*
X049474Y008002D01*
X049777D02*
X049575D01*
X049777Y008204D01*
Y008254D01*
X049726Y008305D01*
X049625D01*
X049575Y008254D01*
X056565Y008002D02*
Y008305D01*
X056716D01*
X056767Y008254D01*
Y008153D01*
X056716Y008103D01*
X056565D01*
X056666D02*
X056767Y008002D01*
X056868D02*
X056969D01*
X056918D01*
Y008305D01*
X056868Y008254D01*
X023989Y027886D02*
Y028189D01*
X02414D01*
X024191Y028139D01*
Y028038D01*
X02414Y027987D01*
X023989D01*
X024292Y027886D02*
X024393D01*
X024342D01*
Y028189D01*
X024292Y028139D01*
X024544Y027937D02*
X024595Y027886D01*
X024696D01*
X024746Y027937D01*
Y028139D01*
X024696Y028189D01*
X024595D01*
X024544Y028139D01*
Y028088D01*
X024595Y028038D01*
X024746D01*
X017254Y027888D02*
Y028191D01*
X017405D01*
X017456Y02814D01*
Y028039D01*
X017405Y027989D01*
X017254D01*
X017557Y027888D02*
X017658D01*
X017607D01*
Y028191D01*
X017557Y02814D01*
X017809D02*
X01786Y028191D01*
X017961D01*
X018011Y02814D01*
Y02809D01*
X017961Y028039D01*
X018011Y027989D01*
Y027938D01*
X017961Y027888D01*
X01786D01*
X017809Y027938D01*
Y027989D01*
X01786Y028039D01*
X017809Y02809D01*
Y02814D01*
X01786Y028039D02*
X017961D01*
X010517Y027883D02*
Y028186D01*
X010669D01*
X010719Y028136D01*
Y028035D01*
X010669Y027984D01*
X010517D01*
X01082Y027883D02*
X010921D01*
X010871D01*
Y028186D01*
X01082Y028136D01*
X011275Y028186D02*
X011174Y028136D01*
X011073Y028035D01*
Y027934D01*
X011123Y027883D01*
X011224D01*
X011275Y027934D01*
Y027984D01*
X011224Y028035D01*
X011073D01*
X001408Y028937D02*
Y02924D01*
X001559D01*
X00161Y029189D01*
Y029088D01*
X001559Y029038D01*
X001408D01*
X001711Y028937D02*
X001812D01*
X001761D01*
Y02924D01*
X001711Y029189D01*
X002165Y02924D02*
X001963D01*
Y029088D01*
X002064Y029139D01*
X002115D01*
X002165Y029088D01*
Y028988D01*
X002115Y028937D01*
X002014D01*
X001963Y028988D01*
X031043Y010556D02*
Y010859D01*
X031195D01*
X031245Y010808D01*
Y010707D01*
X031195Y010657D01*
X031043D01*
X031346Y010556D02*
X031447D01*
X031397D01*
Y010859D01*
X031346Y010808D01*
X031599D02*
X031649Y010859D01*
X03175D01*
X031801Y010808D01*
Y010758D01*
X03175Y010707D01*
X0317D01*
X03175D01*
X031801Y010657D01*
Y010606D01*
X03175Y010556D01*
X031649D01*
X031599Y010606D01*
X029113Y005496D02*
Y005799D01*
X029265D01*
X029315Y005748D01*
Y005647D01*
X029265Y005597D01*
X029113D01*
X029416Y005496D02*
X029517D01*
X029467D01*
Y005799D01*
X029416Y005748D01*
X029871Y005496D02*
X029669D01*
X029871Y005698D01*
Y005748D01*
X02982Y005799D01*
X029719D01*
X029669Y005748D01*
X032723Y005496D02*
Y005799D01*
X032875D01*
X032925Y005748D01*
Y005647D01*
X032875Y005597D01*
X032723D01*
X033026Y005496D02*
X033127D01*
X033077D01*
Y005799D01*
X033026Y005748D01*
X033279Y005496D02*
X03338D01*
X033329D01*
Y005799D01*
X033279Y005748D01*
X038223Y010646D02*
Y010949D01*
X038375D01*
X038425Y010898D01*
Y010797D01*
X038375Y010747D01*
X038223D01*
X038526Y010646D02*
X038627D01*
X038577D01*
Y010949D01*
X038526Y010898D01*
X038779D02*
X038829Y010949D01*
X03893D01*
X038981Y010898D01*
Y010696D01*
X03893Y010646D01*
X038829D01*
X038779Y010696D01*
Y010898D01*
X045353Y010586D02*
Y010889D01*
X045505D01*
X045555Y010838D01*
Y010737D01*
X045505Y010687D01*
X045353D01*
X045656Y010636D02*
X045707Y010586D01*
X045808D01*
X045858Y010636D01*
Y010838D01*
X045808Y010889D01*
X045707D01*
X045656Y010838D01*
Y010788D01*
X045707Y010737D01*
X045858D01*
X052443Y010636D02*
Y010939D01*
X052595D01*
X052645Y010888D01*
Y010787D01*
X052595Y010737D01*
X052443D01*
X052746Y010888D02*
X052797Y010939D01*
X052898D01*
X052948Y010888D01*
Y010838D01*
X052898Y010787D01*
X052948Y010737D01*
Y010686D01*
X052898Y010636D01*
X052797D01*
X052746Y010686D01*
Y010737D01*
X052797Y010787D01*
X052746Y010838D01*
Y010888D01*
X052797Y010787D02*
X052898D01*
X036323Y005496D02*
Y005799D01*
X036475D01*
X036525Y005748D01*
Y005647D01*
X036475Y005597D01*
X036323D01*
X036626Y005799D02*
X036828D01*
Y005748D01*
X036626Y005546D01*
Y005496D01*
X039923D02*
Y005799D01*
X040075D01*
X040125Y005748D01*
Y005647D01*
X040075Y005597D01*
X039923D01*
X040428Y005799D02*
X040327Y005748D01*
X040226Y005647D01*
Y005546D01*
X040277Y005496D01*
X040378D01*
X040428Y005546D01*
Y005597D01*
X040378Y005647D01*
X040226D01*
X043523Y005496D02*
Y005799D01*
X043675D01*
X043725Y005748D01*
Y005647D01*
X043675Y005597D01*
X043523D01*
X044028Y005799D02*
X043826D01*
Y005647D01*
X043927Y005698D01*
X043978D01*
X044028Y005647D01*
Y005546D01*
X043978Y005496D01*
X043877D01*
X043826Y005546D01*
X047133Y005496D02*
Y005799D01*
X047285D01*
X047335Y005748D01*
Y005647D01*
X047285Y005597D01*
X047133D01*
X047436Y005748D02*
X047487Y005799D01*
X047588D01*
X047638Y005748D01*
Y005698D01*
X047588Y005647D01*
X047537D01*
X047588D01*
X047638Y005597D01*
Y005546D01*
X047588Y005496D01*
X047487D01*
X047436Y005546D01*
X050733Y005496D02*
Y005799D01*
X050885D01*
X050935Y005748D01*
Y005647D01*
X050885Y005597D01*
X050733D01*
X051238Y005496D02*
X051036D01*
X051238Y005698D01*
Y005748D01*
X051188Y005799D01*
X051087D01*
X051036Y005748D01*
X054333Y005496D02*
Y005799D01*
X054485D01*
X054535Y005748D01*
Y005647D01*
X054485Y005597D01*
X054333D01*
X054636Y005496D02*
X054737D01*
X054687D01*
Y005799D01*
X054636Y005748D01*
X033839Y031764D02*
Y031461D01*
X034041D01*
X034142D02*
X034243D01*
X034192D01*
Y031764D01*
X034142Y031714D01*
X000773Y042468D02*
X000672D01*
X000722D01*
Y042216D01*
X000672Y042165D01*
X000621D01*
X000571Y042216D01*
X000874Y042165D02*
Y042367D01*
X000975Y042468D01*
X001076Y042367D01*
Y042165D01*
Y042317D01*
X000874D01*
X001379Y042418D02*
X001328Y042468D01*
X001227D01*
X001177Y042418D01*
Y042216D01*
X001227Y042165D01*
X001328D01*
X001379Y042216D01*
X00148Y042468D02*
Y042165D01*
Y042266D01*
X001682Y042468D01*
X00153Y042317D01*
X001682Y042165D01*
X001783D02*
X001884D01*
X001833D01*
Y042468D01*
X001783Y042418D01*
X017641Y023807D02*
X017742D01*
X017692D01*
Y023504D01*
X017641D01*
X017742D01*
X018096Y023756D02*
X018045Y023807D01*
X017944D01*
X017894Y023756D01*
Y023554D01*
X017944Y023504D01*
X018045D01*
X018096Y023554D01*
X018399Y023807D02*
X018298Y023756D01*
X018197Y023655D01*
Y023554D01*
X018247Y023504D01*
X018348D01*
X018399Y023554D01*
Y023605D01*
X018348Y023655D01*
X018197D01*
X024518Y017402D02*
X024619D01*
X024568D01*
Y017099D01*
X024518D01*
X024619D01*
X024972Y017351D02*
X024922Y017402D01*
X024821D01*
X02477Y017351D01*
Y017149D01*
X024821Y017099D01*
X024922D01*
X024972Y017149D01*
X025225Y017099D02*
Y017402D01*
X025073Y01725D01*
X025275D01*
X017799Y017234D02*
X0179D01*
X017849D01*
Y016931D01*
X017799D01*
X0179D01*
X018253Y017184D02*
X018203Y017234D01*
X018102D01*
X018051Y017184D01*
Y016982D01*
X018102Y016931D01*
X018203D01*
X018253Y016982D01*
X018354Y017184D02*
X018405Y017234D01*
X018505D01*
X018556Y017184D01*
Y017133D01*
X018505Y017083D01*
X018455D01*
X018505D01*
X018556Y017032D01*
Y016982D01*
X018505Y016931D01*
X018405D01*
X018354Y016982D01*
X011109Y017372D02*
X01121D01*
X011159D01*
Y017069D01*
X011109D01*
X01121D01*
X011563Y017322D02*
X011513Y017372D01*
X011412D01*
X011361Y017322D01*
Y01712D01*
X011412Y017069D01*
X011513D01*
X011563Y01712D01*
X011866Y017069D02*
X011664D01*
X011866Y017271D01*
Y017322D01*
X011816Y017372D01*
X011715D01*
X011664Y017322D01*
X004478Y017372D02*
X004579D01*
X004529D01*
Y017069D01*
X004478D01*
X004579D01*
X004933Y017322D02*
X004882Y017372D01*
X004781D01*
X004731Y017322D01*
Y01712D01*
X004781Y017069D01*
X004882D01*
X004933Y01712D01*
X005034Y017069D02*
X005135D01*
X005084D01*
Y017372D01*
X005034Y017322D01*
X000639Y044923D02*
Y04462D01*
Y044772D01*
X000841D01*
Y044923D01*
Y04462D01*
X001094D02*
Y044923D01*
X000942Y044772D01*
X001144D01*
X054803Y044053D02*
Y04375D01*
Y043901D01*
X055005D01*
Y044053D01*
Y04375D01*
X055106Y044002D02*
X055157Y044053D01*
X055258D01*
X055308Y044002D01*
Y043952D01*
X055258Y043901D01*
X055207D01*
X055258D01*
X055308Y043851D01*
Y043801D01*
X055258Y04375D01*
X055157D01*
X055106Y043801D01*
X055804Y002778D02*
Y002475D01*
Y002626D01*
X056006D01*
Y002778D01*
Y002475D01*
X056309D02*
X056107D01*
X056309Y002677D01*
Y002727D01*
X056258Y002778D01*
X056157D01*
X056107Y002727D01*
X000642Y002778D02*
Y002475D01*
Y002626D01*
X000844D01*
Y002778D01*
Y002475D01*
X000945D02*
X001046D01*
X000996D01*
Y002778D01*
X000945Y002727D01*
X015633Y041522D02*
Y041219D01*
X015785D01*
X015835Y041269D01*
Y041471D01*
X015785Y041522D01*
X015633D01*
X015936Y041269D02*
X015987Y041219D01*
X016088D01*
X016138Y041269D01*
Y041471D01*
X016088Y041522D01*
X015987D01*
X015936Y041471D01*
Y041421D01*
X015987Y04137D01*
X016138D01*
X022289Y016237D02*
X022238Y016287D01*
X022137D01*
X022087Y016237D01*
Y016035D01*
X022137Y015984D01*
X022238D01*
X022289Y016035D01*
X022592Y016287D02*
X022491Y016237D01*
X02239Y016136D01*
Y016035D01*
X02244Y015984D01*
X022541D01*
X022592Y016035D01*
Y016085D01*
X022541Y016136D01*
X02239D01*
X022844Y015984D02*
Y016287D01*
X022693Y016136D01*
X022895D01*
X015753Y016689D02*
X015703Y01674D01*
X015602D01*
X015551Y016689D01*
Y016487D01*
X015602Y016437D01*
X015703D01*
X015753Y016487D01*
X016056Y01674D02*
X015955Y016689D01*
X015854Y016588D01*
Y016487D01*
X015905Y016437D01*
X016006D01*
X016056Y016487D01*
Y016538D01*
X016006Y016588D01*
X015854D01*
X016157Y016689D02*
X016208Y01674D01*
X016309D01*
X016359Y016689D01*
Y016639D01*
X016309Y016588D01*
X016258D01*
X016309D01*
X016359Y016538D01*
Y016487D01*
X016309Y016437D01*
X016208D01*
X016157Y016487D01*
X021716Y018361D02*
X021666Y018311D01*
Y01821D01*
X021716Y018159D01*
X021918D01*
X021969Y01821D01*
Y018311D01*
X021918Y018361D01*
X021666Y018664D02*
X021716Y018563D01*
X021817Y018462D01*
X021918D01*
X021969Y018513D01*
Y018614D01*
X021918Y018664D01*
X021868D01*
X021817Y018614D01*
Y018462D01*
X021969Y018967D02*
Y018765D01*
X021767Y018967D01*
X021716D01*
X021666Y018917D01*
Y018816D01*
X021716Y018765D01*
X014915Y01845D02*
X014864Y0184D01*
Y018299D01*
X014915Y018248D01*
X015117D01*
X015167Y018299D01*
Y0184D01*
X015117Y01845D01*
X014864Y018753D02*
X014915Y018652D01*
X015016Y018551D01*
X015117D01*
X015167Y018601D01*
Y018702D01*
X015117Y018753D01*
X015066D01*
X015016Y018702D01*
Y018551D01*
X015167Y018854D02*
Y018955D01*
Y018904D01*
X014864D01*
X014915Y018854D01*
X023657Y022575D02*
X023606Y022626D01*
X023505D01*
X023455Y022575D01*
Y022373D01*
X023505Y022323D01*
X023606D01*
X023657Y022373D01*
X02396Y022626D02*
X023859Y022575D01*
X023758Y022474D01*
Y022373D01*
X023808Y022323D01*
X023909D01*
X02396Y022373D01*
Y022424D01*
X023909Y022474D01*
X023758D01*
X024061Y022575D02*
X024111Y022626D01*
X024212D01*
X024263Y022575D01*
Y022373D01*
X024212Y022323D01*
X024111D01*
X024061Y022373D01*
Y022575D01*
X025576Y022556D02*
X025526Y022606D01*
X025425D01*
X025374Y022556D01*
Y022354D01*
X025425Y022303D01*
X025526D01*
X025576Y022354D01*
X025879Y022606D02*
X025677D01*
Y022455D01*
X025778Y022505D01*
X025828D01*
X025879Y022455D01*
Y022354D01*
X025828Y022303D01*
X025727D01*
X025677Y022354D01*
X02598D02*
X02603Y022303D01*
X026131D01*
X026182Y022354D01*
Y022556D01*
X026131Y022606D01*
X02603D01*
X02598Y022556D01*
Y022505D01*
X02603Y022455D01*
X026182D01*
X016165Y021698D02*
X016114Y021648D01*
Y021547D01*
X016165Y021496D01*
X016367D01*
X016417Y021547D01*
Y021648D01*
X016367Y021698D01*
X016114Y022001D02*
Y021799D01*
X016266D01*
X016215Y0219D01*
Y021951D01*
X016266Y022001D01*
X016367D01*
X016417Y021951D01*
Y02185D01*
X016367Y021799D01*
X016165Y022102D02*
X016114Y022153D01*
Y022253D01*
X016165Y022304D01*
X016215D01*
X016266Y022253D01*
X016316Y022304D01*
X016367D01*
X016417Y022253D01*
Y022153D01*
X016367Y022102D01*
X016316D01*
X016266Y022153D01*
X016215Y022102D01*
X016165D01*
X016266Y022153D02*
Y022253D01*
X020567Y022141D02*
X020618Y022191D01*
Y022292D01*
X020567Y022343D01*
X020365D01*
X020315Y022292D01*
Y022191D01*
X020365Y022141D01*
X020618Y021838D02*
Y02204D01*
X020466D01*
X020517Y021939D01*
Y021888D01*
X020466Y021838D01*
X020365D01*
X020315Y021888D01*
Y021989D01*
X020365Y02204D01*
X020618Y021737D02*
Y021535D01*
X020567D01*
X020365Y021737D01*
X020315D01*
X021726Y020212D02*
X021675Y020161D01*
Y02006D01*
X021726Y02001D01*
X021928D01*
X021978Y02006D01*
Y020161D01*
X021928Y020212D01*
X021675Y020515D02*
Y020313D01*
X021827D01*
X021776Y020414D01*
Y020464D01*
X021827Y020515D01*
X021928D01*
X021978Y020464D01*
Y020363D01*
X021928Y020313D01*
X021675Y020818D02*
X021726Y020717D01*
X021827Y020616D01*
X021928D01*
X021978Y020666D01*
Y020767D01*
X021928Y020818D01*
X021877D01*
X021827Y020767D01*
Y020616D01*
X014935Y020172D02*
X014884Y020122D01*
Y020021D01*
X014935Y01997D01*
X015137D01*
X015187Y020021D01*
Y020122D01*
X015137Y020172D01*
X014884Y020475D02*
Y020273D01*
X015036D01*
X014985Y020374D01*
Y020425D01*
X015036Y020475D01*
X015137D01*
X015187Y020425D01*
Y020324D01*
X015137Y020273D01*
X014884Y020778D02*
Y020576D01*
X015036D01*
X014985Y020677D01*
Y020728D01*
X015036Y020778D01*
X015137D01*
X015187Y020728D01*
Y020627D01*
X015137Y020576D01*
X022232Y015617D02*
X022182Y015667D01*
X022081D01*
X02203Y015617D01*
Y015415D01*
X022081Y015364D01*
X022182D01*
X022232Y015415D01*
X022535Y015667D02*
X022333D01*
Y015516D01*
X022434Y015566D01*
X022485D01*
X022535Y015516D01*
Y015415D01*
X022485Y015364D01*
X022384D01*
X022333Y015415D01*
X022788Y015364D02*
Y015667D01*
X022636Y015516D01*
X022838D01*
X015834Y015656D02*
X015784Y015707D01*
X015683D01*
X015633Y015656D01*
Y015454D01*
X015683Y015404D01*
X015784D01*
X015834Y015454D01*
X016137Y015707D02*
X015935D01*
Y015555D01*
X016036Y015606D01*
X016087D01*
X016137Y015555D01*
Y015454D01*
X016087Y015404D01*
X015986D01*
X015935Y015454D01*
X016238Y015656D02*
X016289Y015707D01*
X01639D01*
X01644Y015656D01*
Y015606D01*
X01639Y015555D01*
X016339D01*
X01639D01*
X01644Y015505D01*
Y015454D01*
X01639Y015404D01*
X016289D01*
X016238Y015454D01*
X002131Y016729D02*
X002081Y016779D01*
X00198D01*
X001929Y016729D01*
Y016527D01*
X00198Y016476D01*
X002081D01*
X002131Y016527D01*
X002434Y016779D02*
X002232D01*
Y016628D01*
X002333Y016678D01*
X002384D01*
X002434Y016628D01*
Y016527D01*
X002384Y016476D01*
X002283D01*
X002232Y016527D01*
X002737Y016476D02*
X002535D01*
X002737Y016678D01*
Y016729D01*
X002687Y016779D01*
X002586D01*
X002535Y016729D01*
X008854Y016256D02*
X008803Y016307D01*
X008702D01*
X008652Y016256D01*
Y016054D01*
X008702Y016004D01*
X008803D01*
X008854Y016054D01*
X009157Y016307D02*
X008955D01*
Y016155D01*
X009056Y016206D01*
X009106D01*
X009157Y016155D01*
Y016054D01*
X009106Y016004D01*
X009005D01*
X008955Y016054D01*
X009258Y016004D02*
X009359D01*
X009308D01*
Y016307D01*
X009258Y016256D01*
X001431Y017741D02*
X00138Y017691D01*
Y01759D01*
X001431Y017539D01*
X001633D01*
X001683Y01759D01*
Y017691D01*
X001633Y017741D01*
X00138Y018044D02*
Y017842D01*
X001532D01*
X001481Y017943D01*
Y017994D01*
X001532Y018044D01*
X001633D01*
X001683Y017994D01*
Y017893D01*
X001633Y017842D01*
X001431Y018145D02*
X00138Y018196D01*
Y018297D01*
X001431Y018347D01*
X001633D01*
X001683Y018297D01*
Y018196D01*
X001633Y018145D01*
X001431D01*
X051189Y032991D02*
X051139Y033041D01*
X051038D01*
X050987Y032991D01*
Y032789D01*
X051038Y032738D01*
X051139D01*
X051189Y032789D01*
X051442Y032738D02*
Y033041D01*
X05129Y03289D01*
X051492D01*
X051593Y032789D02*
X051644Y032738D01*
X051745D01*
X051795Y032789D01*
Y032991D01*
X051745Y033041D01*
X051644D01*
X051593Y032991D01*
Y03294D01*
X051644Y03289D01*
X051795D01*
X051299Y029399D02*
X051249Y029449D01*
X051148D01*
X051097Y029399D01*
Y029197D01*
X051148Y029146D01*
X051249D01*
X051299Y029197D01*
X051552Y029146D02*
Y029449D01*
X0514Y029298D01*
X051602D01*
X051703Y029399D02*
X051754Y029449D01*
X051855D01*
X051905Y029399D01*
Y029348D01*
X051855Y029298D01*
X051905Y029247D01*
Y029197D01*
X051855Y029146D01*
X051754D01*
X051703Y029197D01*
Y029247D01*
X051754Y029298D01*
X051703Y029348D01*
Y029399D01*
X051754Y029298D02*
X051855D01*
X051444Y025471D02*
X051393Y025522D01*
X051292D01*
X051242Y025471D01*
Y025269D01*
X051292Y025219D01*
X051393D01*
X051444Y025269D01*
X051696Y025219D02*
Y025522D01*
X051545Y02537D01*
X051747D01*
X051848Y025522D02*
X05205D01*
Y025471D01*
X051848Y025269D01*
Y025219D01*
X051529Y033977D02*
X051479Y033926D01*
Y033825D01*
X051529Y033775D01*
X051731D01*
X051782Y033825D01*
Y033926D01*
X051731Y033977D01*
X051782Y034229D02*
X051479D01*
X05163Y034077D01*
Y034279D01*
X051479Y034582D02*
X051529Y034481D01*
X05163Y03438D01*
X051731D01*
X051782Y034431D01*
Y034532D01*
X051731Y034582D01*
X05168D01*
X05163Y034532D01*
Y03438D01*
X039355Y017759D02*
X039406Y017709D01*
X039507D01*
X039557Y017759D01*
Y017961D01*
X039507Y018012D01*
X039406D01*
X039355Y017961D01*
X039254Y017759D02*
X039204Y017709D01*
X039103D01*
X039052Y017759D01*
Y01781D01*
X039103Y01786D01*
X039153D01*
X039103D01*
X039052Y017911D01*
Y017961D01*
X039103Y018012D01*
X039204D01*
X039254Y017961D01*
X038749Y017709D02*
X03885Y017759D01*
X038951Y01786D01*
Y017961D01*
X038901Y018012D01*
X0388D01*
X038749Y017961D01*
Y017911D01*
X0388Y01786D01*
X038951D01*
X034454Y017877D02*
X034504Y017827D01*
X034605D01*
X034656Y017877D01*
Y018079D01*
X034605Y01813D01*
X034504D01*
X034454Y018079D01*
X034353Y017877D02*
X034302Y017827D01*
X034201D01*
X034151Y017877D01*
Y017928D01*
X034201Y017978D01*
X034252D01*
X034201D01*
X034151Y018029D01*
Y018079D01*
X034201Y01813D01*
X034302D01*
X034353Y018079D01*
X033848Y017827D02*
X03405D01*
Y017978D01*
X033949Y017928D01*
X033898D01*
X033848Y017978D01*
Y018079D01*
X033898Y01813D01*
X033999D01*
X03405Y018079D01*
X033973Y028194D02*
X034023Y028244D01*
Y028345D01*
X033973Y028396D01*
X033771D01*
X03372Y028345D01*
Y028244D01*
X033771Y028194D01*
X033973Y028093D02*
X034023Y028042D01*
Y027941D01*
X033973Y027891D01*
X033922D01*
X033872Y027941D01*
Y027992D01*
Y027941D01*
X033821Y027891D01*
X033771D01*
X03372Y027941D01*
Y028042D01*
X033771Y028093D01*
X03372Y027638D02*
X034023D01*
X033872Y02779D01*
Y027588D01*
X030675Y02968D02*
X030726Y02973D01*
Y029831D01*
X030675Y029882D01*
X030473D01*
X030423Y029831D01*
Y02973D01*
X030473Y02968D01*
X030675Y029579D02*
X030726Y029528D01*
Y029427D01*
X030675Y029377D01*
X030625D01*
X030574Y029427D01*
Y029478D01*
Y029427D01*
X030524Y029377D01*
X030473D01*
X030423Y029427D01*
Y029528D01*
X030473Y029579D01*
X030675Y029276D02*
X030726Y029225D01*
Y029124D01*
X030675Y029074D01*
X030625D01*
X030574Y029124D01*
Y029175D01*
Y029124D01*
X030524Y029074D01*
X030473D01*
X030423Y029124D01*
Y029225D01*
X030473Y029276D01*
X030538Y027731D02*
X030589Y027782D01*
Y027883D01*
X030538Y027933D01*
X030336D01*
X030286Y027883D01*
Y027782D01*
X030336Y027731D01*
X030538Y02763D02*
X030589Y02758D01*
Y027479D01*
X030538Y027428D01*
X030488D01*
X030437Y027479D01*
Y027529D01*
Y027479D01*
X030387Y027428D01*
X030336D01*
X030286Y027479D01*
Y02758D01*
X030336Y02763D01*
X030286Y027125D02*
Y027327D01*
X030488Y027125D01*
X030538D01*
X030589Y027176D01*
Y027277D01*
X030538Y027327D01*
X03082Y025094D02*
X03077Y025043D01*
Y024942D01*
X03082Y024892D01*
X031022D01*
X031073Y024942D01*
Y025043D01*
X031022Y025094D01*
X03082Y025195D02*
X03077Y025245D01*
Y025346D01*
X03082Y025397D01*
X030871D01*
X030921Y025346D01*
Y025296D01*
Y025346D01*
X030972Y025397D01*
X031022D01*
X031073Y025346D01*
Y025245D01*
X031022Y025195D01*
X031073Y025498D02*
Y025599D01*
Y025548D01*
X03077D01*
X03082Y025498D01*
X036768Y033609D02*
X036718Y033659D01*
X036617D01*
X036566Y033609D01*
Y033407D01*
X036617Y033356D01*
X036718D01*
X036768Y033407D01*
X036869Y033609D02*
X036919Y033659D01*
X03702D01*
X037071Y033609D01*
Y033558D01*
X03702Y033508D01*
X03697D01*
X03702D01*
X037071Y033457D01*
Y033407D01*
X03702Y033356D01*
X036919D01*
X036869Y033407D01*
X037172Y033609D02*
X037222Y033659D01*
X037323D01*
X037374Y033609D01*
Y033407D01*
X037323Y033356D01*
X037222D01*
X037172Y033407D01*
Y033609D01*
X042471Y027419D02*
X04242Y027469D01*
X042319D01*
X042269Y027419D01*
Y027217D01*
X042319Y027166D01*
X04242D01*
X042471Y027217D01*
X042774Y027166D02*
X042572D01*
X042774Y027368D01*
Y027419D01*
X042723Y027469D01*
X042622D01*
X042572Y027419D01*
X042875Y027217D02*
X042925Y027166D01*
X043026D01*
X043077Y027217D01*
Y027419D01*
X043026Y027469D01*
X042925D01*
X042875Y027419D01*
Y027368D01*
X042925Y027318D01*
X043077D01*
X039847Y033717D02*
X039796Y033768D01*
X039695D01*
X039645Y033717D01*
Y033515D01*
X039695Y033465D01*
X039796D01*
X039847Y033515D01*
X04015Y033465D02*
X039948D01*
X04015Y033667D01*
Y033717D01*
X040099Y033768D01*
X039998D01*
X039948Y033717D01*
X040251D02*
X040301Y033768D01*
X040402D01*
X040453Y033717D01*
Y033667D01*
X040402Y033616D01*
X040453Y033566D01*
Y033515D01*
X040402Y033465D01*
X040301D01*
X040251Y033515D01*
Y033566D01*
X040301Y033616D01*
X040251Y033667D01*
Y033717D01*
X040301Y033616D02*
X040402D01*
X008212Y018332D02*
X008162Y018281D01*
Y01818D01*
X008212Y01813D01*
X008414D01*
X008465Y01818D01*
Y018281D01*
X008414Y018332D01*
X008465Y018635D02*
Y018433D01*
X008263Y018635D01*
X008212D01*
X008162Y018584D01*
Y018483D01*
X008212Y018433D01*
X008162Y018736D02*
Y018938D01*
X008212D01*
X008414Y018736D01*
X008465D01*
X002572Y02159D02*
X002522Y021539D01*
Y021438D01*
X002572Y021388D01*
X002774D01*
X002825Y021438D01*
Y021539D01*
X002774Y02159D01*
X002825Y021893D02*
Y021691D01*
X002623Y021893D01*
X002572D01*
X002522Y021842D01*
Y021741D01*
X002572Y021691D01*
X002522Y022196D02*
X002572Y022095D01*
X002673Y021994D01*
X002774D01*
X002825Y022044D01*
Y022145D01*
X002774Y022196D01*
X002724D01*
X002673Y022145D01*
Y021994D01*
X007044Y022052D02*
X007094Y022102D01*
Y022203D01*
X007044Y022254D01*
X006842D01*
X006791Y022203D01*
Y022102D01*
X006842Y022052D01*
X006791Y021749D02*
Y021951D01*
X006993Y021749D01*
X007044D01*
X007094Y021799D01*
Y0219D01*
X007044Y021951D01*
X007094Y021446D02*
Y021648D01*
X006943D01*
X006993Y021547D01*
Y021497D01*
X006943Y021446D01*
X006842D01*
X006791Y021497D01*
Y021597D01*
X006842Y021648D01*
X010143Y022546D02*
X010092Y022596D01*
X009991D01*
X009941Y022546D01*
Y022344D01*
X009991Y022293D01*
X010092D01*
X010143Y022344D01*
X010446Y022293D02*
X010244D01*
X010446Y022495D01*
Y022546D01*
X010395Y022596D01*
X010294D01*
X010244Y022546D01*
X010698Y022293D02*
Y022596D01*
X010547Y022445D01*
X010749D01*
X012023Y022565D02*
X011972Y022616D01*
X011871D01*
X011821Y022565D01*
Y022363D01*
X011871Y022313D01*
X011972D01*
X012023Y022363D01*
X012326Y022313D02*
X012124D01*
X012326Y022515D01*
Y022565D01*
X012275Y022616D01*
X012174D01*
X012124Y022565D01*
X012427D02*
X012477Y022616D01*
X012578D01*
X012629Y022565D01*
Y022515D01*
X012578Y022464D01*
X012528D01*
X012578D01*
X012629Y022414D01*
Y022363D01*
X012578Y022313D01*
X012477D01*
X012427Y022363D01*
X00145Y019533D02*
X0014Y019482D01*
Y019381D01*
X00145Y019331D01*
X001652D01*
X001703Y019381D01*
Y019482D01*
X001652Y019533D01*
X001703Y019836D02*
Y019634D01*
X001501Y019836D01*
X00145D01*
X0014Y019785D01*
Y019684D01*
X00145Y019634D01*
X001703Y020139D02*
Y019937D01*
X001501Y020139D01*
X00145D01*
X0014Y020088D01*
Y019987D01*
X00145Y019937D01*
X008202Y020035D02*
X008152Y019984D01*
Y019883D01*
X008202Y019833D01*
X008404D01*
X008455Y019883D01*
Y019984D01*
X008404Y020035D01*
X008455Y020338D02*
Y020136D01*
X008253Y020338D01*
X008202D01*
X008152Y020287D01*
Y020186D01*
X008202Y020136D01*
X008455Y020439D02*
Y02054D01*
Y020489D01*
X008152D01*
X008202Y020439D01*
X002124Y015607D02*
X002074Y015657D01*
X001973D01*
X001922Y015607D01*
Y015405D01*
X001973Y015354D01*
X002074D01*
X002124Y015405D01*
X002427Y015354D02*
X002225D01*
X002427Y015556D01*
Y015607D01*
X002377Y015657D01*
X002276D01*
X002225Y015607D01*
X002528D02*
X002578Y015657D01*
X002679D01*
X00273Y015607D01*
Y015405D01*
X002679Y015354D01*
X002578D01*
X002528Y015405D01*
Y015607D01*
X008831Y015735D02*
X00878Y015785D01*
X008679D01*
X008629Y015735D01*
Y015533D01*
X008679Y015482D01*
X00878D01*
X008831Y015533D01*
X008932Y015482D02*
X009033D01*
X008982D01*
Y015785D01*
X008932Y015735D01*
X009184Y015533D02*
X009235Y015482D01*
X009336D01*
X009386Y015533D01*
Y015735D01*
X009336Y015785D01*
X009235D01*
X009184Y015735D01*
Y015684D01*
X009235Y015634D01*
X009386D01*
X010605Y036767D02*
X010555Y036817D01*
X010454D01*
X010403Y036767D01*
Y036565D01*
X010454Y036514D01*
X010555D01*
X010605Y036565D01*
X010706Y036514D02*
X010807D01*
X010757D01*
Y036817D01*
X010706Y036767D01*
X010959D02*
X011009Y036817D01*
X01111D01*
X011161Y036767D01*
Y036565D01*
X01111Y036514D01*
X011009D01*
X010959Y036565D01*
Y036767D01*
X014792Y036768D02*
X014741Y036818D01*
X01464D01*
X01459Y036768D01*
Y036566D01*
X01464Y036515D01*
X014741D01*
X014792Y036566D01*
X014893D02*
X014943Y036515D01*
X015044D01*
X015095Y036566D01*
Y036768D01*
X015044Y036818D01*
X014943D01*
X014893Y036768D01*
Y036717D01*
X014943Y036667D01*
X015095D01*
X014025Y041243D02*
X013975Y041294D01*
X013874D01*
X013823Y041243D01*
Y041041D01*
X013874Y040991D01*
X013975D01*
X014025Y041041D01*
X014278Y040991D02*
Y041294D01*
X014126Y041142D01*
X014328D01*
X008549Y041252D02*
X008499Y041302D01*
X008398D01*
X008347Y041252D01*
Y04105D01*
X008398Y040999D01*
X008499D01*
X008549Y04105D01*
X00865Y041252D02*
X008701Y041302D01*
X008802D01*
X008852Y041252D01*
Y041201D01*
X008802Y041151D01*
X008751D01*
X008802D01*
X008852Y0411D01*
Y04105D01*
X008802Y040999D01*
X008701D01*
X00865Y04105D01*
X00855Y037322D02*
X008499Y037372D01*
X008398D01*
X008348Y037322D01*
Y03712D01*
X008398Y037069D01*
X008499D01*
X00855Y03712D01*
X008853Y037069D02*
X008651D01*
X008853Y037271D01*
Y037322D01*
X008802Y037372D01*
X008701D01*
X008651Y037322D01*
X0022Y037381D02*
X002149Y037432D01*
X002048D01*
X001998Y037381D01*
Y037179D01*
X002048Y037129D01*
X002149D01*
X0022Y037179D01*
X002301Y037129D02*
X002402D01*
X002351D01*
Y037432D01*
X002301Y037381D01*
X046817Y033571D02*
Y033268D01*
X046969D01*
X047019Y033319D01*
Y033369D01*
X046969Y03342D01*
X046817D01*
X046969D01*
X047019Y03347D01*
Y033521D01*
X046969Y033571D01*
X046817D01*
X047322Y033268D02*
X04712D01*
X047322Y03347D01*
Y033521D01*
X047272Y033571D01*
X047171D01*
X04712Y033521D01*
X046817Y029807D02*
Y029504D01*
X046969D01*
X047019Y029555D01*
Y029605D01*
X046969Y029656D01*
X046817D01*
X046969D01*
X047019Y029706D01*
Y029757D01*
X046969Y029807D01*
X046817D01*
X04712Y029504D02*
X047221D01*
X047171D01*
Y029807D01*
X04712Y029757D01*
X046819Y026045D02*
Y025742D01*
X04697D01*
X047021Y025792D01*
Y025843D01*
X04697Y025893D01*
X046819D01*
X04697D01*
X047021Y025944D01*
Y025994D01*
X04697Y026045D01*
X046819D01*
X047122Y025994D02*
X047172Y026045D01*
X047273D01*
X047324Y025994D01*
Y025792D01*
X047273Y025742D01*
X047172D01*
X047122Y025792D01*
Y025994D01*
X019646Y038386D02*
Y038689D01*
X019797D01*
X019848Y038638D01*
Y038537D01*
X019797Y038487D01*
X019646D01*
X019949Y038386D02*
X02005D01*
X019999D01*
Y038689D01*
X019949Y038638D01*
X020353Y038386D02*
Y038689D01*
X020201Y038537D01*
X020403D01*
X019577Y041329D02*
Y041632D01*
X019728D01*
X019779Y041581D01*
Y04148D01*
X019728Y04143D01*
X019577D01*
X020031Y041329D02*
Y041632D01*
X01988Y04148D01*
X020082D01*
X029239Y039369D02*
Y039066D01*
X029441D01*
X029744Y039319D02*
X029693Y039369D01*
X029592D01*
X029542Y039319D01*
Y039117D01*
X029592Y039066D01*
X029693D01*
X029744Y039117D01*
X029845Y039369D02*
Y039066D01*
X029996D01*
X030047Y039117D01*
Y039319D01*
X029996Y039369D01*
X029845D01*
X030148Y039066D02*
X030249D01*
X030198D01*
Y039369D01*
X030148Y039319D01*
D51*
X004311Y023945D02*
X004412D01*
X004362D01*
Y023642D01*
X004311D01*
X004412D01*
X004766Y023894D02*
X004715Y023945D01*
X004614D01*
X004564Y023894D01*
Y023692D01*
X004614Y023642D01*
X004715D01*
X004766Y023692D01*
X005069Y023945D02*
X004867D01*
Y023793D01*
X004968Y023844D01*
X005018D01*
X005069Y023793D01*
Y023692D01*
X005018Y023642D01*
X004917D01*
X004867Y023692D01*
M02*
