G04 Layer_Color=255*
%FSTAX24Y24*%
%MOIN*%
G70*
G01*
G75*
%ADD10R,0.0394X0.0945*%
%ADD11R,0.1299X0.0945*%
%ADD12O,0.0768X0.0236*%
%ADD13R,0.0550X0.0500*%
%ADD14R,0.0500X0.0550*%
%ADD15R,0.0551X0.0236*%
%ADD16R,0.0591X0.1024*%
%ADD17R,0.1024X0.0591*%
%ADD18R,0.0591X0.0965*%
%ADD19R,0.0315X0.0630*%
%ADD20O,0.0118X0.0807*%
%ADD21O,0.0807X0.0118*%
%ADD25R,0.0591X0.0591*%
%ADD26C,0.0591*%
%ADD27R,0.1000X0.1600*%
%ADD28R,0.1600X0.1000*%
%ADD29P,0.1705X8X22.5*%
%ADD30C,0.0787*%
%ADD31R,0.0591X0.0591*%
%ADD32O,0.0787X0.0591*%
%ADD33O,0.0630X0.0787*%
%ADD34O,0.0600X0.1000*%
G04:AMPARAMS|DCode=35|XSize=100mil|YSize=60mil|CornerRadius=0mil|HoleSize=0mil|Usage=FLASHONLY|Rotation=90.000|XOffset=0mil|YOffset=0mil|HoleType=Round|Shape=Octagon|*
%AMOCTAGOND35*
4,1,8,0.0150,0.0500,-0.0150,0.0500,-0.0300,0.0350,-0.0300,-0.0350,-0.0150,-0.0500,0.0150,-0.0500,0.0300,-0.0350,0.0300,0.0350,0.0150,0.0500,0.0*
%
%ADD35OCTAGOND35*%

%ADD36P,0.1705X8X292.5*%
D10*
X012697Y040837D02*
D03*
X011791D02*
D03*
X010886D02*
D03*
D11*
X011791Y038553D02*
D03*
D12*
X013711Y034683D02*
D03*
Y035183D02*
D03*
Y035683D02*
D03*
Y036183D02*
D03*
X011703Y034683D02*
D03*
Y035183D02*
D03*
Y035683D02*
D03*
Y036183D02*
D03*
X025984Y017864D02*
D03*
Y018364D02*
D03*
Y018864D02*
D03*
Y019364D02*
D03*
X023976Y017864D02*
D03*
Y018364D02*
D03*
Y018864D02*
D03*
Y019364D02*
D03*
X019245Y017864D02*
D03*
Y018364D02*
D03*
Y018864D02*
D03*
Y019364D02*
D03*
X017238Y017864D02*
D03*
Y018364D02*
D03*
Y018864D02*
D03*
Y019364D02*
D03*
X005768Y017864D02*
D03*
Y018364D02*
D03*
Y018864D02*
D03*
Y019364D02*
D03*
X00376Y017864D02*
D03*
Y018364D02*
D03*
Y018864D02*
D03*
Y019364D02*
D03*
X00689Y03489D02*
D03*
Y03539D02*
D03*
Y03589D02*
D03*
Y03639D02*
D03*
X004882Y03489D02*
D03*
Y03539D02*
D03*
Y03589D02*
D03*
Y03639D02*
D03*
X012507Y017864D02*
D03*
Y018364D02*
D03*
Y018864D02*
D03*
Y019364D02*
D03*
X010499Y017864D02*
D03*
Y018364D02*
D03*
Y018864D02*
D03*
Y019364D02*
D03*
X019245Y024427D02*
D03*
Y024927D02*
D03*
Y025427D02*
D03*
Y025927D02*
D03*
X017238Y024427D02*
D03*
Y024927D02*
D03*
Y025427D02*
D03*
Y025927D02*
D03*
X00376D02*
D03*
Y025427D02*
D03*
Y024927D02*
D03*
Y024427D02*
D03*
X005768Y025927D02*
D03*
Y025427D02*
D03*
Y024927D02*
D03*
Y024427D02*
D03*
D13*
X047656Y02075D02*
D03*
Y02165D02*
D03*
X049242Y020758D02*
D03*
Y021658D02*
D03*
X047666Y018883D02*
D03*
Y017983D02*
D03*
X049242Y018893D02*
D03*
Y017993D02*
D03*
X047718Y015218D02*
D03*
Y016118D02*
D03*
X049252Y015226D02*
D03*
Y016126D02*
D03*
X047728Y013369D02*
D03*
Y012469D02*
D03*
X049242Y013379D02*
D03*
Y012479D02*
D03*
X02752Y017847D02*
D03*
Y018747D02*
D03*
X027539Y019583D02*
D03*
Y020483D02*
D03*
X02247Y019583D02*
D03*
Y020483D02*
D03*
Y018757D02*
D03*
Y017857D02*
D03*
X007234Y01958D02*
D03*
Y02048D02*
D03*
Y017847D02*
D03*
Y018747D02*
D03*
X015679Y019583D02*
D03*
Y020483D02*
D03*
X015669Y018757D02*
D03*
Y017857D02*
D03*
X020856Y017847D02*
D03*
Y018747D02*
D03*
Y01958D02*
D03*
Y02048D02*
D03*
X014892Y035928D02*
D03*
Y035028D02*
D03*
X010707Y035928D02*
D03*
Y035028D02*
D03*
X042589Y025672D02*
D03*
Y026572D02*
D03*
X031644Y027832D02*
D03*
Y026932D02*
D03*
X033217D02*
D03*
Y027832D02*
D03*
X051555Y023728D02*
D03*
Y024628D02*
D03*
X051417Y027655D02*
D03*
Y028555D02*
D03*
X051299Y031248D02*
D03*
Y032148D02*
D03*
X007224Y023971D02*
D03*
Y023071D02*
D03*
X007234Y025291D02*
D03*
Y026191D02*
D03*
X002234Y023971D02*
D03*
Y023071D02*
D03*
X052776Y024638D02*
D03*
Y023738D02*
D03*
X052677Y028565D02*
D03*
Y027665D02*
D03*
Y032158D02*
D03*
Y031258D02*
D03*
X002234Y026201D02*
D03*
Y025301D02*
D03*
X020846Y023971D02*
D03*
Y023071D02*
D03*
X020856Y025291D02*
D03*
Y026191D02*
D03*
X015669Y023971D02*
D03*
Y023071D02*
D03*
Y026201D02*
D03*
Y025301D02*
D03*
X002234Y018757D02*
D03*
Y017857D02*
D03*
X008976Y018757D02*
D03*
Y017857D02*
D03*
X008957Y01958D02*
D03*
Y02048D02*
D03*
X014045Y017847D02*
D03*
Y018747D02*
D03*
X014065Y019583D02*
D03*
Y020483D02*
D03*
X051654Y035195D02*
D03*
Y036095D02*
D03*
X052648Y036105D02*
D03*
Y035205D02*
D03*
X002244Y01958D02*
D03*
Y02048D02*
D03*
D14*
X017805Y023081D02*
D03*
X016905D02*
D03*
X018868Y021811D02*
D03*
X019768D02*
D03*
X016895Y021791D02*
D03*
X017795D02*
D03*
X023519Y021811D02*
D03*
X024419D02*
D03*
X02561Y021821D02*
D03*
X02651D02*
D03*
X0256Y020463D02*
D03*
X0265D02*
D03*
X023519D02*
D03*
X024419D02*
D03*
X018868D02*
D03*
X019768D02*
D03*
X016895D02*
D03*
X017795D02*
D03*
X02651Y01562D02*
D03*
X02561D02*
D03*
X0256Y016654D02*
D03*
X0265D02*
D03*
X023519Y01561D02*
D03*
X024419D02*
D03*
X023519Y016654D02*
D03*
X024419D02*
D03*
X018868D02*
D03*
X019768D02*
D03*
X019778Y01562D02*
D03*
X018878D02*
D03*
X016895Y01561D02*
D03*
X017795D02*
D03*
X016895Y016654D02*
D03*
X017795D02*
D03*
X040557Y032697D02*
D03*
X039657D02*
D03*
X036667Y032687D02*
D03*
X037567D02*
D03*
X035308Y018041D02*
D03*
X036208D02*
D03*
X038117Y018061D02*
D03*
X037217D02*
D03*
X008892Y030153D02*
D03*
X007992D02*
D03*
X011594Y042087D02*
D03*
X010694D02*
D03*
X008892Y033104D02*
D03*
X007992D02*
D03*
X010687Y03752D02*
D03*
X011587D02*
D03*
X008892Y031652D02*
D03*
X007992D02*
D03*
X011028Y033104D02*
D03*
X010128D02*
D03*
X010084Y031683D02*
D03*
X010984D02*
D03*
X013006Y023091D02*
D03*
X012106D02*
D03*
X01093D02*
D03*
X01003D02*
D03*
X012096Y025699D02*
D03*
X012996D02*
D03*
X01093Y025719D02*
D03*
X01003D02*
D03*
X031624Y030772D02*
D03*
X032524D02*
D03*
X012096Y02439D02*
D03*
X012996D02*
D03*
X01002D02*
D03*
X01092D02*
D03*
X02651Y023091D02*
D03*
X02561D02*
D03*
X024429D02*
D03*
X023529D02*
D03*
X0256Y025689D02*
D03*
X0265D02*
D03*
X024429Y025719D02*
D03*
X023529D02*
D03*
X0256Y02439D02*
D03*
X0265D02*
D03*
X023519D02*
D03*
X024419D02*
D03*
X005816Y030153D02*
D03*
X006716D02*
D03*
X005835Y033104D02*
D03*
X006735D02*
D03*
X006152Y01562D02*
D03*
X005252D02*
D03*
X005242Y016654D02*
D03*
X006142D02*
D03*
X003332Y01561D02*
D03*
X004232D02*
D03*
X003332Y016654D02*
D03*
X004232D02*
D03*
X003332Y020472D02*
D03*
X004232D02*
D03*
X005242D02*
D03*
X006142D02*
D03*
X01002Y016654D02*
D03*
X01092D02*
D03*
X01002Y01561D02*
D03*
X01092D02*
D03*
X013006Y01562D02*
D03*
X012106D02*
D03*
X012096Y016654D02*
D03*
X012996D02*
D03*
X01002Y020463D02*
D03*
X01092D02*
D03*
X012096D02*
D03*
X012996D02*
D03*
X01003Y021782D02*
D03*
X01093D02*
D03*
X012106D02*
D03*
X013006D02*
D03*
X05578Y008169D02*
D03*
X05488D02*
D03*
X052177D02*
D03*
X051277D02*
D03*
X048575D02*
D03*
X047675D02*
D03*
X044973D02*
D03*
X044073D02*
D03*
X04137D02*
D03*
X04047D02*
D03*
X037768D02*
D03*
X036868D02*
D03*
X034166D02*
D03*
X033266D02*
D03*
X030563D02*
D03*
X029663D02*
D03*
X019778Y023081D02*
D03*
X018878D02*
D03*
X032534Y024163D02*
D03*
X031634D02*
D03*
X031624Y022953D02*
D03*
X032524D02*
D03*
X005249Y021782D02*
D03*
X006149D02*
D03*
X00333Y021772D02*
D03*
X00423D02*
D03*
X006159Y023091D02*
D03*
X005259D02*
D03*
X004242D02*
D03*
X003342D02*
D03*
X005816Y031652D02*
D03*
X006716D02*
D03*
D15*
X029734Y007333D02*
D03*
Y006585D02*
D03*
X030482Y006959D02*
D03*
X033337Y007333D02*
D03*
Y006585D02*
D03*
X034085Y006959D02*
D03*
X036939Y007333D02*
D03*
Y006585D02*
D03*
X037687Y006959D02*
D03*
X040541Y007333D02*
D03*
Y006585D02*
D03*
X041289Y006959D02*
D03*
X044144Y007333D02*
D03*
Y006585D02*
D03*
X044892Y006959D02*
D03*
X047746Y007333D02*
D03*
Y006585D02*
D03*
X048494Y006959D02*
D03*
X051348Y007333D02*
D03*
Y006585D02*
D03*
X052096Y006959D02*
D03*
X054951Y007333D02*
D03*
Y006585D02*
D03*
X055699Y006959D02*
D03*
D16*
X032962Y02935D02*
D03*
X031781D02*
D03*
X032962Y025591D02*
D03*
X031781D02*
D03*
D17*
X002654Y035207D02*
D03*
Y036388D02*
D03*
X009006Y035148D02*
D03*
Y036329D02*
D03*
Y039075D02*
D03*
Y040256D02*
D03*
X014478Y039065D02*
D03*
Y040246D02*
D03*
D18*
X01627Y038819D02*
D03*
Y040335D02*
D03*
D19*
X034587Y030763D02*
D03*
X033327D02*
D03*
D20*
X040787Y027549D02*
D03*
X040591D02*
D03*
X040394D02*
D03*
X040197D02*
D03*
X04D02*
D03*
X039803D02*
D03*
X039606D02*
D03*
X039409D02*
D03*
X039213D02*
D03*
X039016D02*
D03*
X038819D02*
D03*
X038622D02*
D03*
X038425D02*
D03*
X038228D02*
D03*
X038031D02*
D03*
X037835D02*
D03*
X037638D02*
D03*
X037441D02*
D03*
X037244D02*
D03*
X037047D02*
D03*
X03685D02*
D03*
X036654D02*
D03*
X036457D02*
D03*
X03626D02*
D03*
X036063D02*
D03*
Y021545D02*
D03*
X03626D02*
D03*
X036457D02*
D03*
X036654D02*
D03*
X03685D02*
D03*
X037047D02*
D03*
X037244D02*
D03*
X037441D02*
D03*
X037638D02*
D03*
X037835D02*
D03*
X038031D02*
D03*
X038228D02*
D03*
X038425D02*
D03*
X038622D02*
D03*
X038819D02*
D03*
X039016D02*
D03*
X039213D02*
D03*
X039409D02*
D03*
X039606D02*
D03*
X039803D02*
D03*
X04D02*
D03*
X040197D02*
D03*
X040394D02*
D03*
X040591D02*
D03*
X040787D02*
D03*
D21*
X035423Y026909D02*
D03*
Y026713D02*
D03*
Y026516D02*
D03*
Y026319D02*
D03*
Y026122D02*
D03*
Y025925D02*
D03*
Y025728D02*
D03*
Y025531D02*
D03*
Y025335D02*
D03*
Y025138D02*
D03*
Y024941D02*
D03*
Y024744D02*
D03*
Y024547D02*
D03*
Y02435D02*
D03*
Y024154D02*
D03*
Y023957D02*
D03*
Y02376D02*
D03*
Y023563D02*
D03*
Y023366D02*
D03*
Y023169D02*
D03*
Y022972D02*
D03*
Y022776D02*
D03*
Y022579D02*
D03*
Y022382D02*
D03*
Y022185D02*
D03*
X041427D02*
D03*
Y022382D02*
D03*
Y022579D02*
D03*
Y022776D02*
D03*
Y022972D02*
D03*
Y023169D02*
D03*
Y023366D02*
D03*
Y023563D02*
D03*
Y02376D02*
D03*
Y023957D02*
D03*
Y024154D02*
D03*
Y02435D02*
D03*
Y024547D02*
D03*
Y024744D02*
D03*
Y024941D02*
D03*
Y025138D02*
D03*
Y025335D02*
D03*
Y025531D02*
D03*
Y025728D02*
D03*
Y025925D02*
D03*
Y026122D02*
D03*
Y026319D02*
D03*
Y026516D02*
D03*
Y026713D02*
D03*
Y026909D02*
D03*
D25*
X021014Y034321D02*
D03*
X005262Y027096D02*
D03*
X020014Y037638D02*
D03*
X055825Y004705D02*
D03*
X052222D02*
D03*
X04862D02*
D03*
X045018D02*
D03*
X041415D02*
D03*
X037813D02*
D03*
X052929Y009843D02*
D03*
X045841Y009793D02*
D03*
X038715Y009862D02*
D03*
X034211Y004705D02*
D03*
X030608D02*
D03*
X031535Y009764D02*
D03*
X012003Y027096D02*
D03*
X018741D02*
D03*
X02548D02*
D03*
X020314Y039695D02*
D03*
X038623Y013269D02*
D03*
X041123Y037969D02*
D03*
D26*
X020014Y034321D02*
D03*
X004262Y027096D02*
D03*
X021014Y037638D02*
D03*
X022014D02*
D03*
X023014D02*
D03*
X024014D02*
D03*
X054825Y004705D02*
D03*
X051222D02*
D03*
X04762D02*
D03*
X044018D02*
D03*
X040415D02*
D03*
X036813D02*
D03*
X053929Y009843D02*
D03*
X046841Y009793D02*
D03*
X039715Y009862D02*
D03*
X033211Y004705D02*
D03*
X029608D02*
D03*
X032535Y009764D02*
D03*
X003485Y030126D02*
D03*
X002485D02*
D03*
X003485Y031126D02*
D03*
X002485D02*
D03*
X003485Y032126D02*
D03*
X002485D02*
D03*
X003485Y033126D02*
D03*
X011003Y027096D02*
D03*
X017741D02*
D03*
X02448D02*
D03*
X023463Y040482D02*
D03*
Y039695D02*
D03*
X022676Y040482D02*
D03*
Y039695D02*
D03*
X021889Y040482D02*
D03*
Y039695D02*
D03*
X021101Y040482D02*
D03*
Y039695D02*
D03*
X020314Y040482D02*
D03*
X037623Y013269D02*
D03*
X036623D02*
D03*
X035623D02*
D03*
X034123Y037969D02*
D03*
X035123D02*
D03*
X036123D02*
D03*
X037123D02*
D03*
X038123D02*
D03*
X039123D02*
D03*
X040123D02*
D03*
X033123D02*
D03*
D27*
X004902Y040285D02*
D03*
X002402D02*
D03*
D28*
X003902Y038285D02*
D03*
D29*
X056585Y043543D02*
D03*
X001417Y001398D02*
D03*
X056585D02*
D03*
X001417Y043543D02*
D03*
X043823Y037569D02*
D03*
X030423Y013474D02*
D03*
D30*
X049961Y023287D02*
D03*
X047205Y025059D02*
D03*
Y023287D02*
D03*
X049961Y025059D02*
D03*
Y027052D02*
D03*
X047205Y028824D02*
D03*
Y027052D02*
D03*
X049961Y028824D02*
D03*
Y030817D02*
D03*
X047205Y032589D02*
D03*
Y030817D02*
D03*
X049961Y032589D02*
D03*
Y034764D02*
D03*
X047205Y036535D02*
D03*
Y034764D02*
D03*
X049961Y036535D02*
D03*
D31*
X002485Y033126D02*
D03*
D32*
X009553Y004594D02*
D03*
Y005594D02*
D03*
Y006594D02*
D03*
X013453Y004594D02*
D03*
Y005595D02*
D03*
Y006594D02*
D03*
X002814Y004594D02*
D03*
Y005594D02*
D03*
Y006594D02*
D03*
X006714Y004594D02*
D03*
Y005595D02*
D03*
Y006594D02*
D03*
X013003Y011344D02*
D03*
Y012344D02*
D03*
Y013344D02*
D03*
Y014344D02*
D03*
X010003D02*
D03*
Y013344D02*
D03*
Y012344D02*
D03*
Y011344D02*
D03*
X006264D02*
D03*
Y012344D02*
D03*
Y013344D02*
D03*
Y014344D02*
D03*
X003264D02*
D03*
Y013344D02*
D03*
Y012344D02*
D03*
Y011344D02*
D03*
X02303Y004594D02*
D03*
Y005594D02*
D03*
Y006594D02*
D03*
X02693Y004594D02*
D03*
Y005595D02*
D03*
Y006594D02*
D03*
X016291Y004594D02*
D03*
Y005594D02*
D03*
Y006594D02*
D03*
X020191Y004594D02*
D03*
Y005595D02*
D03*
Y006594D02*
D03*
X02648Y011344D02*
D03*
Y012344D02*
D03*
Y013344D02*
D03*
Y014344D02*
D03*
X02348D02*
D03*
Y013344D02*
D03*
Y012344D02*
D03*
Y011344D02*
D03*
X019741D02*
D03*
Y012344D02*
D03*
Y013344D02*
D03*
Y014344D02*
D03*
X016741D02*
D03*
Y013344D02*
D03*
Y012344D02*
D03*
Y011344D02*
D03*
D33*
X012528Y008878D02*
D03*
X011528D02*
D03*
X010528D02*
D03*
X005789D02*
D03*
X004789D02*
D03*
X003789D02*
D03*
X026005Y009026D02*
D03*
X025005D02*
D03*
X024005D02*
D03*
X019266Y009006D02*
D03*
X018266D02*
D03*
X017266D02*
D03*
D34*
X039533Y030787D02*
D03*
D35*
X037549D02*
D03*
D36*
X030423Y037569D02*
D03*
X043823Y013474D02*
D03*
M02*
