M48
;Layer_Color=9474304
;FILE_FORMAT=2:4
INCH,LZ
;TYPE=PLATED
T1F00S00C0.0236
T2F00S00C0.0315
T3F00S00C0.0340
T4F00S00C0.0354
T5F00S00C0.0394
T7F00S00C0.1181
T8F00S00C0.1260
%
T01
X008199Y004724
X01497
X021516
X028228
X028937Y003711
X031646Y006959
X035364
X038898Y006959
X04253Y006959
X046161Y006959
X049658Y006959
X053261
X05688Y006959
X046791Y018868
X046102Y019813
X042697Y020778
X040238Y019705
X039429
X038632
X039016Y019085
X039843
X04063
X04063Y018553
X040238Y017116
X039429
X039833Y016654
X041634Y016614
Y01562
Y014793
X039203Y014301
X044724Y023199
X04438Y023976
X046565Y02436
X037106Y022707
X034518Y022756
X034104Y021801
X034065Y020374
X035984Y019705
X036949
X037835
X038258Y019085
X037411
X036407
X035581
X037382Y016634
X038366Y017028
X037933Y014282
X02747Y017264
X026732Y017776
Y018868
X025984Y019852
X027028Y021201
X026506Y022451
X027057Y02373
X023159Y019577
X023297Y018967
X023287Y017382
X024144Y017372
X02248Y016654
X020748Y017274
X020049Y017874
X020039Y018858
X019272Y019882
X020276Y021171
X019774Y022382
X020148Y024429
X02253Y023091
X022461Y021781
Y021171
X021399Y020493
X016362Y019364
X016368Y017352
X017382Y017402
X014075Y017244
X013327Y017854
X013307Y018878
X01249Y019839
X013573Y02123
X012992Y022382
X013583Y023681
X01565Y021772
Y021171
X008967
X008948Y021781
X008976Y023091
X007874Y020482
X009567Y019547
X009774Y018986
X009764Y017303
X010478Y01748
X008996Y016654
X007146Y017244
X006555Y017835
X006535Y018878
X005768Y019813
X006693Y02123
X006083Y022451
X006516Y024419
X002264Y021772
Y021171
X002943Y019364
X002933Y017352
X003839Y017411
X006516Y024931
Y025423
X006604Y027835
X005768Y032431
X009537Y031703
X012598Y031663
X012185Y032313
X011722Y033976
X012953Y030719
X013287Y030157
X011713Y029419
X011506Y025699
X010886Y025049
X008957Y025354
X008337Y025787
X013593Y025679
X020148Y025443
Y024931
X021772Y025837
X02248Y025443
X019734Y027835
X01875Y02998
X017746
X017372Y036358
Y040128
X013435Y039075
X011782Y039793
X010138Y039075
X007646Y03639
X021024Y036181
Y036929
X027451Y031722
X030453Y030915
X031024Y027382
X030453Y026378
X030059Y025925
X029045Y027057
X027096Y025699
X02501Y025709
X024449Y025069
X025472Y02876
X034065Y027795
X033858Y02689
X034203Y026368
X033858Y025925
X034203Y025522
X033848Y025128
X034232Y024695
X034419Y029508
X034872Y029094
X035295Y029498
X035797Y029114
X036539Y029071
X037264Y029104
X038031
X037667Y029537
X036201Y029528
X03622Y0319
X03562Y032825
X034567Y032943
X034577Y03437
X03562Y034045
X038051Y03439
Y036171
X040669Y037106
X041331Y037394
X0425Y037028
X042894Y03438
X044341Y026604
X04063Y02627
X039715Y02624
X052677Y034163
X021939Y041388
X014478Y041083
T02
X003789Y008878
X004789
X005789
X010528
X011528
X012528
X017266Y009006
X018266
X019266
X024005Y009026
X025005
X026005
X037549Y030787
X039533
T03
X002814Y004594
Y005594
Y006594
X006714
Y004594
X009553
Y005594
Y006594
X013453
Y004594
X016291
Y005594
Y006594
X020191
Y004594
X02303
Y005594
Y006594
X02693
Y004594
X02648Y011344
Y012344
Y013344
Y014344
X02348
Y013344
Y012344
Y011344
X019741
Y012344
Y013344
Y014344
X016741
Y013344
Y012344
Y011344
X013003
Y012344
Y013344
Y014344
X010003
Y013344
Y012344
Y011344
X006264
Y012344
Y013344
Y014344
X003264
Y013344
Y012344
Y011344
T04
X029608Y004705
X030608
X033211
X034211
X036813
X037813
X040415
X041415
X044018
X045018
X04762
X04862
X051222
X052222
X054825
X055825
X053929Y009843
X052929
X046841Y009793
X045841
X039715Y009862
X038715
X038623Y013269
X037623
X036623
X035623
X032535Y009764
X031535
X005262Y027096
X004262
X003485Y030126
X002485
Y031126
X003485
Y032126
X002485
Y033126
X003485
X011003Y027096
X012003
X017741
X018741
X020014Y034321
X021014
Y037638
X020014
X022014
X021889Y039695
X021101
X020314
X022676
X023463
X023014Y037638
X024014
X033123Y037969
X034123
X035123
X036123
X037123
X038123
X02548Y027096
X02448
X039123Y037969
X040123
X041123
X023463Y040482
X022676
X021889
X021101
X020314
T05
X047205Y023287
X049961
Y025059
Y027052
Y028824
Y030817
Y032589
Y034764
Y036535
X047205
Y034764
Y032589
Y030817
Y028824
Y027052
Y025059
T07
X001417Y001398
X056585
Y043543
X001417
T08
X043823Y013474
X030423
Y037569
X043823
M30
