G04 Layer_Color=16711935*
%FSTAX24Y24*%
%MOIN*%
G70*
G01*
G75*
%ADD56R,0.0580X0.0630*%
%ADD64R,0.0671X0.0671*%
%ADD65C,0.0671*%
%ADD66R,0.1080X0.1680*%
%ADD67R,0.1680X0.1080*%
%ADD68P,0.1791X8X22.5*%
%ADD69C,0.0867*%
%ADD70R,0.0671X0.0671*%
%ADD71O,0.0867X0.0671*%
%ADD72O,0.0710X0.0867*%
%ADD73O,0.0680X0.1080*%
G04:AMPARAMS|DCode=74|XSize=108mil|YSize=68mil|CornerRadius=0mil|HoleSize=0mil|Usage=FLASHONLY|Rotation=90.000|XOffset=0mil|YOffset=0mil|HoleType=Round|Shape=Octagon|*
%AMOCTAGOND74*
4,1,8,0.0170,0.0540,-0.0170,0.0540,-0.0340,0.0370,-0.0340,-0.0370,-0.0170,-0.0540,0.0170,-0.0540,0.0340,-0.0370,0.0340,0.0370,0.0170,0.0540,0.0*
%
%ADD74OCTAGOND74*%

%ADD75P,0.1791X8X292.5*%
%ADD76C,0.0474*%
%ADD77R,0.1045X0.0671*%
D56*
X011958Y014339D02*
D03*
X011058D02*
D03*
X011958Y012339D02*
D03*
X011058D02*
D03*
X005219D02*
D03*
X004319D02*
D03*
X011948Y005599D02*
D03*
X011048D02*
D03*
X005219Y005589D02*
D03*
X004319D02*
D03*
X005219Y014339D02*
D03*
X004319D02*
D03*
X025435Y012339D02*
D03*
X024535D02*
D03*
X018696D02*
D03*
X017796D02*
D03*
X025425Y005599D02*
D03*
X024525D02*
D03*
X018696Y005589D02*
D03*
X017796D02*
D03*
X025435Y014339D02*
D03*
X024535D02*
D03*
X018696D02*
D03*
X017796D02*
D03*
X037955Y025551D02*
D03*
X038855D02*
D03*
X037104Y023396D02*
D03*
X036204D02*
D03*
X037104Y024498D02*
D03*
X036204D02*
D03*
X037104Y025541D02*
D03*
X036204D02*
D03*
X040627Y023396D02*
D03*
X039727D02*
D03*
X040627Y024498D02*
D03*
X039727D02*
D03*
X040627Y025541D02*
D03*
X039727D02*
D03*
X037955Y023406D02*
D03*
X038855D02*
D03*
X037955Y024508D02*
D03*
X038855D02*
D03*
D64*
X021014Y034321D02*
D03*
X005262Y027096D02*
D03*
X020014Y037638D02*
D03*
X055825Y004705D02*
D03*
X052222D02*
D03*
X04862D02*
D03*
X045018D02*
D03*
X041415D02*
D03*
X037813D02*
D03*
X052929Y009843D02*
D03*
X045841Y009793D02*
D03*
X038715Y009862D02*
D03*
X034211Y004705D02*
D03*
X030608D02*
D03*
X031535Y009764D02*
D03*
X012003Y027096D02*
D03*
X018741D02*
D03*
X02548D02*
D03*
X020314Y039695D02*
D03*
X038623Y013269D02*
D03*
X041123Y037969D02*
D03*
D65*
X020014Y034321D02*
D03*
X004262Y027096D02*
D03*
X021014Y037638D02*
D03*
X022014D02*
D03*
X023014D02*
D03*
X024014D02*
D03*
X054825Y004705D02*
D03*
X051222D02*
D03*
X04762D02*
D03*
X044018D02*
D03*
X040415D02*
D03*
X036813D02*
D03*
X053929Y009843D02*
D03*
X046841Y009793D02*
D03*
X039715Y009862D02*
D03*
X033211Y004705D02*
D03*
X029608D02*
D03*
X032535Y009764D02*
D03*
X003485Y030126D02*
D03*
X002485D02*
D03*
X003485Y031126D02*
D03*
X002485D02*
D03*
X003485Y032126D02*
D03*
X002485D02*
D03*
X003485Y033126D02*
D03*
X011003Y027096D02*
D03*
X017741D02*
D03*
X02448D02*
D03*
X023463Y040482D02*
D03*
Y039695D02*
D03*
X022676Y040482D02*
D03*
Y039695D02*
D03*
X021889Y040482D02*
D03*
Y039695D02*
D03*
X021101Y040482D02*
D03*
Y039695D02*
D03*
X020314Y040482D02*
D03*
X037623Y013269D02*
D03*
X036623D02*
D03*
X035623D02*
D03*
X034123Y037969D02*
D03*
X035123D02*
D03*
X036123D02*
D03*
X037123D02*
D03*
X038123D02*
D03*
X039123D02*
D03*
X040123D02*
D03*
X033123D02*
D03*
D66*
X004902Y040285D02*
D03*
X002402D02*
D03*
D67*
X003902Y038285D02*
D03*
D68*
X056585Y043543D02*
D03*
X001417Y001398D02*
D03*
X056585D02*
D03*
X001417Y043543D02*
D03*
X043823Y037569D02*
D03*
X030423Y013474D02*
D03*
D69*
X049961Y023287D02*
D03*
X047205Y025059D02*
D03*
Y023287D02*
D03*
X049961Y025059D02*
D03*
Y027052D02*
D03*
X047205Y028824D02*
D03*
Y027052D02*
D03*
X049961Y028824D02*
D03*
Y030817D02*
D03*
X047205Y032589D02*
D03*
Y030817D02*
D03*
X049961Y032589D02*
D03*
Y034764D02*
D03*
X047205Y036535D02*
D03*
Y034764D02*
D03*
X049961Y036535D02*
D03*
D70*
X002485Y033126D02*
D03*
D71*
X009553Y004594D02*
D03*
Y005594D02*
D03*
Y006594D02*
D03*
X013453Y004594D02*
D03*
Y005595D02*
D03*
Y006594D02*
D03*
X002814Y004594D02*
D03*
Y005594D02*
D03*
Y006594D02*
D03*
X006714Y004594D02*
D03*
Y005595D02*
D03*
Y006594D02*
D03*
X013003Y011344D02*
D03*
Y012344D02*
D03*
Y013344D02*
D03*
Y014344D02*
D03*
X010003D02*
D03*
Y013344D02*
D03*
Y012344D02*
D03*
Y011344D02*
D03*
X006264D02*
D03*
Y012344D02*
D03*
Y013344D02*
D03*
Y014344D02*
D03*
X003264D02*
D03*
Y013344D02*
D03*
Y012344D02*
D03*
Y011344D02*
D03*
X02303Y004594D02*
D03*
Y005594D02*
D03*
Y006594D02*
D03*
X02693Y004594D02*
D03*
Y005595D02*
D03*
Y006594D02*
D03*
X016291Y004594D02*
D03*
Y005594D02*
D03*
Y006594D02*
D03*
X020191Y004594D02*
D03*
Y005595D02*
D03*
Y006594D02*
D03*
X02648Y011344D02*
D03*
Y012344D02*
D03*
Y013344D02*
D03*
Y014344D02*
D03*
X02348D02*
D03*
Y013344D02*
D03*
Y012344D02*
D03*
Y011344D02*
D03*
X019741D02*
D03*
Y012344D02*
D03*
Y013344D02*
D03*
Y014344D02*
D03*
X016741D02*
D03*
Y013344D02*
D03*
Y012344D02*
D03*
Y011344D02*
D03*
D72*
X012528Y008878D02*
D03*
X011528D02*
D03*
X010528D02*
D03*
X005789D02*
D03*
X004789D02*
D03*
X003789D02*
D03*
X026005Y009026D02*
D03*
X025005D02*
D03*
X024005D02*
D03*
X019266Y009006D02*
D03*
X018266D02*
D03*
X017266D02*
D03*
D73*
X039533Y030787D02*
D03*
D74*
X037549D02*
D03*
D75*
X030423Y037569D02*
D03*
X043823Y013474D02*
D03*
D76*
X021939Y041388D02*
D03*
X021024Y036181D02*
D03*
Y036929D02*
D03*
X010138Y039075D02*
D03*
X013435D02*
D03*
X03562Y034045D02*
D03*
Y032825D02*
D03*
X041331Y037394D02*
D03*
X040669Y037106D02*
D03*
X0425Y037028D02*
D03*
X034518Y022756D02*
D03*
X017372Y040128D02*
D03*
Y036358D02*
D03*
X036201Y029528D02*
D03*
X037264Y029104D02*
D03*
X038031D02*
D03*
X030453Y026378D02*
D03*
X030059Y025925D02*
D03*
X036539Y029071D02*
D03*
X035295Y029498D02*
D03*
X035797Y029114D02*
D03*
X034872Y029094D02*
D03*
X034419Y029508D02*
D03*
X037933Y014282D02*
D03*
X039203Y014301D02*
D03*
X037382Y016634D02*
D03*
X041634Y016614D02*
D03*
X039429Y017116D02*
D03*
X039833Y016654D02*
D03*
X040238Y017116D02*
D03*
X046791Y018868D02*
D03*
X04063Y018553D02*
D03*
X037411Y019085D02*
D03*
X040238Y019705D02*
D03*
X035984D02*
D03*
X042697Y020778D02*
D03*
X041634Y014793D02*
D03*
Y01562D02*
D03*
X038366Y017028D02*
D03*
X038051Y036171D02*
D03*
Y03439D02*
D03*
X05688Y006959D02*
D03*
X053261Y006959D02*
D03*
X049658D02*
D03*
X046161Y006959D02*
D03*
X04253Y006959D02*
D03*
X038898Y006959D02*
D03*
X035364Y006959D02*
D03*
X031646D02*
D03*
X036407Y019085D02*
D03*
X036949Y019705D02*
D03*
X037835D02*
D03*
X038632D02*
D03*
X011722Y033976D02*
D03*
X008199Y004724D02*
D03*
X01497D02*
D03*
X020039Y018858D02*
D03*
X010478Y01748D02*
D03*
X008976Y023091D02*
D03*
X021399Y020493D02*
D03*
X005768Y019813D02*
D03*
X002943Y019364D02*
D03*
X002264Y021772D02*
D03*
Y021171D02*
D03*
X006516Y024419D02*
D03*
X02501Y025709D02*
D03*
X020148Y024429D02*
D03*
X024449Y025069D02*
D03*
X020148Y024931D02*
D03*
X02248Y025443D02*
D03*
X020148D02*
D03*
X019774Y022382D02*
D03*
X020276Y021171D02*
D03*
X020748Y017274D02*
D03*
X01565Y021772D02*
D03*
Y021171D02*
D03*
X017382Y017402D02*
D03*
X016362Y019364D02*
D03*
X016368Y017352D02*
D03*
X04063Y02627D02*
D03*
X011782Y039793D02*
D03*
X014478Y041083D02*
D03*
X007646Y03639D02*
D03*
X038258Y019085D02*
D03*
X039016D02*
D03*
X039429Y019705D02*
D03*
X039843Y019085D02*
D03*
X04063D02*
D03*
X035581D02*
D03*
X037667Y029537D02*
D03*
X034104Y021801D02*
D03*
X033848Y025128D02*
D03*
X034232Y024695D02*
D03*
X006535Y018878D02*
D03*
X006555Y017835D02*
D03*
X006693Y02123D02*
D03*
X006516Y024931D02*
D03*
X010886Y025049D02*
D03*
X006516Y025423D02*
D03*
X008957Y025354D02*
D03*
X011506Y025699D02*
D03*
X006083Y022451D02*
D03*
X008337Y025787D02*
D03*
X020049Y017874D02*
D03*
X013307Y018878D02*
D03*
X013327Y017854D02*
D03*
X008967Y021171D02*
D03*
X01249Y019839D02*
D03*
X013573Y02123D02*
D03*
X012992Y022382D02*
D03*
X009764Y017303D02*
D03*
X009774Y018986D02*
D03*
X009567Y019547D02*
D03*
X014075Y017244D02*
D03*
X008948Y021781D02*
D03*
X013583Y023681D02*
D03*
X013593Y025679D02*
D03*
X023159Y019577D02*
D03*
X023297Y018967D02*
D03*
X023287Y017382D02*
D03*
X02747Y017264D02*
D03*
X022461Y021781D02*
D03*
X026732Y018868D02*
D03*
Y017776D02*
D03*
X027028Y021201D02*
D03*
X027057Y02373D02*
D03*
X027096Y025699D02*
D03*
X02253Y023091D02*
D03*
X022461Y021171D02*
D03*
X025984Y019852D02*
D03*
X019272Y019882D02*
D03*
X026506Y022451D02*
D03*
X02248Y016654D02*
D03*
X008996D02*
D03*
X009537Y031703D02*
D03*
X005768Y032431D02*
D03*
X011713Y029419D02*
D03*
X002933Y017352D02*
D03*
X003839Y017411D02*
D03*
X021772Y025837D02*
D03*
X019734Y027835D02*
D03*
X024144Y017372D02*
D03*
X006604Y027835D02*
D03*
X033858Y025925D02*
D03*
X034203Y025522D02*
D03*
X013287Y030157D02*
D03*
X012953Y030719D02*
D03*
X030453Y030915D02*
D03*
X017746Y02998D02*
D03*
X029045Y027057D02*
D03*
X01875Y02998D02*
D03*
X025472Y02876D02*
D03*
X027451Y031722D02*
D03*
X034065Y020374D02*
D03*
X028228Y004724D02*
D03*
X007146Y017244D02*
D03*
X007874Y020482D02*
D03*
X039715Y02624D02*
D03*
X037106Y022707D02*
D03*
X034567Y032943D02*
D03*
X034577Y03437D02*
D03*
X052677Y034163D02*
D03*
X03622Y0319D02*
D03*
X031024Y027382D02*
D03*
X034065Y027795D02*
D03*
X033858Y02689D02*
D03*
X034203Y026368D02*
D03*
X042894Y03438D02*
D03*
X046565Y02436D02*
D03*
X044341Y026604D02*
D03*
X046102Y019813D02*
D03*
X04438Y023976D02*
D03*
X044724Y023199D02*
D03*
X012598Y031663D02*
D03*
X012185Y032313D02*
D03*
X021516Y004724D02*
D03*
X028937Y003711D02*
D03*
D77*
X0544Y00687D02*
D03*
X055915D02*
D03*
X050984Y006841D02*
D03*
X0525D02*
D03*
X047382D02*
D03*
X048898D02*
D03*
X04378D02*
D03*
X045295D02*
D03*
X040177D02*
D03*
X041693D02*
D03*
X036575D02*
D03*
X038091D02*
D03*
X032973D02*
D03*
X034488D02*
D03*
X02937D02*
D03*
X030886D02*
D03*
M02*
