G04 Layer_Color=32768*
%FSTAX24Y24*%
%MOIN*%
G70*
G01*
G75*
%ADD41C,0.0039*%
D41*
X010374Y041407D02*
X013209D01*
X010374Y037982D02*
X013209D01*
Y041407D01*
X010374Y037982D02*
Y041407D01*
X011791Y039498D02*
Y039892D01*
X011594Y039695D02*
X011988D01*
X012707Y035236D02*
Y03563D01*
X01251Y035433D02*
X012904D01*
X01123Y03435D02*
X014183D01*
X01123Y036516D02*
X014183D01*
Y03435D02*
Y036516D01*
X01123Y03435D02*
Y036516D01*
X02937Y00627D02*
Y007648D01*
X030847Y00627D02*
Y007648D01*
X02937D02*
X030847D01*
X02937Y00627D02*
X030847D01*
X029912Y006959D02*
X030305D01*
X030108Y006762D02*
Y007156D01*
X032973Y00627D02*
Y007648D01*
X034449Y00627D02*
Y007648D01*
X032973D02*
X034449D01*
X032973Y00627D02*
X034449D01*
X033514Y006959D02*
X033908D01*
X033711Y006762D02*
Y007156D01*
X036575Y00627D02*
Y007648D01*
X038051Y00627D02*
Y007648D01*
X036575D02*
X038051D01*
X036575Y00627D02*
X038051D01*
X037116Y006959D02*
X03751D01*
X037313Y006762D02*
Y007156D01*
X040177Y00627D02*
Y007648D01*
X041654Y00627D02*
Y007648D01*
X040177D02*
X041654D01*
X040177Y00627D02*
X041654D01*
X040719Y006959D02*
X041112D01*
X040915Y006762D02*
Y007156D01*
X04378Y00627D02*
Y007648D01*
X045256Y00627D02*
Y007648D01*
X04378D02*
X045256D01*
X04378Y00627D02*
X045256D01*
X044321Y006959D02*
X044715D01*
X044518Y006762D02*
Y007156D01*
X047382Y00627D02*
Y007648D01*
X048858Y00627D02*
Y007648D01*
X047382D02*
X048858D01*
X047382Y00627D02*
X048858D01*
X047923Y006959D02*
X048317D01*
X04812Y006762D02*
Y007156D01*
X050984Y00627D02*
Y007648D01*
X052461Y00627D02*
Y007648D01*
X050984D02*
X052461D01*
X050984Y00627D02*
X052461D01*
X051526Y006959D02*
X051919D01*
X051722Y006762D02*
Y007156D01*
X054587Y00627D02*
Y007648D01*
X056063Y00627D02*
Y007648D01*
X054587D02*
X056063D01*
X054587Y00627D02*
X056063D01*
X055128Y006959D02*
X055522D01*
X055325Y006762D02*
Y007156D01*
X02498Y018418D02*
Y018811D01*
X024783Y018614D02*
X025177D01*
X023504Y017532D02*
X026457D01*
X023504Y019697D02*
X026457D01*
Y017532D02*
Y019697D01*
X023504Y017532D02*
Y019697D01*
X018241Y018418D02*
Y018811D01*
X018045Y018614D02*
X018438D01*
X016765Y017532D02*
X019718D01*
X016765Y019697D02*
X019718D01*
Y017532D02*
Y019697D01*
X016765Y017532D02*
Y019697D01*
X016073Y039577D02*
X016467D01*
X01627Y03938D02*
Y039774D01*
X0156Y038238D02*
Y040915D01*
X016939Y038238D02*
Y040915D01*
X0156Y038238D02*
X016939D01*
X0156Y040915D02*
X016939D01*
X004764Y018418D02*
Y018811D01*
X004567Y018614D02*
X004961D01*
X003287Y017532D02*
X00624D01*
X003287Y019697D02*
X00624D01*
Y017532D02*
Y019697D01*
X003287Y017532D02*
Y019697D01*
X034793Y030408D02*
Y031117D01*
X03313Y030408D02*
Y031117D01*
Y030408D02*
X034793D01*
X03313Y031117D02*
X034793D01*
X033892Y030763D02*
X034022D01*
X033957Y030704D02*
Y030834D01*
X005886Y035443D02*
Y035837D01*
X005689Y03564D02*
X006083D01*
X004409Y034557D02*
X007362D01*
X004409Y036722D02*
X007362D01*
Y034557D02*
Y036722D01*
X004409Y034557D02*
Y036722D01*
X034823Y02815D02*
X042028D01*
X034823Y020945D02*
X042028D01*
Y02815D01*
X034823Y020945D02*
Y02815D01*
X038425Y02435D02*
Y024744D01*
X038228Y024547D02*
X038622D01*
X011503Y018418D02*
Y018811D01*
X011306Y018614D02*
X011699D01*
X010026Y017532D02*
X012979D01*
X010026Y019697D02*
X012979D01*
Y017532D02*
Y019697D01*
X010026Y017532D02*
Y019697D01*
X018241Y02498D02*
Y025374D01*
X018045Y025177D02*
X018438D01*
X016765Y024094D02*
X019718D01*
X016765Y02626D02*
X019718D01*
Y024094D02*
Y02626D01*
X016765Y024094D02*
Y02626D01*
X053819Y006201D02*
Y007539D01*
X056496Y006201D02*
Y007539D01*
X053819Y006201D02*
X056496D01*
X053819Y007539D02*
X056496D01*
X054961Y00687D02*
X055354D01*
X055157Y006673D02*
Y007067D01*
X050404Y006171D02*
Y00751D01*
X053081Y006171D02*
Y00751D01*
X050404Y006171D02*
X053081D01*
X050404Y00751D02*
X053081D01*
X051545Y006841D02*
X051939D01*
X051742Y006644D02*
Y007037D01*
X046801Y006171D02*
Y00751D01*
X049478Y006171D02*
Y00751D01*
X046801Y006171D02*
X049478D01*
X046801Y00751D02*
X049478D01*
X047943Y006841D02*
X048337D01*
X04814Y006644D02*
Y007037D01*
X043199Y006171D02*
Y00751D01*
X045876Y006171D02*
Y00751D01*
X043199Y006171D02*
X045876D01*
X043199Y00751D02*
X045876D01*
X044341Y006841D02*
X044734D01*
X044537Y006644D02*
Y007037D01*
X039597Y006171D02*
Y00751D01*
X042274Y006171D02*
Y00751D01*
X039597Y006171D02*
X042274D01*
X039597Y00751D02*
X042274D01*
X040738Y006841D02*
X041132D01*
X040935Y006644D02*
Y007037D01*
X035994Y006171D02*
Y00751D01*
X038671Y006171D02*
Y00751D01*
X035994Y006171D02*
X038671D01*
X035994Y00751D02*
X038671D01*
X037136Y006841D02*
X03753D01*
X037333Y006644D02*
Y007037D01*
X032392Y006171D02*
Y00751D01*
X035069Y006171D02*
Y00751D01*
X032392Y006171D02*
X035069D01*
X032392Y00751D02*
X035069D01*
X033534Y006841D02*
X033927D01*
X03373Y006644D02*
Y007037D01*
X028789Y006171D02*
Y00751D01*
X031467Y006171D02*
Y00751D01*
X028789Y006171D02*
X031467D01*
X028789Y00751D02*
X031467D01*
X029931Y006841D02*
X030325D01*
X030128Y006644D02*
Y007037D01*
X003287Y024094D02*
Y02626D01*
X00624Y024094D02*
Y02626D01*
X003287D02*
X00624D01*
X003287Y024094D02*
X00624D01*
X004567Y025177D02*
X004961D01*
X004764Y02498D02*
Y025374D01*
M02*
