G04 Layer_Color=2752767*
%FSTAX24Y24*%
%MOIN*%
G70*
G01*
G75*
%ADD43C,0.0020*%
%ADD80C,0.0027*%
D43*
X020934Y034241D02*
Y034401D01*
X021094D01*
Y034241D01*
X020934D01*
X019934D02*
Y034401D01*
X020094D01*
Y034241D01*
X019934D01*
X056585Y043463D02*
X056505Y043623D01*
X056665D01*
X056585Y043463D01*
X005182Y027016D02*
Y027176D01*
X005342D01*
Y027016D01*
X005182D01*
X004182D02*
Y027176D01*
X004342D01*
Y027016D01*
X004182D01*
X049961Y023207D02*
X050001Y023247D01*
X050041D01*
X050001Y023287D01*
X050041Y023327D01*
X050001D01*
X049961Y023367D01*
X049921Y023327D01*
X049881D01*
X049921Y023287D01*
X049881Y023247D01*
X049921D01*
X049961Y023207D01*
X047205Y024979D02*
X047245Y025019D01*
X047285D01*
X047245Y025059D01*
X047285Y025099D01*
X047245D01*
X047205Y025139D01*
X047165Y025099D01*
X047125D01*
X047165Y025059D01*
X047125Y025019D01*
X047165D01*
X047205Y024979D01*
Y023207D02*
X047245Y023247D01*
X047285D01*
X047245Y023287D01*
X047285Y023327D01*
X047245D01*
X047205Y023367D01*
X047165Y023327D01*
X047125D01*
X047165Y023287D01*
X047125Y023247D01*
X047165D01*
X047205Y023207D01*
X049961Y024979D02*
X050001Y025019D01*
X050041D01*
X050001Y025059D01*
X050041Y025099D01*
X050001D01*
X049961Y025139D01*
X049921Y025099D01*
X049881D01*
X049921Y025059D01*
X049881Y025019D01*
X049921D01*
X049961Y024979D01*
X019934Y037558D02*
Y037718D01*
X020094D01*
Y037558D01*
X019934D01*
X020934D02*
Y037718D01*
X021094D01*
Y037558D01*
X020934D01*
X021934D02*
Y037718D01*
X022094D01*
Y037558D01*
X021934D01*
X022934D02*
Y037718D01*
X023094D01*
Y037558D01*
X022934D01*
X023934D02*
Y037718D01*
X024094D01*
Y037558D01*
X023934D01*
X049961Y026972D02*
X050001Y027012D01*
X050041D01*
X050001Y027052D01*
X050041Y027092D01*
X050001D01*
X049961Y027132D01*
X049921Y027092D01*
X049881D01*
X049921Y027052D01*
X049881Y027012D01*
X049921D01*
X049961Y026972D01*
X047205Y028744D02*
X047245Y028784D01*
X047285D01*
X047245Y028824D01*
X047285Y028864D01*
X047245D01*
X047205Y028904D01*
X047165Y028864D01*
X047125D01*
X047165Y028824D01*
X047125Y028784D01*
X047165D01*
X047205Y028744D01*
Y026972D02*
X047245Y027012D01*
X047285D01*
X047245Y027052D01*
X047285Y027092D01*
X047245D01*
X047205Y027132D01*
X047165Y027092D01*
X047125D01*
X047165Y027052D01*
X047125Y027012D01*
X047165D01*
X047205Y026972D01*
X049961Y028744D02*
X050001Y028784D01*
X050041D01*
X050001Y028824D01*
X050041Y028864D01*
X050001D01*
X049961Y028904D01*
X049921Y028864D01*
X049881D01*
X049921Y028824D01*
X049881Y028784D01*
X049921D01*
X049961Y028744D01*
Y030737D02*
X050001Y030777D01*
X050041D01*
X050001Y030817D01*
X050041Y030857D01*
X050001D01*
X049961Y030897D01*
X049921Y030857D01*
X049881D01*
X049921Y030817D01*
X049881Y030777D01*
X049921D01*
X049961Y030737D01*
X047205Y032509D02*
X047245Y032549D01*
X047285D01*
X047245Y032589D01*
X047285Y032629D01*
X047245D01*
X047205Y032669D01*
X047165Y032629D01*
X047125D01*
X047165Y032589D01*
X047125Y032549D01*
X047165D01*
X047205Y032509D01*
Y030737D02*
X047245Y030777D01*
X047285D01*
X047245Y030817D01*
X047285Y030857D01*
X047245D01*
X047205Y030897D01*
X047165Y030857D01*
X047125D01*
X047165Y030817D01*
X047125Y030777D01*
X047165D01*
X047205Y030737D01*
X049961Y032509D02*
X050001Y032549D01*
X050041D01*
X050001Y032589D01*
X050041Y032629D01*
X050001D01*
X049961Y032669D01*
X049921Y032629D01*
X049881D01*
X049921Y032589D01*
X049881Y032549D01*
X049921D01*
X049961Y032509D01*
X001417Y001318D02*
X001337Y001478D01*
X001497D01*
X001417Y001318D01*
X056585D02*
X056505Y001478D01*
X056665D01*
X056585Y001318D01*
X001417Y043463D02*
X001337Y043623D01*
X001497D01*
X001417Y043463D01*
X055745Y004625D02*
Y004785D01*
X055905D01*
Y004625D01*
X055745D01*
X054745D02*
Y004785D01*
X054905D01*
Y004625D01*
X054745D01*
X052142D02*
Y004785D01*
X052302D01*
Y004625D01*
X052142D01*
X051142D02*
Y004785D01*
X051302D01*
Y004625D01*
X051142D01*
X04854D02*
Y004785D01*
X0487D01*
Y004625D01*
X04854D01*
X04754D02*
Y004785D01*
X0477D01*
Y004625D01*
X04754D01*
X044938D02*
Y004785D01*
X045098D01*
Y004625D01*
X044938D01*
X043938D02*
Y004785D01*
X044098D01*
Y004625D01*
X043938D01*
X041335D02*
Y004785D01*
X041495D01*
Y004625D01*
X041335D01*
X040335D02*
Y004785D01*
X040495D01*
Y004625D01*
X040335D01*
X037733D02*
Y004785D01*
X037893D01*
Y004625D01*
X037733D01*
X036733D02*
Y004785D01*
X036893D01*
Y004625D01*
X036733D01*
X052849Y009763D02*
Y009923D01*
X053009D01*
Y009763D01*
X052849D01*
X053849D02*
Y009923D01*
X054009D01*
Y009763D01*
X053849D01*
X045761Y009713D02*
Y009873D01*
X045921D01*
Y009713D01*
X045761D01*
X046761D02*
Y009873D01*
X046921D01*
Y009713D01*
X046761D01*
X038635Y009782D02*
Y009942D01*
X038795D01*
Y009782D01*
X038635D01*
X039635D02*
Y009942D01*
X039795D01*
Y009782D01*
X039635D01*
X034131Y004625D02*
Y004785D01*
X034291D01*
Y004625D01*
X034131D01*
X033131D02*
Y004785D01*
X033291D01*
Y004625D01*
X033131D01*
X030528D02*
Y004785D01*
X030688D01*
Y004625D01*
X030528D01*
X029528D02*
Y004785D01*
X029688D01*
Y004625D01*
X029528D01*
X031455Y009684D02*
Y009844D01*
X031615D01*
Y009684D01*
X031455D01*
X032455D02*
Y009844D01*
X032615D01*
Y009684D01*
X032455D01*
X003405Y030046D02*
Y030206D01*
X003565D01*
Y030046D01*
X003405D01*
X002405D02*
Y030206D01*
X002565D01*
Y030046D01*
X002405D01*
X003405Y031046D02*
Y031206D01*
X003565D01*
Y031046D01*
X003405D01*
X002405D02*
Y031206D01*
X002565D01*
Y031046D01*
X002405D01*
X003405Y032046D02*
Y032206D01*
X003565D01*
Y032046D01*
X003405D01*
X002405D02*
Y032206D01*
X002565D01*
Y032046D01*
X002405D01*
X003405Y033046D02*
Y033206D01*
X003565D01*
Y033046D01*
X003405D01*
X002405D02*
Y033206D01*
X002565D01*
Y033046D01*
X002405D01*
X011923Y027016D02*
Y027176D01*
X012083D01*
Y027016D01*
X011923D01*
X010923D02*
Y027176D01*
X011083D01*
Y027016D01*
X010923D01*
X018661D02*
Y027176D01*
X018821D01*
Y027016D01*
X018661D01*
X017661D02*
Y027176D01*
X017821D01*
Y027016D01*
X017661D01*
X0254D02*
Y027176D01*
X02556D01*
Y027016D01*
X0254D01*
X0244D02*
Y027176D01*
X02456D01*
Y027016D01*
X0244D01*
X049961Y034684D02*
X050001Y034724D01*
X050041D01*
X050001Y034764D01*
X050041Y034804D01*
X050001D01*
X049961Y034844D01*
X049921Y034804D01*
X049881D01*
X049921Y034764D01*
X049881Y034724D01*
X049921D01*
X049961Y034684D01*
X047205Y036455D02*
X047245Y036495D01*
X047285D01*
X047245Y036535D01*
X047285Y036575D01*
X047245D01*
X047205Y036615D01*
X047165Y036575D01*
X047125D01*
X047165Y036535D01*
X047125Y036495D01*
X047165D01*
X047205Y036455D01*
Y034684D02*
X047245Y034724D01*
X047285D01*
X047245Y034764D01*
X047285Y034804D01*
X047245D01*
X047205Y034844D01*
X047165Y034804D01*
X047125D01*
X047165Y034764D01*
X047125Y034724D01*
X047165D01*
X047205Y034684D01*
X049961Y036455D02*
X050001Y036495D01*
X050041D01*
X050001Y036535D01*
X050041Y036575D01*
X050001D01*
X049961Y036615D01*
X049921Y036575D01*
X049881D01*
X049921Y036535D01*
X049881Y036495D01*
X049921D01*
X049961Y036455D01*
X009473Y004514D02*
X009513Y004594D01*
X009473Y004674D01*
X009553Y004634D01*
X009633Y004674D01*
X009593Y004594D01*
X009633Y004514D01*
X009553Y004554D01*
X009473Y004514D01*
Y005514D02*
X009513Y005594D01*
X009473Y005674D01*
X009553Y005634D01*
X009633Y005674D01*
X009593Y005594D01*
X009633Y005514D01*
X009553Y005554D01*
X009473Y005514D01*
Y006514D02*
X009513Y006594D01*
X009473Y006674D01*
X009553Y006634D01*
X009633Y006674D01*
X009593Y006594D01*
X009633Y006514D01*
X009553Y006554D01*
X009473Y006514D01*
X013373Y004514D02*
X013413Y004594D01*
X013373Y004674D01*
X013453Y004634D01*
X013533Y004674D01*
X013493Y004594D01*
X013533Y004514D01*
X013453Y004554D01*
X013373Y004514D01*
Y006514D02*
X013413Y006594D01*
X013373Y006674D01*
X013453Y006634D01*
X013533Y006674D01*
X013493Y006594D01*
X013533Y006514D01*
X013453Y006554D01*
X013373Y006514D01*
X002734Y004514D02*
X002774Y004594D01*
X002734Y004674D01*
X002814Y004634D01*
X002894Y004674D01*
X002854Y004594D01*
X002894Y004514D01*
X002814Y004554D01*
X002734Y004514D01*
Y005514D02*
X002774Y005594D01*
X002734Y005674D01*
X002814Y005634D01*
X002894Y005674D01*
X002854Y005594D01*
X002894Y005514D01*
X002814Y005554D01*
X002734Y005514D01*
Y006514D02*
X002774Y006594D01*
X002734Y006674D01*
X002814Y006634D01*
X002894Y006674D01*
X002854Y006594D01*
X002894Y006514D01*
X002814Y006554D01*
X002734Y006514D01*
X006634Y004514D02*
X006674Y004594D01*
X006634Y004674D01*
X006714Y004634D01*
X006794Y004674D01*
X006754Y004594D01*
X006794Y004514D01*
X006714Y004554D01*
X006634Y004514D01*
Y006514D02*
X006674Y006594D01*
X006634Y006674D01*
X006714Y006634D01*
X006794Y006674D01*
X006754Y006594D01*
X006794Y006514D01*
X006714Y006554D01*
X006634Y006514D01*
X012963Y011304D02*
Y011264D01*
X013043D01*
Y011304D01*
X013083D01*
Y011384D01*
X013043D01*
Y011424D01*
X012963D01*
Y011384D01*
X012923D01*
Y011304D01*
X012963D01*
Y012304D02*
Y012264D01*
X013043D01*
Y012304D01*
X013083D01*
Y012384D01*
X013043D01*
Y012424D01*
X012963D01*
Y012384D01*
X012923D01*
Y012304D01*
X012963D01*
Y013304D02*
Y013264D01*
X013043D01*
Y013304D01*
X013083D01*
Y013384D01*
X013043D01*
Y013424D01*
X012963D01*
Y013384D01*
X012923D01*
Y013304D01*
X012963D01*
Y014304D02*
Y014264D01*
X013043D01*
Y014304D01*
X013083D01*
Y014384D01*
X013043D01*
Y014424D01*
X012963D01*
Y014384D01*
X012923D01*
Y014304D01*
X012963D01*
X009963D02*
Y014264D01*
X010043D01*
Y014304D01*
X010083D01*
Y014384D01*
X010043D01*
Y014424D01*
X009963D01*
Y014384D01*
X009923D01*
Y014304D01*
X009963D01*
Y013304D02*
Y013264D01*
X010043D01*
Y013304D01*
X010083D01*
Y013384D01*
X010043D01*
Y013424D01*
X009963D01*
Y013384D01*
X009923D01*
Y013304D01*
X009963D01*
Y012304D02*
Y012264D01*
X010043D01*
Y012304D01*
X010083D01*
Y012384D01*
X010043D01*
Y012424D01*
X009963D01*
Y012384D01*
X009923D01*
Y012304D01*
X009963D01*
Y011304D02*
Y011264D01*
X010043D01*
Y011304D01*
X010083D01*
Y011384D01*
X010043D01*
Y011424D01*
X009963D01*
Y011384D01*
X009923D01*
Y011304D01*
X009963D01*
X006224D02*
Y011264D01*
X006304D01*
Y011304D01*
X006344D01*
Y011384D01*
X006304D01*
Y011424D01*
X006224D01*
Y011384D01*
X006184D01*
Y011304D01*
X006224D01*
Y012304D02*
Y012264D01*
X006304D01*
Y012304D01*
X006344D01*
Y012384D01*
X006304D01*
Y012424D01*
X006224D01*
Y012384D01*
X006184D01*
Y012304D01*
X006224D01*
Y013304D02*
Y013264D01*
X006304D01*
Y013304D01*
X006344D01*
Y013384D01*
X006304D01*
Y013424D01*
X006224D01*
Y013384D01*
X006184D01*
Y013304D01*
X006224D01*
Y014304D02*
Y014264D01*
X006304D01*
Y014304D01*
X006344D01*
Y014384D01*
X006304D01*
Y014424D01*
X006224D01*
Y014384D01*
X006184D01*
Y014304D01*
X006224D01*
X003224D02*
Y014264D01*
X003304D01*
Y014304D01*
X003344D01*
Y014384D01*
X003304D01*
Y014424D01*
X003224D01*
Y014384D01*
X003184D01*
Y014304D01*
X003224D01*
Y013304D02*
Y013264D01*
X003304D01*
Y013304D01*
X003344D01*
Y013384D01*
X003304D01*
Y013424D01*
X003224D01*
Y013384D01*
X003184D01*
Y013304D01*
X003224D01*
Y012304D02*
Y012264D01*
X003304D01*
Y012304D01*
X003344D01*
Y012384D01*
X003304D01*
Y012424D01*
X003224D01*
Y012384D01*
X003184D01*
Y012304D01*
X003224D01*
Y011304D02*
Y011264D01*
X003304D01*
Y011304D01*
X003344D01*
Y011384D01*
X003304D01*
Y011424D01*
X003224D01*
Y011384D01*
X003184D01*
Y011304D01*
X003224D01*
X02295Y004514D02*
X02299Y004594D01*
X02295Y004674D01*
X02303Y004634D01*
X02311Y004674D01*
X02307Y004594D01*
X02311Y004514D01*
X02303Y004554D01*
X02295Y004514D01*
Y005514D02*
X02299Y005594D01*
X02295Y005674D01*
X02303Y005634D01*
X02311Y005674D01*
X02307Y005594D01*
X02311Y005514D01*
X02303Y005554D01*
X02295Y005514D01*
Y006514D02*
X02299Y006594D01*
X02295Y006674D01*
X02303Y006634D01*
X02311Y006674D01*
X02307Y006594D01*
X02311Y006514D01*
X02303Y006554D01*
X02295Y006514D01*
X02685Y004514D02*
X02689Y004594D01*
X02685Y004674D01*
X02693Y004634D01*
X02701Y004674D01*
X02697Y004594D01*
X02701Y004514D01*
X02693Y004554D01*
X02685Y004514D01*
Y006514D02*
X02689Y006594D01*
X02685Y006674D01*
X02693Y006634D01*
X02701Y006674D01*
X02697Y006594D01*
X02701Y006514D01*
X02693Y006554D01*
X02685Y006514D01*
X016211Y004514D02*
X016251Y004594D01*
X016211Y004674D01*
X016291Y004634D01*
X016371Y004674D01*
X016331Y004594D01*
X016371Y004514D01*
X016291Y004554D01*
X016211Y004514D01*
Y005514D02*
X016251Y005594D01*
X016211Y005674D01*
X016291Y005634D01*
X016371Y005674D01*
X016331Y005594D01*
X016371Y005514D01*
X016291Y005554D01*
X016211Y005514D01*
Y006514D02*
X016251Y006594D01*
X016211Y006674D01*
X016291Y006634D01*
X016371Y006674D01*
X016331Y006594D01*
X016371Y006514D01*
X016291Y006554D01*
X016211Y006514D01*
X020111Y004514D02*
X020151Y004594D01*
X020111Y004674D01*
X020191Y004634D01*
X020271Y004674D01*
X020231Y004594D01*
X020271Y004514D01*
X020191Y004554D01*
X020111Y004514D01*
Y006514D02*
X020151Y006594D01*
X020111Y006674D01*
X020191Y006634D01*
X020271Y006674D01*
X020231Y006594D01*
X020271Y006514D01*
X020191Y006554D01*
X020111Y006514D01*
X02644Y011304D02*
Y011264D01*
X02652D01*
Y011304D01*
X02656D01*
Y011384D01*
X02652D01*
Y011424D01*
X02644D01*
Y011384D01*
X0264D01*
Y011304D01*
X02644D01*
Y012304D02*
Y012264D01*
X02652D01*
Y012304D01*
X02656D01*
Y012384D01*
X02652D01*
Y012424D01*
X02644D01*
Y012384D01*
X0264D01*
Y012304D01*
X02644D01*
Y013304D02*
Y013264D01*
X02652D01*
Y013304D01*
X02656D01*
Y013384D01*
X02652D01*
Y013424D01*
X02644D01*
Y013384D01*
X0264D01*
Y013304D01*
X02644D01*
Y014304D02*
Y014264D01*
X02652D01*
Y014304D01*
X02656D01*
Y014384D01*
X02652D01*
Y014424D01*
X02644D01*
Y014384D01*
X0264D01*
Y014304D01*
X02644D01*
X02344D02*
Y014264D01*
X02352D01*
Y014304D01*
X02356D01*
Y014384D01*
X02352D01*
Y014424D01*
X02344D01*
Y014384D01*
X0234D01*
Y014304D01*
X02344D01*
Y013304D02*
Y013264D01*
X02352D01*
Y013304D01*
X02356D01*
Y013384D01*
X02352D01*
Y013424D01*
X02344D01*
Y013384D01*
X0234D01*
Y013304D01*
X02344D01*
Y012304D02*
Y012264D01*
X02352D01*
Y012304D01*
X02356D01*
Y012384D01*
X02352D01*
Y012424D01*
X02344D01*
Y012384D01*
X0234D01*
Y012304D01*
X02344D01*
Y011304D02*
Y011264D01*
X02352D01*
Y011304D01*
X02356D01*
Y011384D01*
X02352D01*
Y011424D01*
X02344D01*
Y011384D01*
X0234D01*
Y011304D01*
X02344D01*
X019701D02*
Y011264D01*
X019781D01*
Y011304D01*
X019821D01*
Y011384D01*
X019781D01*
Y011424D01*
X019701D01*
Y011384D01*
X019661D01*
Y011304D01*
X019701D01*
Y012304D02*
Y012264D01*
X019781D01*
Y012304D01*
X019821D01*
Y012384D01*
X019781D01*
Y012424D01*
X019701D01*
Y012384D01*
X019661D01*
Y012304D01*
X019701D01*
Y013304D02*
Y013264D01*
X019781D01*
Y013304D01*
X019821D01*
Y013384D01*
X019781D01*
Y013424D01*
X019701D01*
Y013384D01*
X019661D01*
Y013304D01*
X019701D01*
Y014304D02*
Y014264D01*
X019781D01*
Y014304D01*
X019821D01*
Y014384D01*
X019781D01*
Y014424D01*
X019701D01*
Y014384D01*
X019661D01*
Y014304D01*
X019701D01*
X016701D02*
Y014264D01*
X016781D01*
Y014304D01*
X016821D01*
Y014384D01*
X016781D01*
Y014424D01*
X016701D01*
Y014384D01*
X016661D01*
Y014304D01*
X016701D01*
Y013304D02*
Y013264D01*
X016781D01*
Y013304D01*
X016821D01*
Y013384D01*
X016781D01*
Y013424D01*
X016701D01*
Y013384D01*
X016661D01*
Y013304D01*
X016701D01*
Y012304D02*
Y012264D01*
X016781D01*
Y012304D01*
X016821D01*
Y012384D01*
X016781D01*
Y012424D01*
X016701D01*
Y012384D01*
X016661D01*
Y012304D01*
X016701D01*
Y011304D02*
Y011264D01*
X016781D01*
Y011304D01*
X016821D01*
Y011384D01*
X016781D01*
Y011424D01*
X016701D01*
Y011384D01*
X016661D01*
Y011304D01*
X016701D01*
X012448Y008798D02*
X012488D01*
X012528Y008838D01*
X012568Y008798D01*
X012608D01*
Y008838D01*
X012568Y008878D01*
X012608Y008918D01*
Y008958D01*
X012568D01*
X012528Y008918D01*
X012488Y008958D01*
X012448D01*
Y008918D01*
X012488Y008878D01*
X012448Y008838D01*
Y008798D01*
X011448D02*
X011488D01*
X011528Y008838D01*
X011568Y008798D01*
X011608D01*
Y008838D01*
X011568Y008878D01*
X011608Y008918D01*
Y008958D01*
X011568D01*
X011528Y008918D01*
X011488Y008958D01*
X011448D01*
Y008918D01*
X011488Y008878D01*
X011448Y008838D01*
Y008798D01*
X010448D02*
X010488D01*
X010528Y008838D01*
X010568Y008798D01*
X010608D01*
Y008838D01*
X010568Y008878D01*
X010608Y008918D01*
Y008958D01*
X010568D01*
X010528Y008918D01*
X010488Y008958D01*
X010448D01*
Y008918D01*
X010488Y008878D01*
X010448Y008838D01*
Y008798D01*
X005709D02*
X005749D01*
X005789Y008838D01*
X005829Y008798D01*
X005869D01*
Y008838D01*
X005829Y008878D01*
X005869Y008918D01*
Y008958D01*
X005829D01*
X005789Y008918D01*
X005749Y008958D01*
X005709D01*
Y008918D01*
X005749Y008878D01*
X005709Y008838D01*
Y008798D01*
X004709D02*
X004749D01*
X004789Y008838D01*
X004829Y008798D01*
X004869D01*
Y008838D01*
X004829Y008878D01*
X004869Y008918D01*
Y008958D01*
X004829D01*
X004789Y008918D01*
X004749Y008958D01*
X004709D01*
Y008918D01*
X004749Y008878D01*
X004709Y008838D01*
Y008798D01*
X003709D02*
X003749D01*
X003789Y008838D01*
X003829Y008798D01*
X003869D01*
Y008838D01*
X003829Y008878D01*
X003869Y008918D01*
Y008958D01*
X003829D01*
X003789Y008918D01*
X003749Y008958D01*
X003709D01*
Y008918D01*
X003749Y008878D01*
X003709Y008838D01*
Y008798D01*
X025925Y008946D02*
X025965D01*
X026005Y008986D01*
X026045Y008946D01*
X026085D01*
Y008986D01*
X026045Y009026D01*
X026085Y009066D01*
Y009106D01*
X026045D01*
X026005Y009066D01*
X025965Y009106D01*
X025925D01*
Y009066D01*
X025965Y009026D01*
X025925Y008986D01*
Y008946D01*
X024925D02*
X024965D01*
X025005Y008986D01*
X025045Y008946D01*
X025085D01*
Y008986D01*
X025045Y009026D01*
X025085Y009066D01*
Y009106D01*
X025045D01*
X025005Y009066D01*
X024965Y009106D01*
X024925D01*
Y009066D01*
X024965Y009026D01*
X024925Y008986D01*
Y008946D01*
X023925D02*
X023965D01*
X024005Y008986D01*
X024045Y008946D01*
X024085D01*
Y008986D01*
X024045Y009026D01*
X024085Y009066D01*
Y009106D01*
X024045D01*
X024005Y009066D01*
X023965Y009106D01*
X023925D01*
Y009066D01*
X023965Y009026D01*
X023925Y008986D01*
Y008946D01*
X019186Y008926D02*
X019226D01*
X019266Y008966D01*
X019306Y008926D01*
X019346D01*
Y008966D01*
X019306Y009006D01*
X019346Y009046D01*
Y009086D01*
X019306D01*
X019266Y009046D01*
X019226Y009086D01*
X019186D01*
Y009046D01*
X019226Y009006D01*
X019186Y008966D01*
Y008926D01*
X018186D02*
X018226D01*
X018266Y008966D01*
X018306Y008926D01*
X018346D01*
Y008966D01*
X018306Y009006D01*
X018346Y009046D01*
Y009086D01*
X018306D01*
X018266Y009046D01*
X018226Y009086D01*
X018186D01*
Y009046D01*
X018226Y009006D01*
X018186Y008966D01*
Y008926D01*
X017186D02*
X017226D01*
X017266Y008966D01*
X017306Y008926D01*
X017346D01*
Y008966D01*
X017306Y009006D01*
X017346Y009046D01*
Y009086D01*
X017306D01*
X017266Y009046D01*
X017226Y009086D01*
X017186D01*
Y009046D01*
X017226Y009006D01*
X017186Y008966D01*
Y008926D01*
X039453Y030707D02*
X039493D01*
X039533Y030747D01*
X039573Y030707D01*
X039613D01*
Y030747D01*
X039573Y030787D01*
X039613Y030827D01*
Y030867D01*
X039573D01*
X039533Y030827D01*
X039493Y030867D01*
X039453D01*
Y030827D01*
X039493Y030787D01*
X039453Y030747D01*
Y030707D01*
X037469D02*
X037509D01*
X037549Y030747D01*
X037589Y030707D01*
X037629D01*
Y030747D01*
X037589Y030787D01*
X037629Y030827D01*
Y030867D01*
X037589D01*
X037549Y030827D01*
X037509Y030867D01*
X037469D01*
Y030827D01*
X037509Y030787D01*
X037469Y030747D01*
Y030707D01*
X023383Y040402D02*
Y040562D01*
X023543D01*
Y040402D01*
X023383D01*
Y039615D02*
Y039775D01*
X023543D01*
Y039615D01*
X023383D01*
X022596Y040402D02*
Y040562D01*
X022756D01*
Y040402D01*
X022596D01*
Y039615D02*
Y039775D01*
X022756D01*
Y039615D01*
X022596D01*
X021809Y040402D02*
Y040562D01*
X021969D01*
Y040402D01*
X021809D01*
Y039615D02*
Y039775D01*
X021969D01*
Y039615D01*
X021809D01*
X021021Y040402D02*
Y040562D01*
X021181D01*
Y040402D01*
X021021D01*
Y039615D02*
Y039775D01*
X021181D01*
Y039615D01*
X021021D01*
X020234Y040402D02*
Y040562D01*
X020394D01*
Y040402D01*
X020234D01*
Y039615D02*
Y039775D01*
X020394D01*
Y039615D01*
X020234D01*
X038543Y013189D02*
Y013349D01*
X038703D01*
Y013189D01*
X038543D01*
X037543D02*
Y013349D01*
X037703D01*
Y013189D01*
X037543D01*
X036543D02*
Y013349D01*
X036703D01*
Y013189D01*
X036543D01*
X035543D02*
Y013349D01*
X035703D01*
Y013189D01*
X035543D01*
X034043Y037889D02*
Y038049D01*
X034203D01*
Y037889D01*
X034043D01*
X035043D02*
Y038049D01*
X035203D01*
Y037889D01*
X035043D01*
X036043D02*
Y038049D01*
X036203D01*
Y037889D01*
X036043D01*
X037043D02*
Y038049D01*
X037203D01*
Y037889D01*
X037043D01*
X038043D02*
Y038049D01*
X038203D01*
Y037889D01*
X038043D01*
X039043D02*
Y038049D01*
X039203D01*
Y037889D01*
X039043D01*
X040043D02*
Y038049D01*
X040203D01*
Y037889D01*
X040043D01*
X041043D02*
Y038049D01*
X041203D01*
Y037889D01*
X041043D01*
X043743Y037569D02*
X043823Y037649D01*
X043903Y037569D01*
X043823Y037489D01*
X043743Y037569D01*
X033043Y037889D02*
Y038049D01*
X033203D01*
Y037889D01*
X033043D01*
X030343Y037569D02*
X030423Y037649D01*
X030503Y037569D01*
X030423Y037489D01*
X030343Y037569D01*
Y013474D02*
X030423Y013554D01*
X030503Y013474D01*
X030423Y013394D01*
X030343Y013474D01*
X043743D02*
X043823Y013554D01*
X043903Y013474D01*
X043823Y013394D01*
X043743Y013474D01*
X021859Y041308D02*
Y041468D01*
X022019D01*
Y041308D01*
X021859D01*
X021899Y041348D02*
Y041428D01*
X021979D01*
Y041348D01*
X021899D01*
X020944Y036101D02*
Y036261D01*
X021104D01*
Y036101D01*
X020944D01*
X020984Y036141D02*
Y036221D01*
X021064D01*
Y036141D01*
X020984D01*
X020944Y036849D02*
Y037009D01*
X021104D01*
Y036849D01*
X020944D01*
X020984Y036889D02*
Y036969D01*
X021064D01*
Y036889D01*
X020984D01*
X010058Y038995D02*
Y039155D01*
X010218D01*
Y038995D01*
X010058D01*
X010098Y039035D02*
Y039115D01*
X010178D01*
Y039035D01*
X010098D01*
X013355Y038995D02*
Y039155D01*
X013515D01*
Y038995D01*
X013355D01*
X013395Y039035D02*
Y039115D01*
X013475D01*
Y039035D01*
X013395D01*
X03554Y033965D02*
Y034125D01*
X0357D01*
Y033965D01*
X03554D01*
X03558Y034005D02*
Y034085D01*
X03566D01*
Y034005D01*
X03558D01*
X03554Y032745D02*
Y032905D01*
X0357D01*
Y032745D01*
X03554D01*
X03558Y032785D02*
Y032865D01*
X03566D01*
Y032785D01*
X03558D01*
X041251Y037314D02*
Y037474D01*
X041411D01*
Y037314D01*
X041251D01*
X041291Y037354D02*
Y037434D01*
X041371D01*
Y037354D01*
X041291D01*
X040589Y037026D02*
Y037186D01*
X040749D01*
Y037026D01*
X040589D01*
X040629Y037066D02*
Y037146D01*
X040709D01*
Y037066D01*
X040629D01*
X04242Y036948D02*
Y037108D01*
X04258D01*
Y036948D01*
X04242D01*
X04246Y036988D02*
Y037068D01*
X04254D01*
Y036988D01*
X04246D01*
X034438Y022676D02*
Y022836D01*
X034598D01*
Y022676D01*
X034438D01*
X034478Y022716D02*
Y022796D01*
X034558D01*
Y022716D01*
X034478D01*
X017292Y040048D02*
Y040208D01*
X017452D01*
Y040048D01*
X017292D01*
X017332Y040088D02*
Y040168D01*
X017412D01*
Y040088D01*
X017332D01*
X017292Y036278D02*
Y036438D01*
X017452D01*
Y036278D01*
X017292D01*
X017332Y036318D02*
Y036398D01*
X017412D01*
Y036318D01*
X017332D01*
X036121Y029448D02*
Y029608D01*
X036281D01*
Y029448D01*
X036121D01*
X036161Y029488D02*
Y029568D01*
X036241D01*
Y029488D01*
X036161D01*
X037184Y029024D02*
Y029184D01*
X037344D01*
Y029024D01*
X037184D01*
X037224Y029064D02*
Y029144D01*
X037304D01*
Y029064D01*
X037224D01*
X037951Y029024D02*
Y029184D01*
X038111D01*
Y029024D01*
X037951D01*
X037991Y029064D02*
Y029144D01*
X038071D01*
Y029064D01*
X037991D01*
X030373Y026298D02*
Y026458D01*
X030533D01*
Y026298D01*
X030373D01*
X030413Y026338D02*
Y026418D01*
X030493D01*
Y026338D01*
X030413D01*
X029979Y025845D02*
Y026005D01*
X030139D01*
Y025845D01*
X029979D01*
X030019Y025885D02*
Y025965D01*
X030099D01*
Y025885D01*
X030019D01*
X036459Y028991D02*
Y029151D01*
X036619D01*
Y028991D01*
X036459D01*
X036499Y029031D02*
Y029111D01*
X036579D01*
Y029031D01*
X036499D01*
X035215Y029418D02*
Y029578D01*
X035375D01*
Y029418D01*
X035215D01*
X035255Y029458D02*
Y029538D01*
X035335D01*
Y029458D01*
X035255D01*
X035717Y029034D02*
Y029194D01*
X035877D01*
Y029034D01*
X035717D01*
X035757Y029074D02*
Y029154D01*
X035837D01*
Y029074D01*
X035757D01*
X034792Y029014D02*
Y029174D01*
X034952D01*
Y029014D01*
X034792D01*
X034832Y029054D02*
Y029134D01*
X034912D01*
Y029054D01*
X034832D01*
X034339Y029428D02*
Y029588D01*
X034499D01*
Y029428D01*
X034339D01*
X034379Y029468D02*
Y029548D01*
X034459D01*
Y029468D01*
X034379D01*
X037853Y014202D02*
Y014361D01*
X038013D01*
Y014202D01*
X037853D01*
X037893Y014241D02*
Y014322D01*
X037973D01*
Y014241D01*
X037893D01*
X039123Y014221D02*
Y014381D01*
X039283D01*
Y014221D01*
X039123D01*
X039163Y014261D02*
Y014341D01*
X039243D01*
Y014261D01*
X039163D01*
X037302Y016554D02*
Y016714D01*
X037462D01*
Y016554D01*
X037302D01*
X037342Y016594D02*
Y016674D01*
X037422D01*
Y016594D01*
X037342D01*
X041554Y016534D02*
Y016694D01*
X041714D01*
Y016534D01*
X041554D01*
X041594Y016574D02*
Y016654D01*
X041674D01*
Y016574D01*
X041594D01*
X039349Y017036D02*
Y017196D01*
X039509D01*
Y017036D01*
X039349D01*
X039389Y017076D02*
Y017156D01*
X039469D01*
Y017076D01*
X039389D01*
X039753Y016574D02*
Y016734D01*
X039913D01*
Y016574D01*
X039753D01*
X039793Y016614D02*
Y016694D01*
X039873D01*
Y016614D01*
X039793D01*
X040158Y017036D02*
Y017196D01*
X040318D01*
Y017036D01*
X040158D01*
X040198Y017076D02*
Y017156D01*
X040278D01*
Y017076D01*
X040198D01*
X046711Y018788D02*
Y018948D01*
X046871D01*
Y018788D01*
X046711D01*
X046751Y018828D02*
Y018908D01*
X046831D01*
Y018828D01*
X046751D01*
X04055Y018473D02*
Y018633D01*
X04071D01*
Y018473D01*
X04055D01*
X04059Y018513D02*
Y018593D01*
X04067D01*
Y018513D01*
X04059D01*
X037331Y019005D02*
Y019165D01*
X037491D01*
Y019005D01*
X037331D01*
X037371Y019045D02*
Y019125D01*
X037451D01*
Y019045D01*
X037371D01*
X040158Y019625D02*
Y019785D01*
X040318D01*
Y019625D01*
X040158D01*
X040198Y019665D02*
Y019745D01*
X040278D01*
Y019665D01*
X040198D01*
X035904Y019625D02*
Y019785D01*
X036064D01*
Y019625D01*
X035904D01*
X035944Y019665D02*
Y019745D01*
X036024D01*
Y019665D01*
X035944D01*
X042617Y020698D02*
Y020858D01*
X042777D01*
Y020698D01*
X042617D01*
X042657Y020738D02*
Y020818D01*
X042737D01*
Y020738D01*
X042657D01*
X041554Y014713D02*
Y014873D01*
X041714D01*
Y014713D01*
X041554D01*
X041594Y014753D02*
Y014833D01*
X041674D01*
Y014753D01*
X041594D01*
X041554Y01554D02*
Y0157D01*
X041714D01*
Y01554D01*
X041554D01*
X041594Y01558D02*
Y01566D01*
X041674D01*
Y01558D01*
X041594D01*
X038286Y016948D02*
Y017108D01*
X038446D01*
Y016948D01*
X038286D01*
X038326Y016988D02*
Y017068D01*
X038406D01*
Y016988D01*
X038326D01*
X037971Y036091D02*
Y036251D01*
X038131D01*
Y036091D01*
X037971D01*
X038011Y036131D02*
Y036211D01*
X038091D01*
Y036131D01*
X038011D01*
X037971Y03431D02*
Y03447D01*
X038131D01*
Y03431D01*
X037971D01*
X038011Y03435D02*
Y03443D01*
X038091D01*
Y03435D01*
X038011D01*
X0568Y006879D02*
Y007039D01*
X05696D01*
Y006879D01*
X0568D01*
X05684Y006919D02*
Y006999D01*
X05692D01*
Y006919D01*
X05684D01*
X053181Y006879D02*
Y007039D01*
X053341D01*
Y006879D01*
X053181D01*
X053221Y006919D02*
Y006999D01*
X053301D01*
Y006919D01*
X053221D01*
X049578Y006879D02*
Y007039D01*
X049738D01*
Y006879D01*
X049578D01*
X049618Y006919D02*
Y006999D01*
X049698D01*
Y006919D01*
X049618D01*
X046081Y006879D02*
Y007039D01*
X046241D01*
Y006879D01*
X046081D01*
X046121Y006919D02*
Y006999D01*
X046201D01*
Y006919D01*
X046121D01*
X04245Y006879D02*
Y007039D01*
X04261D01*
Y006879D01*
X04245D01*
X04249Y006919D02*
Y006999D01*
X04257D01*
Y006919D01*
X04249D01*
X038818Y006879D02*
Y007039D01*
X038978D01*
Y006879D01*
X038818D01*
X038858Y006919D02*
Y006999D01*
X038938D01*
Y006919D01*
X038858D01*
X035284Y006879D02*
Y007039D01*
X035444D01*
Y006879D01*
X035284D01*
X035324Y006919D02*
Y006999D01*
X035404D01*
Y006919D01*
X035324D01*
X031566Y006879D02*
Y007039D01*
X031726D01*
Y006879D01*
X031566D01*
X031606Y006919D02*
Y006999D01*
X031686D01*
Y006919D01*
X031606D01*
X036327Y019005D02*
Y019165D01*
X036487D01*
Y019005D01*
X036327D01*
X036367Y019045D02*
Y019125D01*
X036447D01*
Y019045D01*
X036367D01*
X036869Y019625D02*
Y019785D01*
X037029D01*
Y019625D01*
X036869D01*
X036909Y019665D02*
Y019745D01*
X036989D01*
Y019665D01*
X036909D01*
X037755Y019625D02*
Y019785D01*
X037915D01*
Y019625D01*
X037755D01*
X037795Y019665D02*
Y019745D01*
X037875D01*
Y019665D01*
X037795D01*
X038552Y019625D02*
Y019785D01*
X038712D01*
Y019625D01*
X038552D01*
X038592Y019665D02*
Y019745D01*
X038672D01*
Y019665D01*
X038592D01*
X011642Y033896D02*
Y034056D01*
X011802D01*
Y033896D01*
X011642D01*
X011682Y033936D02*
Y034016D01*
X011762D01*
Y033936D01*
X011682D01*
X008119Y004644D02*
Y004804D01*
X008279D01*
Y004644D01*
X008119D01*
X008159Y004684D02*
Y004764D01*
X008239D01*
Y004684D01*
X008159D01*
X01489Y004644D02*
Y004804D01*
X01505D01*
Y004644D01*
X01489D01*
X01493Y004684D02*
Y004764D01*
X01501D01*
Y004684D01*
X01493D01*
X019959Y018778D02*
Y018938D01*
X020119D01*
Y018778D01*
X019959D01*
X019999Y018818D02*
Y018898D01*
X020079D01*
Y018818D01*
X019999D01*
X010398Y0174D02*
Y01756D01*
X010558D01*
Y0174D01*
X010398D01*
X010438Y01744D02*
Y01752D01*
X010518D01*
Y01744D01*
X010438D01*
X008896Y023011D02*
Y023171D01*
X009056D01*
Y023011D01*
X008896D01*
X008936Y023051D02*
Y023131D01*
X009016D01*
Y023051D01*
X008936D01*
X021319Y020413D02*
Y020573D01*
X021479D01*
Y020413D01*
X021319D01*
X021359Y020453D02*
Y020533D01*
X021439D01*
Y020453D01*
X021359D01*
X005688Y019733D02*
Y019893D01*
X005848D01*
Y019733D01*
X005688D01*
X005728Y019773D02*
Y019853D01*
X005808D01*
Y019773D01*
X005728D01*
X002863Y019284D02*
Y019444D01*
X003023D01*
Y019284D01*
X002863D01*
X002903Y019324D02*
Y019404D01*
X002983D01*
Y019324D01*
X002903D01*
X002184Y021692D02*
Y021852D01*
X002344D01*
Y021692D01*
X002184D01*
X002224Y021732D02*
Y021812D01*
X002304D01*
Y021732D01*
X002224D01*
X002184Y021091D02*
Y021251D01*
X002344D01*
Y021091D01*
X002184D01*
X002224Y021131D02*
Y021211D01*
X002304D01*
Y021131D01*
X002224D01*
X006436Y024339D02*
Y024499D01*
X006596D01*
Y024339D01*
X006436D01*
X006476Y024379D02*
Y024459D01*
X006556D01*
Y024379D01*
X006476D01*
X02493Y025629D02*
Y025789D01*
X02509D01*
Y025629D01*
X02493D01*
X02497Y025669D02*
Y025749D01*
X02505D01*
Y025669D01*
X02497D01*
X020068Y024349D02*
Y024509D01*
X020228D01*
Y024349D01*
X020068D01*
X020108Y024389D02*
Y024469D01*
X020188D01*
Y024389D01*
X020108D01*
X024369Y024989D02*
Y025149D01*
X024529D01*
Y024989D01*
X024369D01*
X024409Y025029D02*
Y025109D01*
X024489D01*
Y025029D01*
X024409D01*
X020068Y024851D02*
Y025011D01*
X020228D01*
Y024851D01*
X020068D01*
X020108Y024891D02*
Y024971D01*
X020188D01*
Y024891D01*
X020108D01*
X0224Y025363D02*
Y025523D01*
X02256D01*
Y025363D01*
X0224D01*
X02244Y025403D02*
Y025483D01*
X02252D01*
Y025403D01*
X02244D01*
X020068Y025363D02*
Y025523D01*
X020228D01*
Y025363D01*
X020068D01*
X020108Y025403D02*
Y025483D01*
X020188D01*
Y025403D01*
X020108D01*
X019694Y022302D02*
Y022462D01*
X019854D01*
Y022302D01*
X019694D01*
X019734Y022342D02*
Y022422D01*
X019814D01*
Y022342D01*
X019734D01*
X020196Y021091D02*
Y021251D01*
X020356D01*
Y021091D01*
X020196D01*
X020236Y021131D02*
Y021211D01*
X020316D01*
Y021131D01*
X020236D01*
X020668Y017194D02*
Y017354D01*
X020828D01*
Y017194D01*
X020668D01*
X020708Y017234D02*
Y017314D01*
X020788D01*
Y017234D01*
X020708D01*
X01557Y021692D02*
Y021852D01*
X01573D01*
Y021692D01*
X01557D01*
X01561Y021732D02*
Y021812D01*
X01569D01*
Y021732D01*
X01561D01*
X01557Y021091D02*
Y021251D01*
X01573D01*
Y021091D01*
X01557D01*
X01561Y021131D02*
Y021211D01*
X01569D01*
Y021131D01*
X01561D01*
X017302Y017322D02*
Y017482D01*
X017462D01*
Y017322D01*
X017302D01*
X017342Y017362D02*
Y017442D01*
X017422D01*
Y017362D01*
X017342D01*
X016282Y019284D02*
Y019444D01*
X016442D01*
Y019284D01*
X016282D01*
X016322Y019324D02*
Y019404D01*
X016402D01*
Y019324D01*
X016322D01*
X016288Y017272D02*
Y017432D01*
X016448D01*
Y017272D01*
X016288D01*
X016328Y017312D02*
Y017392D01*
X016408D01*
Y017312D01*
X016328D01*
X04055Y02619D02*
Y02635D01*
X04071D01*
Y02619D01*
X04055D01*
X04059Y02623D02*
Y02631D01*
X04067D01*
Y02623D01*
X04059D01*
X011702Y039713D02*
Y039873D01*
X011861D01*
Y039713D01*
X011702D01*
X011741Y039753D02*
Y039833D01*
X011822D01*
Y039753D01*
X011741D01*
X014398Y041003D02*
Y041163D01*
X014558D01*
Y041003D01*
X014398D01*
X014438Y041043D02*
Y041123D01*
X014518D01*
Y041043D01*
X014438D01*
X007566Y03631D02*
Y03647D01*
X007726D01*
Y03631D01*
X007566D01*
X007606Y03635D02*
Y03643D01*
X007686D01*
Y03635D01*
X007606D01*
X038178Y019005D02*
Y019165D01*
X038338D01*
Y019005D01*
X038178D01*
X038218Y019045D02*
Y019125D01*
X038298D01*
Y019045D01*
X038218D01*
X038936Y019005D02*
Y019165D01*
X039096D01*
Y019005D01*
X038936D01*
X038976Y019045D02*
Y019125D01*
X039056D01*
Y019045D01*
X038976D01*
X039349Y019625D02*
Y019785D01*
X039509D01*
Y019625D01*
X039349D01*
X039389Y019665D02*
Y019745D01*
X039469D01*
Y019665D01*
X039389D01*
X039763Y019005D02*
Y019165D01*
X039923D01*
Y019005D01*
X039763D01*
X039803Y019045D02*
Y019125D01*
X039883D01*
Y019045D01*
X039803D01*
X04055Y019005D02*
Y019165D01*
X04071D01*
Y019005D01*
X04055D01*
X04059Y019045D02*
Y019125D01*
X04067D01*
Y019045D01*
X04059D01*
X035501Y019005D02*
Y019165D01*
X035661D01*
Y019005D01*
X035501D01*
X035541Y019045D02*
Y019125D01*
X035621D01*
Y019045D01*
X035541D01*
X037587Y029457D02*
Y029617D01*
X037747D01*
Y029457D01*
X037587D01*
X037627Y029497D02*
Y029577D01*
X037707D01*
Y029497D01*
X037627D01*
X034024Y021721D02*
Y021881D01*
X034184D01*
Y021721D01*
X034024D01*
X034064Y021761D02*
Y021841D01*
X034144D01*
Y021761D01*
X034064D01*
X033768Y025048D02*
Y025208D01*
X033928D01*
Y025048D01*
X033768D01*
X033808Y025088D02*
Y025168D01*
X033888D01*
Y025088D01*
X033808D01*
X034152Y024615D02*
Y024775D01*
X034312D01*
Y024615D01*
X034152D01*
X034192Y024655D02*
Y024735D01*
X034272D01*
Y024655D01*
X034192D01*
X006455Y018798D02*
Y018958D01*
X006615D01*
Y018798D01*
X006455D01*
X006495Y018838D02*
Y018918D01*
X006575D01*
Y018838D01*
X006495D01*
X006475Y017755D02*
Y017915D01*
X006635D01*
Y017755D01*
X006475D01*
X006515Y017795D02*
Y017875D01*
X006595D01*
Y017795D01*
X006515D01*
X006613Y02115D02*
Y02131D01*
X006773D01*
Y02115D01*
X006613D01*
X006653Y02119D02*
Y02127D01*
X006733D01*
Y02119D01*
X006653D01*
X006436Y024851D02*
Y025011D01*
X006596D01*
Y024851D01*
X006436D01*
X006476Y024891D02*
Y024971D01*
X006556D01*
Y024891D01*
X006476D01*
X010806Y024969D02*
Y025129D01*
X010966D01*
Y024969D01*
X010806D01*
X010846Y025009D02*
Y025089D01*
X010926D01*
Y025009D01*
X010846D01*
X006436Y025343D02*
Y025503D01*
X006596D01*
Y025343D01*
X006436D01*
X006476Y025383D02*
Y025463D01*
X006556D01*
Y025383D01*
X006476D01*
X008877Y025274D02*
Y025434D01*
X009037D01*
Y025274D01*
X008877D01*
X008917Y025314D02*
Y025394D01*
X008997D01*
Y025314D01*
X008917D01*
X011426Y025619D02*
Y025779D01*
X011586D01*
Y025619D01*
X011426D01*
X011466Y025659D02*
Y025739D01*
X011546D01*
Y025659D01*
X011466D01*
X006003Y022371D02*
Y022531D01*
X006163D01*
Y022371D01*
X006003D01*
X006043Y022411D02*
Y022491D01*
X006123D01*
Y022411D01*
X006043D01*
X008257Y025707D02*
Y025867D01*
X008417D01*
Y025707D01*
X008257D01*
X008297Y025747D02*
Y025827D01*
X008377D01*
Y025747D01*
X008297D01*
X019969Y017794D02*
Y017954D01*
X020129D01*
Y017794D01*
X019969D01*
X020009Y017834D02*
Y017914D01*
X020089D01*
Y017834D01*
X020009D01*
X013227Y018798D02*
Y018958D01*
X013387D01*
Y018798D01*
X013227D01*
X013267Y018838D02*
Y018918D01*
X013347D01*
Y018838D01*
X013267D01*
X013247Y017774D02*
Y017934D01*
X013407D01*
Y017774D01*
X013247D01*
X013287Y017814D02*
Y017894D01*
X013367D01*
Y017814D01*
X013287D01*
X008887Y021091D02*
Y021251D01*
X009047D01*
Y021091D01*
X008887D01*
X008927Y021131D02*
Y021211D01*
X009007D01*
Y021131D01*
X008927D01*
X01241Y019759D02*
Y019919D01*
X01257D01*
Y019759D01*
X01241D01*
X01245Y019799D02*
Y019879D01*
X01253D01*
Y019799D01*
X01245D01*
X013493Y02115D02*
Y02131D01*
X013653D01*
Y02115D01*
X013493D01*
X013533Y02119D02*
Y02127D01*
X013613D01*
Y02119D01*
X013533D01*
X012912Y022302D02*
Y022462D01*
X013072D01*
Y022302D01*
X012912D01*
X012952Y022342D02*
Y022422D01*
X013032D01*
Y022342D01*
X012952D01*
X009684Y017223D02*
Y017383D01*
X009844D01*
Y017223D01*
X009684D01*
X009724Y017263D02*
Y017343D01*
X009804D01*
Y017263D01*
X009724D01*
X009694Y018906D02*
Y019066D01*
X009854D01*
Y018906D01*
X009694D01*
X009734Y018946D02*
Y019026D01*
X009814D01*
Y018946D01*
X009734D01*
X009487Y019467D02*
Y019627D01*
X009647D01*
Y019467D01*
X009487D01*
X009527Y019507D02*
Y019587D01*
X009607D01*
Y019507D01*
X009527D01*
X013995Y017164D02*
Y017324D01*
X014155D01*
Y017164D01*
X013995D01*
X014035Y017204D02*
Y017284D01*
X014115D01*
Y017204D01*
X014035D01*
X008868Y021702D02*
Y021862D01*
X009028D01*
Y021702D01*
X008868D01*
X008908Y021741D02*
Y021821D01*
X008988D01*
Y021741D01*
X008908D01*
X013503Y023601D02*
Y023761D01*
X013663D01*
Y023601D01*
X013503D01*
X013543Y023641D02*
Y023721D01*
X013623D01*
Y023641D01*
X013543D01*
X013513Y025599D02*
Y025759D01*
X013673D01*
Y025599D01*
X013513D01*
X013553Y025639D02*
Y025719D01*
X013633D01*
Y025639D01*
X013553D01*
X023079Y019497D02*
Y019657D01*
X023239D01*
Y019497D01*
X023079D01*
X023119Y019537D02*
Y019617D01*
X023199D01*
Y019537D01*
X023119D01*
X023217Y018887D02*
Y019047D01*
X023377D01*
Y018887D01*
X023217D01*
X023257Y018927D02*
Y019007D01*
X023337D01*
Y018927D01*
X023257D01*
X023207Y017302D02*
Y017462D01*
X023367D01*
Y017302D01*
X023207D01*
X023247Y017342D02*
Y017422D01*
X023327D01*
Y017342D01*
X023247D01*
X02739Y017184D02*
Y017344D01*
X02755D01*
Y017184D01*
X02739D01*
X02743Y017224D02*
Y017304D01*
X02751D01*
Y017224D01*
X02743D01*
X022381Y021702D02*
Y021862D01*
X022541D01*
Y021702D01*
X022381D01*
X022421Y021741D02*
Y021821D01*
X022501D01*
Y021741D01*
X022421D01*
X026652Y018788D02*
Y018948D01*
X026812D01*
Y018788D01*
X026652D01*
X026692Y018828D02*
Y018908D01*
X026772D01*
Y018828D01*
X026692D01*
X026652Y017696D02*
Y017856D01*
X026812D01*
Y017696D01*
X026652D01*
X026692Y017736D02*
Y017816D01*
X026772D01*
Y017736D01*
X026692D01*
X026948Y021121D02*
Y021281D01*
X027108D01*
Y021121D01*
X026948D01*
X026988Y021161D02*
Y021241D01*
X027068D01*
Y021161D01*
X026988D01*
X026977Y02365D02*
Y02381D01*
X027137D01*
Y02365D01*
X026977D01*
X027017Y02369D02*
Y02377D01*
X027097D01*
Y02369D01*
X027017D01*
X027016Y025619D02*
Y025779D01*
X027176D01*
Y025619D01*
X027016D01*
X027056Y025659D02*
Y025739D01*
X027136D01*
Y025659D01*
X027056D01*
X02245Y023011D02*
Y023171D01*
X02261D01*
Y023011D01*
X02245D01*
X02249Y023051D02*
Y023131D01*
X02257D01*
Y023051D01*
X02249D01*
X022381Y021091D02*
Y021251D01*
X022541D01*
Y021091D01*
X022381D01*
X022421Y021131D02*
Y021211D01*
X022501D01*
Y021131D01*
X022421D01*
X025904Y019772D02*
Y019932D01*
X026064D01*
Y019772D01*
X025904D01*
X025944Y019812D02*
Y019892D01*
X026024D01*
Y019812D01*
X025944D01*
X019192Y019802D02*
Y019962D01*
X019352D01*
Y019802D01*
X019192D01*
X019232Y019842D02*
Y019922D01*
X019312D01*
Y019842D01*
X019232D01*
X026426Y022371D02*
Y022531D01*
X026586D01*
Y022371D01*
X026426D01*
X026466Y022411D02*
Y022491D01*
X026546D01*
Y022411D01*
X026466D01*
X0224Y016574D02*
Y016734D01*
X02256D01*
Y016574D01*
X0224D01*
X02244Y016614D02*
Y016694D01*
X02252D01*
Y016614D01*
X02244D01*
X008916Y016574D02*
Y016734D01*
X009076D01*
Y016574D01*
X008916D01*
X008956Y016614D02*
Y016694D01*
X009036D01*
Y016614D01*
X008956D01*
X009457Y031623D02*
Y031783D01*
X009617D01*
Y031623D01*
X009457D01*
X009497Y031663D02*
Y031743D01*
X009577D01*
Y031663D01*
X009497D01*
X005688Y032351D02*
Y032511D01*
X005848D01*
Y032351D01*
X005688D01*
X005728Y032391D02*
Y032471D01*
X005808D01*
Y032391D01*
X005728D01*
X011633Y029339D02*
Y029499D01*
X011793D01*
Y029339D01*
X011633D01*
X011673Y029379D02*
Y029459D01*
X011753D01*
Y029379D01*
X011673D01*
X002853Y017272D02*
Y017432D01*
X003013D01*
Y017272D01*
X002853D01*
X002893Y017312D02*
Y017392D01*
X002973D01*
Y017312D01*
X002893D01*
X003759Y017331D02*
Y017491D01*
X003919D01*
Y017331D01*
X003759D01*
X003799Y017371D02*
Y017451D01*
X003879D01*
Y017371D01*
X003799D01*
X021692Y025757D02*
Y025917D01*
X021852D01*
Y025757D01*
X021692D01*
X021732Y025797D02*
Y025877D01*
X021812D01*
Y025797D01*
X021732D01*
X019654Y027755D02*
Y027915D01*
X019814D01*
Y027755D01*
X019654D01*
X019694Y027795D02*
Y027875D01*
X019774D01*
Y027795D01*
X019694D01*
X024064Y017292D02*
Y017452D01*
X024224D01*
Y017292D01*
X024064D01*
X024104Y017332D02*
Y017412D01*
X024184D01*
Y017332D01*
X024104D01*
X006524Y027755D02*
Y027915D01*
X006684D01*
Y027755D01*
X006524D01*
X006564Y027795D02*
Y027875D01*
X006644D01*
Y027795D01*
X006564D01*
X033778Y025845D02*
Y026005D01*
X033938D01*
Y025845D01*
X033778D01*
X033818Y025885D02*
Y025965D01*
X033898D01*
Y025885D01*
X033818D01*
X034123Y025442D02*
Y025602D01*
X034283D01*
Y025442D01*
X034123D01*
X034163Y025482D02*
Y025562D01*
X034243D01*
Y025482D01*
X034163D01*
X013207Y030077D02*
Y030237D01*
X013367D01*
Y030077D01*
X013207D01*
X013247Y030117D02*
Y030197D01*
X013327D01*
Y030117D01*
X013247D01*
X012873Y030638D02*
Y030798D01*
X013033D01*
Y030638D01*
X012873D01*
X012913Y030679D02*
Y030759D01*
X012993D01*
Y030679D01*
X012913D01*
X030373Y030835D02*
Y030995D01*
X030533D01*
Y030835D01*
X030373D01*
X030413Y030875D02*
Y030955D01*
X030493D01*
Y030875D01*
X030413D01*
X017666Y0299D02*
Y03006D01*
X017826D01*
Y0299D01*
X017666D01*
X017706Y02994D02*
Y03002D01*
X017786D01*
Y02994D01*
X017706D01*
X028965Y026977D02*
Y027137D01*
X029125D01*
Y026977D01*
X028965D01*
X029005Y027017D02*
Y027097D01*
X029085D01*
Y027017D01*
X029005D01*
X01867Y0299D02*
Y03006D01*
X01883D01*
Y0299D01*
X01867D01*
X01871Y02994D02*
Y03002D01*
X01879D01*
Y02994D01*
X01871D01*
X025392Y02868D02*
Y02884D01*
X025552D01*
Y02868D01*
X025392D01*
X025432Y02872D02*
Y0288D01*
X025512D01*
Y02872D01*
X025432D01*
X027371Y031642D02*
Y031802D01*
X027531D01*
Y031642D01*
X027371D01*
X027411Y031682D02*
Y031762D01*
X027491D01*
Y031682D01*
X027411D01*
X033985Y020294D02*
Y020454D01*
X034145D01*
Y020294D01*
X033985D01*
X034025Y020334D02*
Y020414D01*
X034105D01*
Y020334D01*
X034025D01*
X028148Y004644D02*
Y004804D01*
X028308D01*
Y004644D01*
X028148D01*
X028188Y004684D02*
Y004764D01*
X028268D01*
Y004684D01*
X028188D01*
X007066Y017164D02*
Y017324D01*
X007226D01*
Y017164D01*
X007066D01*
X007106Y017204D02*
Y017284D01*
X007186D01*
Y017204D01*
X007106D01*
X007794Y020402D02*
Y020562D01*
X007954D01*
Y020402D01*
X007794D01*
X007834Y020442D02*
Y020522D01*
X007914D01*
Y020442D01*
X007834D01*
X039635Y02616D02*
Y02632D01*
X039795D01*
Y02616D01*
X039635D01*
X039675Y0262D02*
Y02628D01*
X039755D01*
Y0262D01*
X039675D01*
X037026Y022627D02*
Y022787D01*
X037186D01*
Y022627D01*
X037026D01*
X037066Y022667D02*
Y022747D01*
X037146D01*
Y022667D01*
X037066D01*
X034487Y032863D02*
Y033023D01*
X034647D01*
Y032863D01*
X034487D01*
X034527Y032903D02*
Y032983D01*
X034607D01*
Y032903D01*
X034527D01*
X034497Y03429D02*
Y03445D01*
X034657D01*
Y03429D01*
X034497D01*
X034537Y03433D02*
Y03441D01*
X034617D01*
Y03433D01*
X034537D01*
X052597Y034083D02*
Y034243D01*
X052757D01*
Y034083D01*
X052597D01*
X052637Y034123D02*
Y034203D01*
X052717D01*
Y034123D01*
X052637D01*
X03614Y03182D02*
Y03198D01*
X0363D01*
Y03182D01*
X03614D01*
X03618Y03186D02*
Y03194D01*
X03626D01*
Y03186D01*
X03618D01*
X030944Y027302D02*
Y027462D01*
X031104D01*
Y027302D01*
X030944D01*
X030984Y027342D02*
Y027422D01*
X031064D01*
Y027342D01*
X030984D01*
X033985Y027715D02*
Y027875D01*
X034145D01*
Y027715D01*
X033985D01*
X034025Y027755D02*
Y027835D01*
X034105D01*
Y027755D01*
X034025D01*
X033778Y02681D02*
Y02697D01*
X033938D01*
Y02681D01*
X033778D01*
X033818Y02685D02*
Y02693D01*
X033898D01*
Y02685D01*
X033818D01*
X034123Y026288D02*
Y026448D01*
X034283D01*
Y026288D01*
X034123D01*
X034163Y026328D02*
Y026408D01*
X034243D01*
Y026328D01*
X034163D01*
X042814Y0343D02*
Y03446D01*
X042974D01*
Y0343D01*
X042814D01*
X042854Y03434D02*
Y03442D01*
X042934D01*
Y03434D01*
X042854D01*
X046485Y02428D02*
Y02444D01*
X046645D01*
Y02428D01*
X046485D01*
X046525Y02432D02*
Y0244D01*
X046605D01*
Y02432D01*
X046525D01*
X044261Y026524D02*
Y026684D01*
X044421D01*
Y026524D01*
X044261D01*
X044301Y026564D02*
Y026644D01*
X044381D01*
Y026564D01*
X044301D01*
X046022Y019733D02*
Y019893D01*
X046182D01*
Y019733D01*
X046022D01*
X046062Y019773D02*
Y019853D01*
X046142D01*
Y019773D01*
X046062D01*
X0443Y023896D02*
Y024056D01*
X04446D01*
Y023896D01*
X0443D01*
X04434Y023936D02*
Y024016D01*
X04442D01*
Y023936D01*
X04434D01*
X044644Y023119D02*
Y023279D01*
X044804D01*
Y023119D01*
X044644D01*
X044684Y023159D02*
Y023239D01*
X044764D01*
Y023159D01*
X044684D01*
X012518Y031583D02*
Y031743D01*
X012678D01*
Y031583D01*
X012518D01*
X012558Y031623D02*
Y031703D01*
X012638D01*
Y031623D01*
X012558D01*
X012105Y032233D02*
Y032393D01*
X012265D01*
Y032233D01*
X012105D01*
X012145Y032273D02*
Y032353D01*
X012225D01*
Y032273D01*
X012145D01*
X021436Y004644D02*
Y004804D01*
X021596D01*
Y004644D01*
X021436D01*
X021476Y004684D02*
Y004764D01*
X021556D01*
Y004684D01*
X021476D01*
X028857Y003631D02*
Y003791D01*
X029017D01*
Y003631D01*
X028857D01*
X028897Y003671D02*
Y003751D01*
X028977D01*
Y003671D01*
X028897D01*
D80*
X004982Y040285D02*
G03*
X004982Y040285I-00008J0D01*
G01*
X002482D02*
G03*
X002482Y040285I-00008J0D01*
G01*
X003982Y038285D02*
G03*
X003982Y038285I-00008J0D01*
G01*
M02*
